<?xml version="1.0" encoding="UTF-8"?><svg id="Calque_1" xmlns="http://www.w3.org/2000/svg" viewBox="0 0 240 330"><defs><style>.cls-1{fill:#1d4ed8;stroke-width:0px;}</style></defs><path class="cls-1" d="m100.8570557,100.6055679c20.9558105,0,40.0234375,12.3806458,48.5770264,31.5411453l5.2127075,11.6767883,12.5894165-2.2420654c2.6307983-.4685059,5.2634277-.7060852,7.8247681-.7060852,24.4047852,0,44.2595215,19.8547974,44.2595215,44.2595825s-19.8547363,44.259491-44.2595215,44.259491H51.2484131c-16.8557739,0-30.5689087-13.7132111-30.5689087-30.5690002,0-11.8122101,6.9232788-22.6853485,17.6377563-27.7006378l9.7976685-4.5859985-.3864136-10.8109283-.0095825-.265213c-.022583-.6227875-.0438843-1.2109985-.0438843-1.6750031,0-29.3247147,23.8573608-53.1820755,53.1820068-53.1820755m0-16.3551407c-38.4042969,0-69.5371094,31.1329269-69.5371094,69.5372162,0,.8466492.0338135,1.6850739.0638428,2.5244293-15.9830322,7.4812775-27.0594482,23.7000732-27.0594482,42.5133514,0,25.9154358,21.008667,46.9241486,46.9240723,46.9241486h123.812561c33.4766235,0,60.6146851-27.1381378,60.6146851-60.6146393,0-33.4765778-27.1380615-60.6147156-60.6146851-60.6147156-3.6505737,0-7.2194214.3409271-10.6923218.9594269-10.8436279-24.2903595-35.1918945-41.2292175-63.5115967-41.2292175h0Z"/><path class="cls-1" d="m177.5733532,21.6982527c9.0312577,0,17.2487448,5.3356336,20.9350573,13.5931556l2.2464774,5.0322155,5.4255148-.9661505c1.1338918-.2019105,2.2685202-.3042861,3.3723728-.3042861,10.5176511,0,19.0743825,8.5567314,19.0743825,19.0743825s-8.5567314,19.0743562-19.0743825,19.0743562h-53.3590981c-7.2642782,0-13.1742098-5.9099315-13.1742098-13.1742098,0-5.0906633,2.983703-9.7766377,7.601313-11.9380738l4.2224431-1.9764392-.1665314-4.6591179-.0041297-.114344c-.0097325-.2683547-.0189127-.5218475-.0189127-.7218115,0-12.6379476,10.2817295-22.9196771,22.9197034-22.9196771m0-7.0485318c-16.5510016,0-29.9682089,13.4172336-29.9682089,29.9682089,0,.3648908.0145725.7262042.0275141,1.0879385-6.8881556,3.2242279-11.6617227,10.2139437-11.6617227,18.3218478,0,11.1687045,9.0540371,20.2227416,20.2227416,20.2227416h53.3590981c14.4273119,0,26.1229143-11.6956287,26.1229143-26.122888,0-14.4272856-11.6956024-26.1229143-26.1229143-26.1229143-1.5732759,0-3.1113569.1469348-4.6080616.4134482-4.6732695-10.4683046-15.1665104-17.7683828-27.3713606-17.7683828h0Z"/></svg>