<?xml version="1.0" encoding="UTF-8"?><svg id="Calque_1" xmlns="http://www.w3.org/2000/svg" viewBox="0 0 240 330"><defs><style>.cls-1{fill:#38bdf8;}.cls-1,.cls-2{stroke-width:0px;}.cls-2{fill:#172554;}</style></defs><path class="cls-1" d="m100.8570557,100.6055908c20.9558105,0,40.0234375,12.3807373,48.5770264,31.5411377l5.2126465,11.6765137,12.5892334-2.2416992c2.6309814-.4685059,5.2636719-.7060547,7.8250732-.7060547,24.4047852,0,44.2595215,19.8546143,44.2595215,44.2593994s-19.8547363,44.2595215-44.2595215,44.2595215H51.2484131c-16.8557129,0-30.5689697-13.7131348-30.5689697-30.5689697,0-11.8122559,6.9233398-22.6854248,17.6379395-27.7006836l9.7974854-4.5860596-.3863525-10.8109131-.0096436-.2653809c-.0224609-.6225586-.0438232-1.2108154-.0438232-1.6748047,0-29.324707,23.8574219-53.1820068,53.1820068-53.1820068m0-16.3551025c-38.4042969,0-69.5371094,31.1328125-69.5371094,69.5371094,0,.8466797.0338135,1.6850586.0638428,2.5244141-15.9830322,7.4813232-27.0594482,23.7000732-27.0594482,42.5134277,0,25.9154053,21.008667,46.9240723,46.9240723,46.9240723h123.8126221c33.4765625,0,60.614624-27.1380615,60.614624-60.614624s-27.1380615-60.614624-60.614624-60.614624c-3.6506348,0-7.2194824.3409424-10.6923828.9593506-10.8436279-24.2902832-35.1918945-41.229126-63.5115967-41.229126h0Z"/><path class="cls-1" d="m120,267.0068359c-11.3095703,0-20.5107422-9.2011719-20.5107422-20.5107422,0-4.2670898,1.3095703-8.3618164,3.7880859-11.8525391l16.9677734-26.8291016,16.6103516,27.0126953c2.3916016,3.4487305,3.6552734,7.4794922,3.6552734,11.6689453,0,11.3095703-9.2011719,20.5107422-20.5107422,20.5107422Z"/><path class="cls-2" d="m120.1855469,217.2353516l12.5001221,20.3278809c1.7830811,2.5274658,2.8399658,5.6043701,2.8399658,8.9326172,0,8.5744629-6.9511719,15.5256348-15.5256348,15.5256348-8.574585,0-15.5256348-6.9511719-15.5256348-15.5256348,0-3.3891602,1.0980225-6.5146484,2.9406738-9.0672607l12.7705078-20.1932373m.1186523-18.8414307l-8.5452881,13.512207-12.6265869,19.9655762c-3.0290527,4.3138428-4.6282959,9.362793-4.6282959,14.6241455,0,14.0585938,11.4373779,25.4960938,25.4959717,25.4960938s25.4959717-11.4375,25.4959717-25.4960938c0-5.1622314-1.5418701-10.1306152-4.4624023-14.3913574l-12.3548584-20.0917969-8.3745117-13.6187744h0Z"/><path class="cls-1" d="m43.5605469,267.0068359c-11.3105469,0-20.5117188-9.2011719-20.5117188-20.5107422,0-4.2661133,1.3095703-8.3608398,3.7890625-11.8525391l16.9677734-26.8291016,16.6103516,27.0126953c2.3916016,3.4487305,3.6552734,7.4794922,3.6552734,11.6689453,0,11.3095703-9.2011719,20.5107422-20.5107422,20.5107422Z"/><path class="cls-2" d="m43.7457275,217.2353516l12.5,20.3278809c1.7832031,2.5274658,2.8399658,5.6043701,2.8399658,8.9326172,0,8.5744629-6.9510498,15.5256348-15.5256348,15.5256348s-15.5256348-6.9511719-15.5256348-15.5256348c0-3.3891602,1.0980225-6.5146484,2.9407959-9.0672607l12.7705078-20.1932373m.1186523-18.8414307l-8.5454102,13.5123291-12.6259766,19.9648438c-3.0296631,4.3140869-4.6289062,9.362915-4.6289062,14.6247559,0,14.0585938,11.4373779,25.4960938,25.4959717,25.4960938s25.4959717-11.4375,25.4959717-25.4960938c0-5.1624756-1.541626-10.1304932-4.4621582-14.3911133l-12.3549805-20.0919189-8.3745117-13.6188965h0Z"/><path class="cls-1" d="m196.4394531,267.0068359c-11.3095703,0-20.5107422-9.2011719-20.5107422-20.5107422,0-4.265625,1.3095703-8.3603516,3.7880859-11.8520508l16.96875-26.8291016,16.6103516,27.0126953c2.3916016,3.449707,3.6552734,7.4804688,3.6552734,11.668457,0,11.3095703-9.2011719,20.5107422-20.5117188,20.5107422Z"/><path class="cls-2" d="m196.6254883,217.2353516l12.5,20.3278809c1.7832031,2.5274658,2.8400879,5.6043701,2.8400879,8.9326172,0,8.5744629-6.9511719,15.5256348-15.5256348,15.5256348-8.574707,0-15.5256348-6.9511719-15.5256348-15.5256348,0-3.3891602,1.0980225-6.5146484,2.9406738-9.0672607l12.7705078-20.1932373m.1186523-18.8414307l-8.5452881,13.512207-12.6265869,19.9655762c-3.0290527,4.3138428-4.6282959,9.362793-4.6282959,14.6241455,0,14.0585938,11.4373779,25.4960938,25.4959717,25.4960938s25.4959717-11.4375,25.4959717-25.4960938c0-5.1623535-1.5418701-10.1306152-4.4624023-14.3913574l-12.3548584-20.0916748-8.3745117-13.6188965h0Z"/><path class="cls-1" d="m170.9055924,284.3917098l-12.5000443-20.3278744-12.7705431,20.1931829c-1.8426776,2.5526481-2.9406977,5.6781409-2.9406977,9.0673371,0,8.5744147,6.9510166,15.5256342,15.5256342,15.5256342,8.5745162,0,15.5256342-6.9512194,15.5256342-15.5256342,0-3.3283415-1.0568418-6.4051507-2.8399833-8.9326456Z"/><path class="cls-1" d="m94.4657093,284.3917098l-12.5000443-20.3278744-12.7705431,20.1931829c-1.8426776,2.5526481-2.9406977,5.6781409-2.9406977,9.0673371,0,8.5744147,6.9510166,15.5256342,15.5256342,15.5256342,8.5745162,0,15.5256342-6.9512194,15.5256342-15.5256342,0-3.3283415-1.0568418-6.4051507-2.8399833-8.9326456Z"/></svg>