<?xml version="1.0" encoding="UTF-8"?><svg id="Calque_1" xmlns="http://www.w3.org/2000/svg" viewBox="0 0 240 330"><defs><style>.cls-1{fill:#fff;}.cls-1,.cls-2{stroke-width:0px;}.cls-2{fill:#1d4ed8;}</style></defs><path class="cls-2" d="m100.8570557,100.6055908c20.9558105,0,40.0234375,12.3807373,48.5770264,31.5411377l5.2126465,11.6765137,12.5892334-2.2416992c2.6309814-.4685059,5.2636719-.7060547,7.8250732-.7060547,24.4047852,0,44.2595215,19.8546143,44.2595215,44.2593994s-19.8547363,44.2595215-44.2595215,44.2595215H51.2484131c-16.8557129,0-30.5689697-13.7131348-30.5689697-30.5689697,0-11.8122559,6.9233398-22.6854248,17.6379395-27.7006836l9.7974854-4.5860596-.3863525-10.8109131-.0096436-.2653809c-.0224609-.6225586-.0438232-1.2108154-.0438232-1.6748047,0-29.324707,23.8574219-53.1820068,53.1820068-53.1820068m0-16.3551025c-38.4042969,0-69.5371094,31.1328125-69.5371094,69.5371094,0,.8466797.0338135,1.6850586.0638428,2.5244141-15.9830322,7.4813232-27.0594482,23.7000732-27.0594482,42.5134277,0,25.9154053,21.008667,46.9240723,46.9240723,46.9240723h123.8126221c33.4765625,0,60.614624-27.1380615,60.614624-60.614624s-27.1380615-60.614624-60.614624-60.614624c-3.6506348,0-7.2194824.3409424-10.6923828.9593506-10.8436279-24.2902832-35.1918945-41.229126-63.5115967-41.229126h0Z"/><path class="cls-2" d="m65.7701466,272.7875778c-5.5683594,0-10.0976562-4.5302734-10.0976562-10.0986328v-42.8662109c0-5.5683594,4.5292969-10.0986328,10.0976562-10.0986328s10.0986328,4.5302734,10.0986328,10.0986328v42.8662109c0,5.5683594-4.5302734,10.0986328-10.0986328,10.0986328Z"/><path class="cls-1" d="m65.7705128,214.0217086c3.2034912,0,5.8005371,2.5970459,5.8005371,5.8005371v42.8668213c0,3.2034912-2.5970459,5.8005371-5.8005371,5.8005371-3.2036133,0-5.8005371-2.5970459-5.8005371-5.8005371v-42.8668213c0-3.2034912,2.5969238-5.8005371,5.8005371-5.8005371m0-8.5958252c-7.9381104,0-14.3963623,6.4581299-14.3963623,14.3963623v42.8668213c0,7.9381104,6.458252,14.3963623,14.3963623,14.3963623s14.3963623-6.458252,14.3963623-14.3963623v-42.8668213c0-7.9382324-6.458252-14.3963623-14.3963623-14.3963623h0Z"/><path class="cls-2" d="m87.4000294,287.963359c-5.5683594,0-10.0986328-4.5302734-10.0986328-10.0986328v-42.8662109c0-5.5683594,4.5302734-10.0986328,10.0986328-10.0986328s10.0986328,4.5302734,10.0986328,10.0986328v42.8662109c0,5.5683594-4.5302734,10.0986328-10.0986328,10.0986328Z"/><path class="cls-1" d="m87.4000294,229.1978561c3.2034912,0,5.8005371,2.5969238,5.8005371,5.8005371v42.8666992c0,3.2036133-2.5970459,5.8005371-5.8005371,5.8005371-3.2036133,0-5.8005371-2.5969238-5.8005371-5.8005371v-42.8666992c0-3.2036133,2.5969238-5.8005371,5.8005371-5.8005371m0-8.5958252c-7.9381104,0-14.3963623,6.4581299-14.3963623,14.3963623v42.8666992c0,7.9382324,6.458252,14.3963623,14.3963623,14.3963623s14.3963623-6.4581299,14.3963623-14.3963623v-42.8666992c0-7.9382324-6.458252-14.3963623-14.3963623-14.3963623h0Z"/><path class="cls-2" d="m109.0299122,274.220195c-5.5683594,0-10.0986328-4.5302734-10.0986328-10.0986328v-42.8662109c0-5.5683594,4.5302734-10.0986328,10.0986328-10.0986328s10.0976562,4.5302734,10.0976562,10.0986328v42.8662109c0,5.5683594-4.5292969,10.0986328-10.0976562,10.0986328Z"/><path class="cls-1" d="m109.029546,215.4543258c3.2034912,0,5.8005371,2.5970459,5.8005371,5.8005371v42.8668213c0,3.2034912-2.5970459,5.8005371-5.8005371,5.8005371-3.2036133,0-5.8005371-2.5970459-5.8005371-5.8005371v-42.8668213c0-3.2034912,2.5969238-5.8005371,5.8005371-5.8005371m0-8.5958252c-7.9381104,0-14.3963623,6.4581299-14.3963623,14.3963623v42.8668213c0,7.9381104,6.458252,14.3963623,14.3963623,14.3963623s14.3963623-6.458252,14.3963623-14.3963623v-42.8668213c0-7.9382324-6.458252-14.3963623-14.3963623-14.3963623h0Z"/><rect class="cls-2" x="140.7324167" y="257.8643732" width="11.601055" height="54.4678349" rx="5.8005217" ry="5.8005217"/><rect class="cls-2" x="162.3619352" y="273.0404519" width="11.601055" height="54.4678349" rx="5.8005216" ry="5.8005216"/><rect class="cls-2" x="183.9914537" y="259.2970109" width="11.6010549" height="54.4678349" rx="5.8005216" ry="5.8005216"/></svg>