<?xml version="1.0" encoding="UTF-8"?><svg id="Calque_1" xmlns="http://www.w3.org/2000/svg" xmlns:xlink="http://www.w3.org/1999/xlink" viewBox="0 0 240 330"><defs><style>.cls-1{fill:url(#Nouvelle_nuance_de_dégradé_1-8);}.cls-1,.cls-2,.cls-3,.cls-4,.cls-5,.cls-6,.cls-7,.cls-8,.cls-9,.cls-10{stroke-width:0px;}.cls-2{fill:url(#Nouvelle_nuance_de_dégradé_1-5);}.cls-3{fill:url(#Nouvelle_nuance_de_dégradé_1-4);}.cls-4{fill:url(#Nouvelle_nuance_de_dégradé_1-9);}.cls-5{fill:url(#Nouvelle_nuance_de_dégradé_1-3);}.cls-6{fill:url(#Nouvelle_nuance_de_dégradé_1-10);}.cls-7{fill:url(#Nouvelle_nuance_de_dégradé_1-6);}.cls-8{fill:url(#Nouvelle_nuance_de_dégradé_1-7);}.cls-9{fill:url(#Nouvelle_nuance_de_dégradé_1);}.cls-10{fill:url(#Nouvelle_nuance_de_dégradé_1-2);}</style><linearGradient id="Nouvelle_nuance_de_dégradé_1" x1="85.5203644" y1="252.2563941" x2="129.8295879" y2="132.3608482" gradientUnits="userSpaceOnUse"><stop offset="0" stop-color="#facc15"/><stop offset="1" stop-color="#fde047"/></linearGradient><linearGradient id="Nouvelle_nuance_de_dégradé_1-2" x1="5.9698375" y1="237.6224878" x2="56.7193684" y2="100.3002277" xlink:href="#Nouvelle_nuance_de_dégradé_1"/><linearGradient id="Nouvelle_nuance_de_dégradé_1-3" x1="-14.2097253" y1="230.1648233" x2="36.5398056" y2="92.8425632" xlink:href="#Nouvelle_nuance_de_dégradé_1"/><linearGradient id="Nouvelle_nuance_de_dégradé_1-4" x1="19.4295089" y1="242.5967142" x2="70.1790398" y2="105.2744541" xlink:href="#Nouvelle_nuance_de_dégradé_1"/><linearGradient id="Nouvelle_nuance_de_dégradé_1-5" x1="74.5305793" y1="262.9601532" x2="125.2801102" y2="125.6378931" xlink:href="#Nouvelle_nuance_de_dégradé_1"/><linearGradient id="Nouvelle_nuance_de_dégradé_1-6" x1="130.0437433" y1="283.4758878" x2="180.7932743" y2="146.1536277" xlink:href="#Nouvelle_nuance_de_dégradé_1"/><linearGradient id="Nouvelle_nuance_de_dégradé_1-7" x1="171.8773917" y1="298.9361491" x2="222.6269227" y2="161.613889" xlink:href="#Nouvelle_nuance_de_dégradé_1"/><linearGradient id="Nouvelle_nuance_de_dégradé_1-8" x1="163.8419848" y1="295.9665422" x2="214.5915157" y2="158.6442821" xlink:href="#Nouvelle_nuance_de_dégradé_1"/><linearGradient id="Nouvelle_nuance_de_dégradé_1-9" x1="114.4285218" y1="277.705045" x2="165.1780527" y2="140.3827849" xlink:href="#Nouvelle_nuance_de_dégradé_1"/><linearGradient id="Nouvelle_nuance_de_dégradé_1-10" x1="58.6417877" y1="257.0882085" x2="109.3913186" y2="119.7659484" xlink:href="#Nouvelle_nuance_de_dégradé_1"/></defs><g id="Soleil"><circle class="cls-9" cx="118.5511253" cy="162.8790385" r="69.203908"/><polygon class="cls-10" points="29.652075 166.8242268 16.8846582 179.17816 4.1172414 191.5320931 21.1997862 196.4120689 38.2823311 201.2919834 33.9672031 184.0581357 29.652075 166.8242268"/><polygon class="cls-5" points="32.3708784 140.7083389 40.1430382 124.7326778 47.915198 108.7570778 30.1938053 110.0139801 12.4724737 111.2709435 22.4216455 125.9896412 32.3708784 140.7083389"/><polygon class="cls-3" points="99.2293104 76.0156048 84.8459987 65.5873889 70.462687 55.1591729 68.6232626 72.8295605 66.7838382 90.5000094 83.0065743 83.2577765 99.2293104 76.0156048"/><polygon class="cls-2" points="159.5843495 83.9178459 155.2692826 66.6839982 150.9541545 49.4500893 138.1867377 61.8040836 125.4193209 74.1580167 142.5018046 79.0379313 159.5843495 83.9178459"/><polygon class="cls-7" points="216.2837183 96.8156498 198.5623255 98.0726133 180.8409939 99.3295156 190.7902269 114.0482132 200.7393987 128.7669109 208.5115585 112.7913109 216.2837183 96.8156498"/><polygon class="cls-8" points="221.4994469 164.6647058 207.1161352 154.2364898 205.2767108 171.9068775 203.4372252 189.5772651 219.6599613 182.3350934 235.8827586 175.0929217 221.4994469 164.6647058"/><polygon class="cls-1" points="191.9520298 213.1871766 179.184613 225.5411709 166.4171962 237.895104 183.4996799 242.7750186 200.5822247 247.6549944 196.2670967 230.4210855 191.9520298 213.1871766"/><polygon class="cls-4" points="106.9993297 251.1125765 116.9485015 265.831213 126.8977345 280.5499107 134.6698943 264.5743107 142.442054 248.5987107 124.7206613 249.855613 106.9993297 251.1125765"/><polygon class="cls-6" points="52.9858618 223.0447961 51.1463763 240.7152449 49.3069519 258.3856325 65.529688 251.1434609 81.7524241 243.901228 67.3691124 233.4730121 52.9858618 223.0447961"/></g></svg>