<?xml version="1.0" encoding="UTF-8"?><svg id="Calque_1" xmlns="http://www.w3.org/2000/svg" xmlns:xlink="http://www.w3.org/1999/xlink" viewBox="0 0 240 330"><defs><style>.cls-1{fill:#38bdf8;}.cls-1,.cls-2,.cls-3,.cls-4{stroke-width:0px;}.cls-2{fill:#172554;}.cls-3{fill:#fff;}.cls-4{fill:url(#Nouvelle_nuance_de_dégradé_1);}</style><linearGradient id="Nouvelle_nuance_de_dégradé_1" x1="86.6397033" y1="239.4052734" x2="153.3602967" y2="239.4052734" gradientUnits="userSpaceOnUse"><stop offset="0" stop-color="#facc15"/><stop offset="1" stop-color="#fde047"/></linearGradient></defs><path class="cls-1" d="m100.8570557,100.6057129c20.9558716,0,40.0234985,12.3806152,48.5770264,31.5410156l5.2128906,11.6772461,12.5899048-2.2424316c2.6297607-.4685059,5.262146-.7060547,7.8240967-.7060547,24.4047852,0,44.2595215,19.8547363,44.2595215,44.2595215s-19.8547363,44.2592773-44.2595215,44.2592773H51.2484131c-16.8557739,0-30.5689087-13.7131348-30.5689087-30.5688477,0-11.8122559,6.9232788-22.6853027,17.6379395-27.7006836l9.7974854-4.5861816-.3864136-10.810791-.0095825-.2653809c-.022583-.6225586-.0438843-1.2109375-.0438843-1.6748047,0-29.324707,23.8573608-53.1818848,53.1820068-53.1818848m0-16.3552246c-38.4042969,0-69.5371094,31.1328125-69.5371094,69.5371094,0,.8466797.0338135,1.6850586.0638428,2.5244141-15.9830322,7.4814453-27.0594482,23.7001953-27.0594482,42.5134277,0,25.9155273,21.008667,46.9240723,46.9240723,46.9240723h123.812561c33.4766235,0,60.6146851-27.1381836,60.6146851-60.614502,0-33.4765625-27.1380615-60.6147461-60.6146851-60.6147461-3.6505737,0-7.2194214.3408203-10.6923218.9594727-10.8436279-24.2905273-35.1918945-41.229248-63.5115967-41.229248h0Z"/><path class="cls-4" d="m104.0961914,324.6884766c-.4428711,0-.8920898-.0625-1.3354492-.1923828-2.2421875-.6591797-3.6679688-2.8564453-3.3554688-5.1728516l8.1689453-60.6386719h-16.2016602c-1.6186523,0-3.125-.828125-3.9936523-2.1933594-.8686523-1.3662109-.9790039-3.0810547-.2924805-4.546875l44.5317383-95.0957031c.7949219-1.6982422,2.4892578-2.7265625,4.2856445-2.7265625.4428711,0,.8920898.0625,1.3354492.1923828,2.2421875.6591797,3.6679688,2.8564453,3.3554688,5.1728516l-8.1689453,60.6376953h16.2016602c1.6186523,0,3.125.828125,3.9936523,2.1933594.8686523,1.3662109.9790039,3.0810547.2924805,4.546875l-44.5317383,95.0966797c-.7949219,1.6982422-2.4892578,2.7265625-4.2856445,2.7265625Z"/><path class="cls-2" d="m135.9041138,158.8552246l-8.8917847,66.0031738h21.6152344l-44.5316772,95.0961914,8.8917847-66.0029297h-21.6152344l44.5316772-95.0964355m-.0009766-9.4675293c-3.5933228,0-6.9813232,2.0571289-8.5716553,5.453125l-44.5317383,95.0964355c-1.3729248,2.9318848-1.1522827,6.3620605.5849609,9.0939941,1.7373657,2.7319336,4.7502441,4.3864746,7.9877319,4.3864746h10.7883911l-7.4462891,55.2729492c-.6240845,4.6325684,2.2268066,9.0273438,6.7114258,10.3457031.8868408.2607422,1.7851562.3857422,2.6708984.3857422,3.5933228,0,6.9813232-2.0568848,8.5716553-5.453125l44.5317383-95.0961914c1.3729248-2.9318848,1.1522827-6.3623047-.5849609-9.0939941-1.7373657-2.7319336-4.7502441-4.3864746-7.9877319-4.3864746h-10.7883911l7.4462891-55.2731934c.6240845-4.6325684-2.2268066-9.0270996-6.7114258-10.3457031-.8868408-.2607422-1.7851562-.3857422-2.6708984-.3857422h0Z"/><circle class="cls-3" cx="178.5640292" cy="273.1364429" r="12.9394191"/><circle class="cls-3" cx="61.4359708" cy="299.0152812" r="12.9394191"/></svg>