<?xml version="1.0" encoding="UTF-8"?><svg id="Calque_1" xmlns="http://www.w3.org/2000/svg" xmlns:xlink="http://www.w3.org/1999/xlink" viewBox="0 0 240 330"><defs><style>.cls-1{fill:none;}.cls-1,.cls-2{stroke-width:0px;}.cls-2{fill:#fff;}.cls-3{clip-path:url(#clippath);}</style><clipPath id="clippath"><circle class="cls-1" cx="120" cy="165" r="74.6284552"/></clipPath></defs><g class="cls-3"><path class="cls-2" d="m95.1077434,128.3257913c1.6990044,2.9431642,5.4624657,3.9514622,8.4056299,2.2520137l10.4607589-6.0391278v12.0791439c0,3.398453,2.7550522,6.1532831,6.1533941,6.1532831h.0002221c3.3983419,0,6.1533941-2.7548301,6.1533941-6.1532831v-12.0791439l10.460981,6.0391278c2.9431642,1.6994486,6.7064034.6911505,8.4056299-2.2520137,1.6993375-2.9431642.6908174-6.7062924-2.2522358-8.4057409l-10.460981-6.0400161,10.460981-6.0391278c2.9430532-1.6990044,3.9515733-5.4625767,2.2522358-8.4057409-1.6992265-2.9431642-5.4624657-3.9514622-8.4056299-2.2524578l-10.460981,6.039572v-12.0791439c0-3.398453-2.7550522-6.1532831-6.1533941-6.1532831h-.0002221c-3.3983419,0-6.1533941,2.7548301-6.1533941,6.1532831v12.0791439l-10.4607589-6.039572c-2.9431642-1.6990044-6.7066255-.6907064-8.4056299,2.2524578-1.6993375,2.9431642-.6908174,6.7067366,2.2522358,8.4057409l10.46087,6.0391278-10.46087,6.0400161c-2.9430532,1.6994486-3.9515733,5.4625767-2.2522358,8.4057409Z"/><path class="cls-2" d="m145.1477535,201.6268372c-1.6992265-2.9431642-5.4624657-3.9514622-8.4056299-2.2524578l-10.460981,6.039572v-12.0791439c0-3.398453-2.7550522-6.1532831-6.1533941-6.1532831h-.0002221c-3.3983419,0-6.1533941,2.7548301-6.1533941,6.1532831v12.0791439l-10.4607589-6.039572c-2.9431642-1.6990044-6.7066255-.6907064-8.4056299,2.2524578-1.6993375,2.9431642-.6908174,6.7067366,2.2522358,8.4057409l10.46087,6.0391278-10.46087,6.0400161c-2.9430532,1.6994486-3.9515733,5.4625767-2.2522358,8.4057409,1.6990044,2.9431642,5.4624657,3.9514622,8.4056299,2.2520137l10.4607589-6.0391278v12.0791439c0,3.398453,2.7550522,6.1532831,6.1533941,6.1532831h.0002221c3.3983419,0,6.1533941-2.7548301,6.1533941-6.1532831v-12.0791439l10.460981,6.0391278c2.9431642,1.6994486,6.7064034.6911505,8.4056299-2.2520137,1.6993375-2.9431642.6908174-6.7062924-2.2522358-8.4057409l-10.460981-6.0400161,10.460981-6.0391278c2.9430532-1.6990044,3.9515733-5.4625767,2.2522358-8.4057409Z"/><path class="cls-2" d="m206.105255,201.6268372c-1.6991154-2.9431642-5.4624657-3.9514622-8.4055189-2.2524578l-10.4610921,6.039572v-12.0791439c0-3.398453-2.7549412-6.1532831-6.1532831-6.1532831h-.0002221c-3.3983419,0-6.1533941,2.7548301-6.1533941,6.1532831v12.0791439l-10.4607589-6.039572c-2.9431642-1.6990044-6.7066255-.6907064-8.4056299,2.2524578-1.6993375,2.9431642-.6909285,6.7067366,2.2522358,8.4057409l10.4607589,6.0391278-10.4607589,6.0400161c-2.9431642,1.6994486-3.9515733,5.4625767-2.2522358,8.4057409,1.6990044,2.9431642,5.4624657,3.9514622,8.4056299,2.2520137l10.4607589-6.0391278v12.0791439c0,3.398453,2.7550522,6.1532831,6.1533941,6.1532831h.0002221c3.3983419,0,6.1532831-2.7548301,6.1532831-6.1532831v-12.0791439l10.4610921,6.0391278c2.9430532,1.6994486,6.7064034.6911505,8.4055189-2.2520137,1.6994486-2.9431642.6909285-6.7062924-2.2522358-8.4057409l-10.460981-6.0400161,10.460981-6.0391278c2.9431642-1.6990044,3.9516843-5.4625767,2.2522358-8.4057409Z"/><path class="cls-2" d="m84.6134486,201.6268372c-1.6991154-2.9431642-5.4624657-3.9514622-8.4056299-2.2524578l-10.460981,6.039572v-12.0791439c0-3.398453-2.7549412-6.1532831-6.1533941-6.1532831h-.000111c-3.398453,0-6.1533941,2.7548301-6.1533941,6.1532831v12.0791439l-10.46087-6.039572c-2.9430532-1.6990044-6.7065145-.6907064-8.4055189,2.2524578-1.6994486,2.9431642-.6909285,6.7067366,2.2522358,8.4057409l10.4607589,6.0391278-10.4607589,6.0400161c-2.9431642,1.6994486-3.9516843,5.4625767-2.2522358,8.4057409,1.6990044,2.9431642,5.4624657,3.9514622,8.4055189,2.2520137l10.46087-6.0391278v12.0791439c0,3.398453,2.7549412,6.1532831,6.1533941,6.1532831h.000111c3.398453,0,6.1533941-2.7548301,6.1533941-6.1532831v-12.0791439l10.460981,6.0391278c2.9431642,1.6994486,6.7065145.6911505,8.4056299-2.2520137,1.6994486-2.9431642.6909285-6.7062924-2.2522358-8.4057409l-10.460981-6.0400161,10.460981-6.0391278c2.9431642-1.6990044,3.9516843-5.4625767,2.2522358-8.4057409Z"/><path class="cls-2" d="m156.0653559,125.5349822c1.6990044,2.9431642,5.4624657,3.9514622,8.4056299,2.2520137l10.4607589-6.039572v12.0795881c0,3.398453,2.7550522,6.1532831,6.1533941,6.1532831h.0002221c3.3983419,0,6.1532831-2.7548301,6.1532831-6.1532831v-12.0795881l10.4610921,6.039572c2.9430532,1.6994486,6.7064034.6911505,8.4055189-2.2520137,1.6994486-2.9431642.6909285-6.7062924-2.2522358-8.4057409l-10.460981-6.039572,10.460981-6.039572c2.9431642-1.6990044,3.9516843-5.4625767,2.2522358-8.4057409-1.6991154-2.9431642-5.4624657-3.9514622-8.4055189-2.2524578l-10.4610921,6.039572v-12.0791439c0-3.398453-2.7549412-6.1532831-6.1532831-6.1532831h-.0002221c-3.3983419,0-6.1533941,2.7548301-6.1533941,6.1532831v12.0791439l-10.4607589-6.039572c-2.9431642-1.6990044-6.7066255-.6907064-8.4056299,2.2524578-1.6993375,2.9431642-.6909285,6.7067366,2.2522358,8.4057409l10.4607589,6.039572-10.4607589,6.039572c-2.9431642,1.6994486-3.9515733,5.4625767-2.2522358,8.4057409Z"/><path class="cls-2" d="m95.1077434,63.8320287c1.6990044,2.94272,5.4624657,3.9514622,8.4056299,2.2520137l10.4607589-6.039572v12.0795881c0,3.3980088,2.7550522,6.1532831,6.1533941,6.1532831h.0002221c3.3983419,0,6.1533941-2.7552743,6.1533941-6.1532831v-12.0795881l10.460981,6.039572c2.9431642,1.6994486,6.7064034.6907064,8.4056299-2.2520137,1.6993375-2.9431642.6908174-6.7062924-2.2522358-8.4057409l-10.460981-6.0400161,10.460981-6.0391278c2.9430532-1.6994486,3.9515733-5.4625767,2.2522358-8.4057409-1.6992265-2.9431642-5.4624657-3.9514622-8.4056299-2.252902l-10.460981,6.0400161v-12.0791439c0-3.398453-2.7550522-6.1537273-6.1533941-6.1537273h-.0002221c-3.3983419,0-6.1533941,2.7552743-6.1533941,6.1537273v12.0791439l-10.4607589-6.0400161c-2.9431642-1.6985602-6.7066255-.6902622-8.4056299,2.252902-1.6993375,2.9431642-.6908174,6.7062924,2.2522358,8.4057409l10.46087,6.0391278-10.46087,6.0400161c-2.9430532,1.6994486-3.9515733,5.4625767-2.2522358,8.4057409Z"/><path class="cls-2" d="m145.1477535,264.9070886c-1.6992265-2.94272-5.4624657-3.9514622-8.4056299-2.2524578l-10.460981,6.0400161v-12.0795881c0-3.3980088-2.7550522-6.1532831-6.1533941-6.1532831h-.0002221c-3.3983419,0-6.1533941,2.7552743-6.1533941,6.1532831v12.0795881l-10.4607589-6.0400161c-2.9431642-1.6990044-6.7066255-.6902622-8.4056299,2.2524578-1.6993375,2.9431642-.6908174,6.7067366,2.2522358,8.4057409l10.46087,6.039572-10.46087,6.039572c-2.9430532,1.6994486-3.9515733,5.4625767-2.2522358,8.4057409,1.6990044,2.9431642,5.4624657,3.9514622,8.4056299,2.2524578l10.4607589-6.039572v12.0791439c0,3.398453,2.7550522,6.1537273,6.1533941,6.1537273h.0002221c3.3983419,0,6.1533941-2.7552743,6.1533941-6.1537273v-12.0791439l10.460981,6.039572c2.9431642,1.6990044,6.7064034.6907064,8.4056299-2.2524578,1.6993375-2.9431642.6908174-6.7062924-2.2522358-8.4057409l-10.460981-6.039572,10.460981-6.039572c2.9430532-1.6990044,3.9515733-5.4625767,2.2522358-8.4057409Z"/><path class="cls-2" d="m34.5735495,125.5349822c1.6990044,2.9431642,5.4624657,3.9514622,8.4055189,2.2520137l10.46087-6.039572v12.0795881c0,3.398453,2.7549412,6.1532831,6.1533941,6.1532831h.000111c3.398453,0,6.1533941-2.7548301,6.1533941-6.1532831v-12.0795881l10.460981,6.039572c2.9431642,1.6994486,6.7065145.6911505,8.4056299-2.2520137,1.6994486-2.9431642.6909285-6.7062924-2.2522358-8.4057409l-10.460981-6.039572,10.460981-6.039572c2.9431642-1.6990044,3.9516843-5.4625767,2.2522358-8.4057409-1.6991154-2.9431642-5.4624657-3.9514622-8.4056299-2.2524578l-10.460981,6.039572v-12.0791439c0-3.398453-2.7549412-6.1532831-6.1533941-6.1532831h-.000111c-3.398453,0-6.1533941,2.7548301-6.1533941,6.1532831v12.0791439l-10.46087-6.039572c-2.9430532-1.6990044-6.7065145-.6907064-8.4055189,2.2524578-1.6994486,2.9431642-.6909285,6.7067366,2.2522358,8.4057409l10.4607589,6.039572-10.4607589,6.039572c-2.9431642,1.6994486-3.9516843,5.4625767-2.2522358,8.4057409Z"/><path class="cls-2" d="m98.1341921,187.8353634v-12.0795881l10.460981,6.039572c2.9431642,1.6994486,6.7064034.6911505,8.4056299-2.2520137,1.6993375-2.9431642.6909285-6.7062924-2.2522358-8.4057409l-10.460981-6.039572,10.460981-6.039572c2.9431642-1.6990044,3.9515733-5.4625767,2.2522358-8.4057409-1.6992265-2.9431642-5.4624657-3.9514622-8.4056299-2.2524578l-10.460981,6.039572v-12.0791439c0-3.398453-2.7549412-6.1532831-6.1533941-6.1532831h-.000111c-3.398453,0-6.1533941,2.7548301-6.1533941,6.1532831v12.0791439l-10.46087-6.039572c-2.9430532-1.6990044-6.7065145-.6907064-8.4056299,2.2524578-1.6993375,2.9431642-.6908174,6.7067366,2.2522358,8.4057409l10.46087,6.039572-10.46087,6.039572c-2.9430532,1.6994486-3.9515733,5.4625767-2.2522358,8.4057409,1.6991154,2.9431642,5.4625767,3.9514622,8.4056299,2.2520137l10.46087-6.039572v12.0795881c0,3.398453,2.7549412,6.1532831,6.1533941,6.1532831h.000111c3.398453,0,6.1533941-2.7548301,6.1533941-6.1532831Z"/><path class="cls-2" d="m37.5792326,187.8353634v-12.0795881l10.460981,6.039572c2.9431642,1.6994486,6.7064034.6911505,8.4056299-2.2520137,1.6993375-2.9431642.6909285-6.7062924-2.2522358-8.4057409l-10.460981-6.039572,10.460981-6.039572c2.9431642-1.6990044,3.9515733-5.4625767,2.2522358-8.4057409-1.6992265-2.9431642-5.4624657-3.9514622-8.4056299-2.2524578l-10.460981,6.039572v-12.0791439c0-3.398453-2.7549412-6.1532831-6.1533941-6.1532831h-.000111c-3.398453,0-6.1533941,2.7548301-6.1533941,6.1532831v12.0791439l-10.46087-6.039572c-2.9430532-1.6990044-6.7066255-.6907064-8.4056299,2.2524578-1.6993375,2.9431642-.6908174,6.7067366,2.2522358,8.4057409l10.46087,6.039572-10.46087,6.039572c-2.9430532,1.6994486-3.9515733,5.4625767-2.2522358,8.4057409,1.6990044,2.9431642,5.4625767,3.9514622,8.4056299,2.2520137l10.46087-6.039572v12.0795881c0,3.398453,2.7549412,6.1532831,6.1533941,6.1532831h.000111c3.398453,0,6.1533941-2.7548301,6.1533941-6.1532831Z"/><path class="cls-2" d="m229.6985406,171.1375926l-10.460981-6.039572,10.460981-6.039572c2.9431642-1.6990044,3.9516843-5.4625767,2.2522358-8.4057409-1.6992265-2.9431642-5.4624657-3.9514622-8.4056299-2.2524578l-10.460981,6.039572v-12.0791439c0-3.398453-2.7549412-6.1532831-6.1533941-6.1532831h-.000111c-3.398453,0-6.1533941,2.7548301-6.1533941,6.1532831v12.0791439l-10.46087-6.039572c-2.9430532-1.6990044-6.7065145-.6907064-8.4055189,2.2524578-1.6994486,2.9431642-.6909285,6.7067366,2.2522358,8.4057409l10.4607589,6.039572-10.4607589,6.039572c-2.9431642,1.6994486-3.9516843,5.4625767-2.2522358,8.4057409,1.6990044,2.9431642,5.4624657,3.9514622,8.4055189,2.2520137l10.46087-6.039572v12.0795881c0,3.398453,2.7549412,6.1532831,6.1533941,6.1532831h.000111c3.398453,0,6.1533941-2.7548301,6.1533941-6.1532831v-12.0795881l10.460981,6.039572c2.9431642,1.6994486,6.7064034.6911505,8.4056299-2.2520137,1.6994486-2.9431642.6909285-6.7062924-2.2522358-8.4057409Z"/><path class="cls-2" d="m156.0653559,63.8320287c1.6990044,2.94272,5.4624657,3.9514622,8.4056299,2.2520137l10.4607589-6.039572v12.0795881c0,3.3980088,2.7550522,6.1532831,6.1533941,6.1532831h.0002221c3.3983419,0,6.1532831-2.7552743,6.1532831-6.1532831v-12.0795881l10.4610921,6.039572c2.9430532,1.6994486,6.7064034.6907064,8.4055189-2.2520137,1.6994486-2.9431642.6909285-6.7062924-2.2522358-8.4057409l-10.460981-6.0400161,10.460981-6.0391278c2.9431642-1.6994486,3.9516843-5.4625767,2.2522358-8.4057409-1.6991154-2.9431642-5.4624657-3.9514622-8.4055189-2.252902l-10.4610921,6.0400161v-12.0791439c0-3.398453-2.7549412-6.1537273-6.1532831-6.1537273h-.0002221c-3.3983419,0-6.1533941,2.7552743-6.1533941,6.1537273v12.0791439l-10.4607589-6.0400161c-2.9431642-1.6985602-6.7066255-.6902622-8.4056299,2.252902-1.6993375,2.9431642-.6909285,6.7062924,2.2522358,8.4057409l10.4607589,6.0391278-10.4607589,6.0400161c-2.9431642,1.6994486-3.9515733,5.4625767-2.2522358,8.4057409Z"/><path class="cls-2" d="m34.5735495,63.8320287c1.6990044,2.94272,5.4624657,3.9514622,8.4055189,2.2520137l10.46087-6.039572v12.0795881c0,3.3980088,2.7549412,6.1532831,6.1533941,6.1532831h.000111c3.398453,0,6.1533941-2.7552743,6.1533941-6.1532831v-12.0795881l10.460981,6.039572c2.9431642,1.6994486,6.7065145.6907064,8.4056299-2.2520137,1.6994486-2.9431642.6909285-6.7062924-2.2522358-8.4057409l-10.460981-6.0400161,10.460981-6.0391278c2.9431642-1.6994486,3.9516843-5.4625767,2.2522358-8.4057409-1.6991154-2.9431642-5.4624657-3.9514622-8.4056299-2.252902l-10.460981,6.0400161v-12.0791439c0-3.398453-2.7549412-6.1537273-6.1533941-6.1537273h-.000111c-3.398453,0-6.1533941,2.7552743-6.1533941,6.1537273v12.0791439l-10.46087-6.0400161c-2.9430532-1.6985602-6.7065145-.6902622-8.4055189,2.252902-1.6994486,2.9431642-.6909285,6.7062924,2.2522358,8.4057409l10.4607589,6.0391278-10.4607589,6.0400161c-2.9431642,1.6994486-3.9516843,5.4625767-2.2522358,8.4057409Z"/><path class="cls-2" d="m206.105255,262.4320945c-1.6991154-2.9431642-5.4624657-3.9514622-8.4055189-2.252902l-10.4610921,6.0400161v-12.0791439c0-3.398453-2.7549412-6.1532831-6.1532831-6.1532831h-.0002221c-3.3983419,0-6.1533941,2.7548301-6.1533941,6.1532831v12.0791439l-10.4607589-6.0400161c-2.9431642-1.6985602-6.7066255-.6902622-8.4056299,2.252902-1.6993375,2.9431642-.6909285,6.7062924,2.2522358,8.4057409l10.4607589,6.0391278-10.4607589,6.0400161c-2.9431642,1.6994486-3.9515733,5.4625767-2.2522358,8.4057409,1.6990044,2.9431642,5.4624657,3.9514622,8.4056299,2.2520137l10.4607589-6.0391278v12.0791439c0,3.3980088,2.7550522,6.1532831,6.1533941,6.1532831h.0002221c3.3983419,0,6.1532831-2.7552743,6.1532831-6.1532831v-12.0791439l10.4610921,6.0391278c2.9430532,1.6994486,6.7064034.6911505,8.4055189-2.2520137,1.6994486-2.9431642.6909285-6.7062924-2.2522358-8.4057409l-10.460981-6.0400161,10.460981-6.0391278c2.9431642-1.6994486,3.9516843-5.4625767,2.2522358-8.4057409Z"/><path class="cls-2" d="m84.6134486,262.4320945c-1.6991154-2.9431642-5.4624657-3.9514622-8.4056299-2.252902l-10.460981,6.0400161v-12.0791439c0-3.398453-2.7549412-6.1532831-6.1533941-6.1532831h-.000111c-3.398453,0-6.1533941,2.7548301-6.1533941,6.1532831v12.0791439l-10.46087-6.0400161c-2.9430532-1.6985602-6.7065145-.6902622-8.4055189,2.252902-1.6994486,2.9431642-.6909285,6.7062924,2.2522358,8.4057409l10.4607589,6.0391278-10.4607589,6.0400161c-2.9431642,1.6994486-3.9516843,5.4625767-2.2522358,8.4057409,1.6990044,2.9431642,5.4624657,3.9514622,8.4055189,2.2520137l10.46087-6.0391278v12.0791439c0,3.3980088,2.7549412,6.1532831,6.1533941,6.1532831h.000111c3.398453,0,6.1533941-2.7552743,6.1533941-6.1532831v-12.0791439l10.460981,6.0391278c2.9431642,1.6994486,6.7065145.6911505,8.4056299-2.2520137,1.6994486-2.9431642.6909285-6.7062924-2.2522358-8.4057409l-10.460981-6.0400161,10.460981-6.0391278c2.9431642-1.6994486,3.9516843-5.4625767,2.2522358-8.4057409Z"/><path class="cls-2" d="m173.294704,179.5433336c1.6993375-2.9431642.6908174-6.7062924-2.2522358-8.4057409l-10.4610921-6.039572,10.4610921-6.039572c2.9430532-1.6990044,3.9515733-5.4625767,2.2522358-8.4057409-1.6992265-2.9431642-5.4625767-3.9514622-8.4056299-2.2524578l-10.460981,6.039572v-12.0791439c0-3.398453-2.7550522-6.1532831-6.1533941-6.1532831h-.0002221c-3.3983419,0-6.1533941,2.7548301-6.1533941,6.1532831v12.0791439l-10.4607589-6.039572c-2.9431642-1.6990044-6.7066255-.6907064-8.4056299,2.2524578-1.6993375,2.9431642-.6909285,6.7067366,2.2522358,8.4057409l10.4607589,6.039572-10.4607589,6.039572c-2.9431642,1.6994486-3.9515733,5.4625767-2.2522358,8.4057409,1.6990044,2.9431642,5.4624657,3.9514622,8.4056299,2.2520137l10.4607589-6.039572v12.0795881c0,3.398453,2.7550522,6.1532831,6.1533941,6.1532831h.0002221c3.3983419,0,6.1533941-2.7548301,6.1533941-6.1532831v-12.0795881l10.460981,6.039572c2.9430532,1.6994486,6.7064034.6911505,8.4056299-2.2520137Z"/></g></svg>