<?xml version="1.0" encoding="UTF-8"?><svg id="Calque_1" xmlns="http://www.w3.org/2000/svg" viewBox="0 0 240 330"><defs><style>.cls-1{fill:#1d4ed8;stroke-width:0px;}</style></defs><path class="cls-1" d="m100.8570557,100.6055679c20.9558105,0,40.0234375,12.3806458,48.5770264,31.5411453l5.2126465,11.6767883,12.5894775-2.2420654c2.6307373-.4685059,5.2634277-.7060852,7.8248291-.7060852,24.4047852,0,44.2596436,19.8547974,44.2596436,44.2595825s-19.8548584,44.259491-44.2596436,44.259491H51.2484131c-16.8557129,0-30.5689697-13.7132111-30.5689697-30.5690002,0-11.8122101,6.9233398-22.6853485,17.6378174-27.7006378l9.7976074-4.5859985-.3863525-10.8109283-.0096436-.265213c-.0224609-.6227875-.0438232-1.2109985-.0438232-1.6750031,0-29.3247147,23.8574219-53.1820755,53.1820068-53.1820755m0-16.3551407c-38.4042969,0-69.5371094,31.1329269-69.5371094,69.5372162,0,.8466492.0338135,1.6850739.0638428,2.5244293-15.9830322,7.4812775-27.0594482,23.7000732-27.0594482,42.5133514,0,25.9154358,21.008667,46.9241486,46.9240723,46.9241486h123.8126221c33.4765625,0,60.6147461-27.1381378,60.6147461-60.6146393,0-33.4765778-27.1381836-60.6147156-60.6147461-60.6147156-3.6506348,0-7.2194824.3409271-10.6923828.9594269-10.8436279-24.2903595-35.1918945-41.2292175-63.5115967-41.2292175h0Z"/><circle class="cls-1" cx="95.1725388" cy="266.9934134" r="5.4335937"/><path class="cls-1" d="m95.1724168,262.9447837c2.236084,0,4.0488281,1.8127289,4.0488281,4.0488434v.0000153c0,2.2360992-1.8127441,4.0488281-4.0488281,4.0488281s-4.0488281-1.8127289-4.0488281-4.0488281v-.0000153c0-2.2361145,1.8127441-4.0488434,4.0488281-4.0488434m0-2.769043c-3.7593994,0-6.8178711,3.0585022-6.8178711,6.8178864s3.0584717,6.8178864,6.8178711,6.8178864,6.8178711-3.0584869,6.8178711-6.8178711c0-3.7593994-3.0584717-6.8179016-6.8178711-6.8179016h0Z"/><circle class="cls-1" cx="119.9996873" cy="266.9934134" r="5.4335937"/><path class="cls-1" d="m120.0000535,262.9447837c2.236084,0,4.0488281,1.8127289,4.0488281,4.0488434v.0000153c0,2.2360992-1.8127441,4.0488281-4.0488281,4.0488281-2.2362061,0-4.0489502-1.8127289-4.0489502-4.0488281v-.0000153c0-2.2361145,1.8127441-4.0488434,4.0489502-4.0488434m0-2.769043c-3.7593994,0-6.8179932,3.0585022-6.8179932,6.8178864s3.0585938,6.8178864,6.8179932,6.8178864,6.8178711-3.0584869,6.8178711-6.8178711c0-3.7593994-3.0584717-6.8179016-6.8178711-6.8179016h0Z"/><circle class="cls-1" cx="144.8278123" cy="266.9934134" r="5.4335937"/><path class="cls-1" d="m144.8275681,262.9447837c2.236084,0,4.0488281,1.8127289,4.0488281,4.0488434v.0000153c0,2.2360992-1.8127441,4.0488281-4.0488281,4.0488281s-4.0488281-1.8127289-4.0488281-4.0488281v-.0000153c0-2.2361145,1.8127441-4.0488434,4.0488281-4.0488434m0-2.769043c-3.7593994,0-6.8178711,3.0585022-6.8178711,6.8178864s3.0584717,6.8178864,6.8178711,6.8178864,6.8178711-3.0584869,6.8178711-6.8178711c0-3.7593994-3.0584717-6.8179016-6.8178711-6.8179016h0Z"/><circle class="cls-1" cx="108.1725388" cy="286.9934134" r="5.4335937"/><path class="cls-1" d="m108.1724168,282.9447837c2.236084,0,4.0488281,1.8127289,4.0488281,4.0488434v.0000153c0,2.2360992-1.8127441,4.0488281-4.0488281,4.0488281s-4.0488281-1.8127289-4.0488281-4.0488281v-.0000153c0-2.2361145,1.8127441-4.0488434,4.0488281-4.0488434m0-2.769043c-3.7593994,0-6.8178711,3.0585022-6.8178711,6.8178864s3.0584717,6.8178864,6.8178711,6.8178864,6.8178711-3.0584869,6.8178711-6.8178711c0-3.7593994-3.0584717-6.8179016-6.8178711-6.8179016h0Z"/><circle class="cls-1" cx="132.9996873" cy="286.9934134" r="5.4335937"/><path class="cls-1" d="m133.0000535,282.9447837c2.236084,0,4.0488281,1.8127289,4.0488281,4.0488434v.0000153c0,2.2360992-1.8127441,4.0488281-4.0488281,4.0488281-2.2362061,0-4.0489502-1.8127289-4.0489502-4.0488281v-.0000153c0-2.2361145,1.8127441-4.0488434,4.0489502-4.0488434m0-2.769043c-3.7593994,0-6.8179932,3.0585022-6.8179932,6.8178864s3.0585938,6.8178864,6.8179932,6.8178864,6.8178711-3.0584869,6.8178711-6.8178711c0-3.7593994-3.0584717-6.8179016-6.8178711-6.8179016h0Z"/></svg>