<?xml version="1.0" encoding="UTF-8"?><svg id="Calque_1" xmlns="http://www.w3.org/2000/svg" viewBox="0 0 240 330"><defs><style>.cls-1{fill:#1d4ed8;stroke-width:0px;}</style></defs><path class="cls-1" d="m100.8570557,100.6055679c20.9558105,0,40.0234375,12.3806458,48.5770264,31.5411453l5.2126465,11.6767883,12.5894775-2.2420654c2.6307373-.4685059,5.2634277-.7060852,7.8248291-.7060852,24.4047852,0,44.2595215,19.8547974,44.2595215,44.2595825s-19.8547363,44.259491-44.2595215,44.259491H51.2484131c-16.8557129,0-30.5689697-13.7132111-30.5689697-30.5690002,0-11.8122101,6.9233398-22.6853485,17.6378174-27.7006378l9.7976074-4.5859985-.3863525-10.8109283-.0096436-.265213c-.0224609-.6227875-.0438232-1.2109985-.0438232-1.6750031,0-29.3247147,23.8574219-53.1820755,53.1820068-53.1820755m0-16.3551407c-38.4042969,0-69.5371094,31.1329269-69.5371094,69.5372162,0,.8466492.0338135,1.6850739.0638428,2.5244293-15.9830322,7.4812775-27.0594482,23.7000732-27.0594482,42.5133514,0,25.9154358,21.008667,46.9241486,46.9240723,46.9241486h123.8126221c33.4765625,0,60.614624-27.1381378,60.614624-60.6146393,0-33.4765778-27.1380615-60.6147156-60.614624-60.6147156-3.6506348,0-7.2194824.3409271-10.6923828.9594269-10.8436279-24.2903595-35.1918945-41.2292175-63.5115967-41.2292175h0Z"/></svg>