<?xml version="1.0" encoding="UTF-8"?><svg id="Calque_1" xmlns="http://www.w3.org/2000/svg" viewBox="0 0 240 330"><defs><style>.cls-1{fill:#1d4ed8;stroke-width:0px;}</style></defs><path class="cls-1" d="m100.8570862,100.6056519c20.95578,0,40.023407,12.3806152,48.5769958,31.5410767l5.2126465,11.6765747,12.5892639-2.2418213c2.6309509-.4685059,5.2636414-.7060547,7.8250122-.7060547,24.4047852,0,44.259552,19.8547363,44.259552,44.2593994,0,24.4048462-19.8547668,44.2595215-44.259552,44.2595215H51.2484436c-16.8558044,0-30.5690002-13.7131348-30.5690002-30.5689087,0-11.8121948,6.9232788-22.6854248,17.6379089-27.7007446l9.7984314-4.5864258-.3873596-10.8118286-.0092773-.2567749c-.022644-.6252441-.0440674-1.2158203-.0440674-1.6820679,0-29.324646,23.8573608-53.1819458,53.1820068-53.1819458m0-16.3551636c-38.4043579,0-69.5371704,31.1328125-69.5371704,69.5371094,0,.8466797.0338135,1.6850586.0638733,2.5244141-15.9830627,7.4813232-27.0595093,23.7000732-27.0595093,42.5134277,0,25.9154053,21.008728,46.9240723,46.9241638,46.9240723h123.812561c33.4765625,0,60.6147156-27.1380615,60.6147156-60.6146851,0-33.4764404-27.1381531-60.614563-60.6147156-60.614563-3.6505737,0-7.2195129.3409424-10.6923523.9593506-10.8436584-24.2902832-35.191864-41.229126-63.5115662-41.229126h0Z"/><circle class="cls-1" cx="68.2200675" cy="266.9787782" r="5.4335937"/><path class="cls-1" d="m68.2203116,262.929889c2.236084,0,4.0488281,1.8127441,4.0488281,4.0488281,0,2.236145-1.8127441,4.0488892-4.0488281,4.0488892-2.236145,0-4.0488892-1.8127441-4.0488892-4.0488892,0-2.236084,1.8127441-4.0488281,4.0488892-4.0488281m0-2.769043c-3.7593994,0-6.8179321,3.0584717-6.8179321,6.8178711s3.0585327,6.8179321,6.8179321,6.8179321,6.8178711-3.0585327,6.8178711-6.8179321-3.0584717-6.8178711-6.8178711-6.8178711h0Z"/><circle class="cls-1" cx="93.0477042" cy="266.9787782" r="5.4335937"/><path class="cls-1" d="m93.0478873,262.929889c2.236084,0,4.0488281,1.8127441,4.0488281,4.0488281,0,2.236145-1.8127441,4.0488892-4.0488281,4.0488892-2.236145,0-4.0488281-1.8127441-4.0488281-4.0488892,0-2.236084,1.8126831-4.0488281,4.0488281-4.0488281m0-2.769043c-3.7593994,0-6.8178711,3.0584717-6.8178711,6.8178711s3.0584717,6.8179321,6.8178711,6.8179321,6.8178711-3.0585327,6.8178711-6.8179321-3.0584717-6.8178711-6.8178711-6.8178711h0Z"/><circle class="cls-1" cx="117.8753409" cy="266.9787782" r="5.4335937"/><path class="cls-1" d="m117.875463,262.929889c2.236145,0,4.0488281,1.8127441,4.0488281,4.0488281,0,2.236145-1.8126831,4.0488892-4.0488281,4.0488892-2.236084,0-4.0488281-1.8127441-4.0488281-4.0488892,0-2.236084,1.8126831-4.0488281,4.0488281-4.0488281m0-2.769043c-3.7593994,0-6.8178711,3.0584717-6.8178711,6.8178711s3.0584717,6.8179321,6.8178711,6.8179321,6.8178711-3.0585327,6.8178711-6.8179321-3.0584717-6.8178711-6.8178711-6.8178711h0Z"/><circle class="cls-1" cx="142.7029776" cy="266.9787782" r="5.4335937"/><path class="cls-1" d="m142.7030386,262.929889c2.236145,0,4.0488281,1.8127441,4.0488281,4.0488281,0,2.236145-1.8126831,4.0488892-4.0488281,4.0488892-2.236084,0-4.0488281-1.8127441-4.0488281-4.0488892,0-2.236084,1.8127441-4.0488281,4.0488281-4.0488281m0-2.769043c-3.7593994,0-6.8178711,3.0584717-6.8178711,6.8178711s3.0584717,6.8179321,6.8178711,6.8179321,6.8178711-3.0585327,6.8178711-6.8179321-3.0584717-6.8178711-6.8178711-6.8178711h0Z"/><circle class="cls-1" cx="167.5306143" cy="266.9787782" r="5.4335937"/><path class="cls-1" d="m167.5306143,262.929889c2.236145,0,4.0488892,1.8127441,4.0488892,4.0488281,0,2.236145-1.8127441,4.0488892-4.0488892,4.0488892-2.236084,0-4.0488281-1.8127441-4.0488281-4.0488892,0-2.236084,1.8127441-4.0488281,4.0488281-4.0488281m0-2.769043c-3.7593994,0-6.8178711,3.0584717-6.8178711,6.8178711s3.0584717,6.8179321,6.8178711,6.8179321,6.8179321-3.0585327,6.8179321-6.8179321-3.0585327-6.8178711-6.8179321-6.8178711h0Z"/><circle class="cls-1" cx="81.2200675" cy="286.9787782" r="5.4335937"/><path class="cls-1" d="m81.2203116,282.929889c2.236084,0,4.0488281,1.8127441,4.0488281,4.0488281,0,2.236145-1.8127441,4.0488892-4.0488281,4.0488892-2.236145,0-4.0488892-1.8127441-4.0488892-4.0488892,0-2.236084,1.8127441-4.0488281,4.0488892-4.0488281m0-2.769043c-3.7593994,0-6.8179321,3.0584717-6.8179321,6.8178711s3.0585327,6.8179321,6.8179321,6.8179321,6.8178711-3.0585327,6.8178711-6.8179321-3.0584717-6.8178711-6.8178711-6.8178711h0Z"/><circle class="cls-1" cx="106.0477042" cy="286.9787782" r="5.4335937"/><path class="cls-1" d="m106.0478873,282.929889c2.236084,0,4.0488281,1.8127441,4.0488281,4.0488281,0,2.236145-1.8127441,4.0488892-4.0488281,4.0488892-2.236145,0-4.0488281-1.8127441-4.0488281-4.0488892,0-2.236084,1.8126831-4.0488281,4.0488281-4.0488281m0-2.769043c-3.7593994,0-6.8178711,3.0584717-6.8178711,6.8178711s3.0584717,6.8179321,6.8178711,6.8179321,6.8178711-3.0585327,6.8178711-6.8179321-3.0584717-6.8178711-6.8178711-6.8178711h0Z"/><circle class="cls-1" cx="130.8753409" cy="286.9787782" r="5.4335937"/><path class="cls-1" d="m130.875463,282.929889c2.236145,0,4.0488281,1.8127441,4.0488281,4.0488281,0,2.236145-1.8126831,4.0488892-4.0488281,4.0488892-2.236084,0-4.0488281-1.8127441-4.0488281-4.0488892,0-2.236084,1.8126831-4.0488281,4.0488281-4.0488281m0-2.769043c-3.7593994,0-6.8178711,3.0584717-6.8178711,6.8178711s3.0584717,6.8179321,6.8178711,6.8179321,6.8178711-3.0585327,6.8178711-6.8179321-3.0584717-6.8178711-6.8178711-6.8178711h0Z"/><circle class="cls-1" cx="155.7029776" cy="286.9787782" r="5.4335937"/><path class="cls-1" d="m155.7030386,282.929889c2.236145,0,4.0488281,1.8127441,4.0488281,4.0488281,0,2.236145-1.8126831,4.0488892-4.0488281,4.0488892-2.236084,0-4.0488281-1.8127441-4.0488281-4.0488892,0-2.236084,1.8127441-4.0488281,4.0488281-4.0488281m0-2.769043c-3.7593994,0-6.8178711,3.0584717-6.8178711,6.8178711s3.0584717,6.8179321,6.8178711,6.8179321,6.8178711-3.0585327,6.8178711-6.8179321-3.0584717-6.8178711-6.8178711-6.8178711h0Z"/><circle class="cls-1" cx="93.0477042" cy="306.9787782" r="5.4335937"/><path class="cls-1" d="m93.0478873,302.929889c2.236084,0,4.0488281,1.8127441,4.0488281,4.0488281,0,2.236145-1.8127441,4.0488892-4.0488281,4.0488892-2.236145,0-4.0488281-1.8127441-4.0488281-4.0488892,0-2.236084,1.8126831-4.0488281,4.0488281-4.0488281m0-2.769043c-3.7593994,0-6.8178711,3.0584717-6.8178711,6.8178711s3.0584717,6.8179321,6.8178711,6.8179321,6.8178711-3.0585327,6.8178711-6.8179321-3.0584717-6.8178711-6.8178711-6.8178711h0Z"/><circle class="cls-1" cx="117.8753409" cy="306.9787782" r="5.4335937"/><path class="cls-1" d="m117.875463,302.929889c2.236145,0,4.0488281,1.8127441,4.0488281,4.0488281,0,2.236145-1.8126831,4.0488892-4.0488281,4.0488892-2.236084,0-4.0488281-1.8127441-4.0488281-4.0488892,0-2.236084,1.8126831-4.0488281,4.0488281-4.0488281m0-2.769043c-3.7593994,0-6.8178711,3.0584717-6.8178711,6.8178711s3.0584717,6.8179321,6.8178711,6.8179321,6.8178711-3.0585327,6.8178711-6.8179321-3.0584717-6.8178711-6.8178711-6.8178711h0Z"/><circle class="cls-1" cx="142.7029776" cy="306.9787782" r="5.4335937"/><path class="cls-1" d="m142.7030386,302.929889c2.236145,0,4.0488281,1.8127441,4.0488281,4.0488281,0,2.236145-1.8126831,4.0488892-4.0488281,4.0488892-2.236084,0-4.0488281-1.8127441-4.0488281-4.0488892,0-2.236084,1.8127441-4.0488281,4.0488281-4.0488281m0-2.769043c-3.7593994,0-6.8178711,3.0584717-6.8178711,6.8178711s3.0584717,6.8179321,6.8178711,6.8179321,6.8178711-3.0585327,6.8178711-6.8179321-3.0584717-6.8178711-6.8178711-6.8178711h0Z"/></svg>