<?xml version="1.0" encoding="UTF-8"?><svg id="Calque_1" xmlns="http://www.w3.org/2000/svg" viewBox="0 0 240 330"><defs><style>.cls-1{fill:#fff;}.cls-1,.cls-2,.cls-3{stroke-width:0px;}.cls-2{fill:#c6c6c6;}.cls-3{fill:#1d4ed8;}</style></defs><path class="cls-3" d="m100.8570709,100.6057129c20.9558563,0,40.0234985,12.3806152,48.5769958,31.5410156l5.2129364,11.6774902,12.58992-2.2429199c2.6296539-.4682617,5.2620697-.7058105,7.8240814-.7058105,24.4047852,0,44.2595673,19.8547363,44.2595673,44.2595215s-19.8547821,44.2592773-44.2595673,44.2592773H51.2484283c-16.8557854,0-30.5690002-13.7131348-30.5690002-30.5688477,0-11.8122559,6.9232864-22.6853027,17.637928-27.7006836l9.7984314-4.5864258-.3873596-10.8120117-.009285-.2565918c-.022644-.6252441-.0440712-1.2158203-.0440712-1.6821289,0-29.324707,23.8573532-53.1818848,53.1819992-53.1818848m0-16.3552246c-38.4043579,0-69.5371418,31.1328125-69.5371418,69.5371094,0,.8466797.0337849,1.6850586.0638561,2.5244141-15.9830713,7.4814453-27.0594997,23.7001953-27.0594997,42.5134277,0,25.9155273,21.0087147,46.9240723,46.9241428,46.9240723h123.8125763c33.4765625,0,60.6147156-27.1381836,60.6147156-60.614502,0-33.4765625-27.1381531-60.6147461-60.6147156-60.6147461-3.6505737,0-7.2194977.3408203-10.6923676.9594727-10.8436432-24.2905273-35.1918488-41.229248-63.5115662-41.229248h0Z"/><path class="cls-3" d="m87.6958008,269.6933594c-5.5683594,0-10.0986328-4.5302734-10.0986328-10.0986328v-42.8662109c0-5.5683594,4.5302734-10.0986328,10.0986328-10.0986328s10.0981445,4.5302734,10.0981445,10.0986328v42.8662109c0,5.5683594-4.5297852,10.0986328-10.0981445,10.0986328Z"/><path class="cls-1" d="m87.6956787,210.9274902c3.2035522,0,5.8005295,2.597168,5.8005295,5.8005371v42.8669434c0,3.2033691-2.5969772,5.8005371-5.8005295,5.8005371s-5.8005295-2.597168-5.8005295-5.8005371v-42.8669434c0-3.2033691,2.5969772-5.8005371,5.8005295-5.8005371m0-8.5959473c-7.9381638,0-14.3963623,6.458252-14.3963623,14.3964844v42.8669434c0,7.9382324,6.4581985,14.3964844,14.3963623,14.3964844s14.3963623-6.458252,14.3963623-14.3964844v-42.8669434c0-7.9382324-6.4581985-14.3964844-14.3963623-14.3964844h0Z"/><path class="cls-3" d="m109.3251953,284.8691406c-5.5683594,0-10.0981445-4.5302734-10.0981445-10.0986328v-42.8662109c0-5.5683594,4.5297852-10.0986328,10.0981445-10.0986328s10.0981445,4.5302734,10.0981445,10.0986328v42.8662109c0,5.5683594-4.5297852,10.0986328-10.0981445,10.0986328Z"/><path class="cls-1" d="m109.3251953,226.1037598c3.2035522,0,5.8005295,2.5969238,5.8005295,5.8005371v42.8666992c0,3.2036133-2.5969772,5.8005371-5.8005295,5.8005371s-5.8005295-2.5969238-5.8005295-5.8005371v-42.8666992c0-3.2036133,2.5969772-5.8005371,5.8005295-5.8005371m0-8.5959473c-7.9381638,0-14.3963623,6.458252-14.3963623,14.3964844v42.8666992c0,7.9382324,6.4581985,14.3964844,14.3963623,14.3964844s14.3963623-6.458252,14.3963623-14.3964844v-42.8666992c0-7.9382324-6.4581985-14.3964844-14.3963623-14.3964844h0Z"/><path class="cls-3" d="m130.9545898,271.1259766c-5.5683594,0-10.0981445-4.5302734-10.0981445-10.0986328v-42.8662109c0-5.5683594,4.5297852-10.0986328,10.0981445-10.0986328s10.0986328,4.5302734,10.0986328,10.0986328v42.8662109c0,5.5683594-4.5302734,10.0986328-10.0986328,10.0986328Z"/><path class="cls-1" d="m130.9547119,212.3601074c3.2035522,0,5.8005219,2.597168,5.8005219,5.8005371v42.8669434c0,3.2033691-2.5969696,5.8005371-5.8005219,5.8005371s-5.8005295-2.597168-5.8005295-5.8005371v-42.8669434c0-3.2033691,2.5969772-5.8005371,5.8005295-5.8005371m0-8.5959473c-7.9381638,0-14.3963623,6.458252-14.3963623,14.3964844v42.8669434c0,7.9382324,6.4581985,14.3964844,14.3963623,14.3964844,7.9381714,0,14.3963623-6.458252,14.3963623-14.3964844v-42.8669434c0-7.9382324-6.4581909-14.3964844-14.3963623-14.3964844h0Z"/><path class="cls-3" d="m152.3041992,284.8691406c-5.5683594,0-10.0981445-4.5302734-10.0981445-10.0986328v-42.8662109c0-5.5683594,4.5297852-10.0986328,10.0981445-10.0986328s10.0986328,4.5302734,10.0986328,10.0986328v42.8662109c0,5.5683594-4.5302734,10.0986328-10.0986328,10.0986328Z"/><path class="cls-1" d="m152.3043518,226.1037598c3.2035217,0,5.8004913,2.5969238,5.8004913,5.8005371v42.8666992c0,3.2036133-2.5969696,5.8005371-5.8004913,5.8005371h-.0000305c-3.2035217,0-5.8005219-2.5969238-5.8005219-5.8005371v-42.8666992c0-3.2036133,2.5970001-5.8005371,5.8005219-5.8005371h.0000305m0-8.5959473c-7.9382019,0-14.3963928,6.458252-14.3963928,14.3964844v42.8666992c0,7.9382324,6.4581909,14.3964844,14.3963623,14.3964844s14.3963623-6.458252,14.3963623-14.3964844v-42.8666992c0-7.9382324-6.4581604-14.3964844-14.3963318-14.3964844h0Z"/><path class="cls-2" d="m61.3182001,294.0725633l-8.1592288-4.7108705,8.1592288-4.7105811c2.2955292-1.3251675,3.0821213-4.2605624,1.7566644-6.5560916-1.3253122-2.2955292-4.2605624-3.0821213-6.5560916-1.7569538l-8.1592288,4.7108705v-9.4214515c0-2.6506243-2.1488029-4.7994272-4.7994272-4.7994272h-.0001447c-2.6506243,0-4.7994272,2.1488029-4.7994272,4.7994272v9.4214515l-8.1590841-4.7108705c-2.2955292-1.3251675-5.2309242-.5385754-6.5560916,1.7569538-1.3254569,2.2955292-.5388648,5.2309242,1.7566644,6.5560916l8.1590841,4.7105811-8.1590841,4.7108705c-2.2955292,1.3254569-3.0821213,4.2605624-1.7566644,6.5560916,1.3251675,2.2955292,4.2605624,3.0821213,6.5560916,1.7566644l8.1590841-4.7105811v9.4214515c0,2.6506243,2.1488029,4.7994272,4.7994272,4.7994272h.0001447c2.6506243,0,4.7994272-2.1488029,4.7994272-4.7994272v-9.4214515l8.1592288,4.7105811c2.2955292,1.3254569,5.2307795.5388648,6.5560916-1.7566644,1.3254569-2.2955292.5388648-5.2306348-1.7566644-6.5560916Z"/><path class="cls-2" d="m214.1979663,294.0725633l-8.1592288-4.7108705,8.1592288-4.7105811c2.2955292-1.3251675,3.0821213-4.2605624,1.7566644-6.5560916-1.3253122-2.2955292-4.2605624-3.0821213-6.5560916-1.7569538l-8.1592288,4.7108705v-9.4214515c0-2.6506243-2.1488029-4.7994272-4.7994272-4.7994272h-.0001447c-2.6506243,0-4.7994272,2.1488029-4.7994272,4.7994272v9.4214515l-8.1590841-4.7108705c-2.2955292-1.3251675-5.2309242-.5385754-6.5560916,1.7569538-1.3254569,2.2955292-.5388648,5.2309242,1.7566644,6.5560916l8.1590841,4.7105811-8.1590841,4.7108705c-2.2955292,1.3254569-3.0821213,4.2605624-1.7566644,6.5560916,1.3251675,2.2955292,4.2605624,3.0821213,6.5560916,1.7566644l8.1590841-4.7105811v9.4214515c0,2.6506243,2.1488029,4.7994272,4.7994272,4.7994272h.0001447c2.6506243,0,4.7994272-2.1488029,4.7994272-4.7994272v-9.4214515l8.1592288,4.7105811c2.2955292,1.3254569,5.2307795.5388648,6.5560916-1.7566644,1.3254569-2.2955292.5388648-5.2306348-1.7566644-6.5560916Z"/></svg>