<?xml version="1.0" encoding="UTF-8"?><svg id="Calque_1" xmlns="http://www.w3.org/2000/svg" viewBox="0 0 240 330"><defs><style>.cls-1{fill:#fff;}.cls-1,.cls-2,.cls-3{stroke-width:0px;}.cls-2{fill:#c6c6c6;}.cls-3{fill:#1d4ed8;}</style></defs><path class="cls-3" d="m100.8570862,100.6057129c20.9558411,0,40.0234985,12.3806152,48.5769958,31.5410156l5.2129211,11.6774902,12.5899353-2.2429199c2.6296387-.4682617,5.2620544-.7058105,7.8240662-.7058105,24.4047852,0,44.259552,19.8547363,44.259552,44.2595215s-19.8547668,44.2592773-44.259552,44.2592773H51.2484436c-16.8558044,0-30.5690002-13.7131348-30.5690002-30.5688477,0-11.8122559,6.9232788-22.6853027,17.6379089-27.7006836l9.7984314-4.5864258-.3873596-10.8120117-.0092773-.2565918c-.022644-.6252441-.0440674-1.2158203-.0440674-1.6821289,0-29.324707,23.8573608-53.1818848,53.1820068-53.1818848m0-16.3552246c-38.4043579,0-69.5371704,31.1328125-69.5371704,69.5371094,0,.8466797.0338135,1.6850586.0638733,2.5244141-15.9830627,7.4814453-27.0595093,23.7001953-27.0595093,42.5134277,0,25.9155273,21.008728,46.9240723,46.9241638,46.9240723h123.812561c33.4765625,0,60.6147156-27.1381836,60.6147156-60.614502,0-33.4765625-27.1381531-60.6147461-60.6147156-60.6147461-3.6505737,0-7.2195129.3408203-10.6923523.9594727-10.8436584-24.2905273-35.191864-41.229248-63.5115662-41.229248h0Z"/><path class="cls-3" d="m63.7836914,273.5019531c-4.5600586,0-8.5698242-3.078125-9.7509766-7.4863281l-11.0947266-41.40625c-1.440918-5.3789062,1.762207-10.9267578,7.140625-12.3681641.8554688-.2294922,1.7363281-.3457031,2.6171875-.3457031,4.5600586,0,8.5698242,3.078125,9.7504883,7.4863281l11.0947266,41.40625c.6982422,2.6054688.3398438,5.3271484-1.0083008,7.6630859-1.3486328,2.3359375-3.5268555,4.0068359-6.1323242,4.7050781-.8554688.2294922-1.7358398.3457031-2.6166992.3457031Z"/><path class="cls-1" d="m52.6957092,216.1936035c2.5612183-.0002441,4.9049072,1.7089844,5.5993042,4.3007812l11.0947876,41.4060059c.8291321,3.0944824-1.0072327,6.2751465-4.101593,7.104248h-.0000305c-.5027771.1347656-1.0079651.1989746-1.5048218.1989746-2.5611877,0-4.9049072-1.7089844-5.5993347-4.3005371l-11.0947571-41.40625c-.8291321-3.0942383,1.0072021-6.2749023,4.101593-7.104248.5027771-.1347656,1.0079956-.1989746,1.5048523-.1989746m.0002136-8.5959473h-.0004883c-1.2566223,0-2.5114136.1655273-3.7294922.4919434-7.6676941,2.0551758-12.2340698,9.9648438-10.1795959,17.6320801l11.0947571,41.40625c1.6836853,6.2832031,7.4004822,10.6716309,13.9022522,10.6716309,1.2563477,0,2.5110779-.1655273,3.7293091-.4919434,7.6678772-2.0544434,12.2345581-9.9641113,10.1801147-17.6318359l-11.0948486-41.40625c-1.6834717-6.2832031-7.400238-10.671875-13.9020081-10.671875h0Z"/><path class="cls-3" d="m88.6035156,282.5625c-4.5600586,0-8.5698242-3.078125-9.7504883-7.4863281l-11.0947266-41.40625c-1.440918-5.3789062,1.762207-10.9267578,7.140625-12.3681641.8554688-.2294922,1.7358398-.3457031,2.6166992-.3457031,4.5600586,0,8.5698242,3.078125,9.7509766,7.4863281l11.0947266,41.40625c.6982422,2.6054688.3398438,5.3271484-1.0083008,7.6630859-1.3486328,2.3359375-3.5268555,4.0068359-6.1323242,4.7050781-.8554688.2294922-1.7363281.3457031-2.6171875.3457031Z"/><path class="cls-1" d="m77.5163879,225.2543945c2.5611877-.0002441,4.9046021,1.7089844,5.598999,4.3007812l11.0947876,41.4060059c.8291321,3.0944824-1.0072021,6.2751465-4.101593,7.104248h-.0000305c-.5027771.1347656-1.0079956.1989746-1.5048523.1989746-2.5611877,0-4.9048767-1.7089844-5.5993042-4.3005371l-11.0947571-41.40625c-.8291321-3.0942383,1.0072021-6.2749023,4.101593-7.1040039.5027771-.1347656,1.0083008-.1992188,1.5051575-.1992188m.0004883-8.5957031h-.0009766c-1.2569885,0-2.5119324.1657715-3.730011.4921875-3.7137451.9951172-6.8182068,3.3771973-8.7409668,6.7072754-1.922699,3.3303223-2.4335022,7.2099609-1.4382019,10.9243164l11.0947571,41.40625c1.6836853,6.2832031,7.4004822,10.6716309,13.9022217,10.6716309,1.2565308,0,2.5114441-.1655273,3.7297668-.4919434,3.7141418-.9953613,6.8186951-3.3774414,8.7414551-6.7077637,1.9226379-3.3300781,2.4334412-7.2097168,1.4382324-10.9240723l-11.0948486-41.40625c-1.6834717-6.2832031-7.3999939-10.6716309-13.9014282-10.6716309h0Z"/><path class="cls-3" d="m105.9394531,263.6894531c-4.5600586,0-8.5698242-3.078125-9.7509766-7.4863281l-11.0947266-41.40625c-1.440918-5.3789062,1.762207-10.9267578,7.140625-12.3681641.8554688-.2294922,1.7358398-.3457031,2.6166992-.3457031,4.5600586,0,8.5698242,3.078125,9.7509766,7.4863281l11.0947266,41.40625c1.4414062,5.3789062-1.762207,10.9277344-7.140625,12.3681641-.8554688.2294922-1.7358398.3457031-2.6166992.3457031Z"/><path class="cls-1" d="m94.8518066,206.3811035c2.5611877-.0002441,4.9046021,1.7089844,5.5990295,4.3007812l11.0947571,41.4060059c.8291321,3.0944824-1.0072021,6.2751465-4.101593,7.104248-.5027771.1347656-1.0079651.1989746-1.5048218.1989746-2.5612183,0-4.9049377-1.7089844-5.5993347-4.3005371l-11.0947876-41.40625c-.8291321-3.0942383,1.0072021-6.2749023,4.101593-7.1040039h.0000305c.5027771-.1347656,1.0082703-.1992188,1.505127-.1992188m.0005188-8.5957031h-.0009766c-1.2569885,0-2.5119324.1657715-3.730011.4921875-3.7137146.9951172-6.8182373,3.3771973-8.7409668,6.7072754-1.9227295,3.3303223-2.4335327,7.2099609-1.4382324,10.9243164l11.0947876,41.40625c1.6836243,6.2832031,7.4004211,10.6716309,13.9022217,10.6716309,1.2563782,0,2.5111084-.1655273,3.7293396-.4919434,7.6678467-2.0544434,12.2345276-9.9641113,10.1800842-17.6318359l-11.0948181-41.40625c-1.6835327-6.2832031-7.4000549-10.6716309-13.9014282-10.6716309h0Z"/><path class="cls-2" d="m192.6749203,295.34437l-10.3620659-5.9827162,10.3620659-5.9823487c2.9152786-1.6829376,3.9142356-5.4108335,2.2309305-8.3261121-1.6831213-2.9152786-5.4108335-3.9142356-8.3261121-2.2312981l-10.3620659,5.9827162v-11.9650649c0-3.3662426-2.7289389-6.0951816-6.0951816-6.0951816h-.0001838c-3.3662426,0-6.0951816,2.7289389-6.0951816,6.0951816v11.9650649l-10.3618822-5.9827162c-2.9152786-1.6829376-6.6431745-.6839805-8.3261121,2.2312981-1.6833051,2.9152786-.684348,6.6431745,2.2309305,8.3261121l10.3618822,5.9823487-10.3618822,5.9827162c-2.9152786,1.6833051-3.9142356,5.4108335-2.2309305,8.3261121,1.6829376,2.9152786,5.4108335,3.9142356,8.3261121,2.2309305l10.3618822-5.9823487v11.9650649c0,3.3662426,2.7289389,6.0951816,6.0951816,6.0951816h.0001838c3.3662426,0,6.0951816-2.7289389,6.0951816-6.0951816v-11.9650649l10.3620659,5.9823487c2.9152786,1.6833051,6.6429908.684348,8.3261121-2.2309305,1.6833051-2.9152786.684348-6.642807-2.2309305-8.3261121Z"/></svg>