<?xml version="1.0" encoding="UTF-8"?><svg id="Calque_1" xmlns="http://www.w3.org/2000/svg" viewBox="0 0 240 330"><defs><style>.cls-1{fill:#38bdf8;stroke-width:0px;}</style></defs><path class="cls-1" d="m100.8570709,100.6055908c20.9557877,0,40.0234222,12.3807373,48.5769958,31.5411377l5.2126465,11.6765137,12.5892792-2.2416992c2.6309357-.4685059,5.2636566-.7060547,7.8250122-.7060547,24.4047852,0,44.2595673,19.8546143,44.2595673,44.2593994s-19.8547821,44.2595215-44.2595673,44.2595215H51.2484283c-16.8557854,0-30.5690002-13.7131348-30.5690002-30.5689697,0-11.8122559,6.9232864-22.6854248,17.637928-27.7006836l9.7984314-4.5864258-.3873596-10.8118896-.009285-.2568359c-.022644-.6251221-.0440712-1.2156982-.0440712-1.6820068,0-29.324707,23.8573532-53.1820068,53.1819992-53.1820068m0-16.3551025c-38.4043579,0-69.5371418,31.1328125-69.5371418,69.5371094,0,.8466797.0337849,1.6850586.0638561,2.5244141-15.9830713,7.4813232-27.0594997,23.7000732-27.0594997,42.5134277,0,25.9154053,21.0087147,46.9240723,46.9241428,46.9240723h123.8125763c33.4765625,0,60.6147156-27.1380615,60.6147156-60.614624s-27.1381531-60.614624-60.6147156-60.614624c-3.6505737,0-7.2194977.3409424-10.6923676.9593506-10.8436432-24.2902832-35.1918488-41.229126-63.5115662-41.229126h0Z"/><circle class="cls-1" cx="81.3095703" cy="266.9785156" r="5.4335937"/><path class="cls-1" d="m81.3097534,262.9299316c2.2360992,0,4.0488358,1.8127441,4.0488358,4.0488281s-1.8127365,4.0488281-4.0488358,4.0488281h-.0000076c-2.2361069,0-4.0488434-1.8127441-4.0488434-4.0488281s1.8127365-4.0488281,4.0488358-4.0488281h.0000153m0-2.769043c-3.7593994,0-6.8178864,3.0584717-6.8178864,6.8178711s3.0584869,6.8178711,6.8178787,6.8178711,6.8178787-3.0584717,6.8178787-6.8178711-3.0584793-6.8178711-6.8178711-6.8178711h0Z"/><circle class="cls-1" cx="106.137207" cy="266.9785156" r="5.4335937"/><path class="cls-1" d="m106.1373367,262.9299316c2.2361145,0,4.0488434,1.8127441,4.0488434,4.0488281s-1.8127289,4.0488281-4.0488434,4.0488281h-.0000076c-2.2361069,0-4.0488434-1.8127441-4.0488434-4.0488281s1.8127365-4.0488281,4.0488434-4.0488281h.0000076m0-2.769043c-3.7593994,0-6.8178864,3.0584717-6.8178864,6.8178711s3.0584869,6.8178711,6.8178787,6.8178711c3.7593994,0,6.8178864-3.0584717,6.8178864-6.8178711s-3.0584869-6.8178711-6.8178787-6.8178711h0Z"/><circle class="cls-1" cx="130.9648438" cy="266.9785156" r="5.4335937"/><path class="cls-1" d="m130.96492,262.9299316c2.2361145,0,4.0488434,1.8127441,4.0488434,4.0488281s-1.8127289,4.0488281-4.0488434,4.0488281-4.0488434-1.8127441-4.0488434-4.0488281,1.8127289-4.0488281,4.0488434-4.0488281m0-2.769043c-3.7593918,0-6.8178787,3.0584717-6.8178787,6.8178711s3.0584869,6.8178711,6.8178787,6.8178711c3.7593842,0,6.8178864-3.0584717,6.8178864-6.8178711s-3.0585022-6.8178711-6.8178864-6.8178711h0Z"/><circle class="cls-1" cx="155.7924805" cy="266.9785156" r="5.4335937"/><path class="cls-1" d="m155.792511,262.9299316c2.2361145,0,4.0488434,1.8127441,4.0488434,4.0488281s-1.8127289,4.0488281-4.0488434,4.0488281h-.0000153c-2.2361145,0-4.0488434-1.8127441-4.0488434-4.0488281s1.8127289-4.0488281,4.0488434-4.0488281h.0000153m0-2.769043c-3.7594147,0-6.8179016,3.0584717-6.8179016,6.8178711s3.0584869,6.8178711,6.8178864,6.8178711,6.8179016-3.0584717,6.8179016-6.8178711-3.0585022-6.8178711-6.8178864-6.8178711h0Z"/><circle class="cls-1" cx="94.3095703" cy="286.9785156" r="5.4335937"/><path class="cls-1" d="m94.3097534,282.9299316c2.2360992,0,4.0488358,1.8127441,4.0488358,4.0488281s-1.8127365,4.0488281-4.0488358,4.0488281h-.0000076c-2.2361069,0-4.0488434-1.8127441-4.0488434-4.0488281s1.8127365-4.0488281,4.0488358-4.0488281h.0000153m0-2.769043c-3.7593994,0-6.8178864,3.0584717-6.8178864,6.8178711s3.0584869,6.8178711,6.8178787,6.8178711,6.8178787-3.0584717,6.8178787-6.8178711-3.0584793-6.8178711-6.8178711-6.8178711h0Z"/><circle class="cls-1" cx="119.137207" cy="286.9785156" r="5.4335937"/><path class="cls-1" d="m119.1373367,282.9299316c2.2361145,0,4.0488434,1.8127441,4.0488434,4.0488281s-1.8127289,4.0488281-4.0488434,4.0488281h-.0000076c-2.2361069,0-4.0488434-1.8127441-4.0488434-4.0488281s1.8127365-4.0488281,4.0488434-4.0488281h.0000076m0-2.769043c-3.7593994,0-6.8178864,3.0584717-6.8178864,6.8178711s3.0584869,6.8178711,6.8178787,6.8178711c3.7593994,0,6.8178864-3.0584717,6.8178864-6.8178711s-3.0584869-6.8178711-6.8178787-6.8178711h0Z"/><circle class="cls-1" cx="143.9648438" cy="286.9785156" r="5.4335937"/><path class="cls-1" d="m143.96492,282.9299316c2.2361145,0,4.0488434,1.8127441,4.0488434,4.0488281s-1.8127289,4.0488281-4.0488434,4.0488281-4.0488434-1.8127441-4.0488434-4.0488281,1.8127289-4.0488281,4.0488434-4.0488281m0-2.769043c-3.7593842,0-6.8178864,3.0584717-6.8178864,6.8178711s3.0585022,6.8178711,6.8178864,6.8178711,6.8178864-3.0584717,6.8178864-6.8178711-3.0585022-6.8178711-6.8178864-6.8178711h0Z"/><circle class="cls-1" cx="106.7236328" cy="306.9785156" r="5.4335937"/><path class="cls-1" d="m106.7235413,302.9299316c2.2361069,0,4.0488434,1.8127441,4.0488434,4.0488281s-1.8127365,4.0488281-4.0488434,4.0488281h-.0000076c-2.2361145,0-4.0488358-1.8127441-4.0488358-4.0488281s1.8127213-4.0488281,4.0488358-4.0488281h.0000076m0-2.769043c-3.7593918,0-6.8178787,3.0584717-6.8178787,6.8178711s3.0584793,6.8178711,6.8178711,6.8178711c3.7593994,0,6.8178864-3.0584717,6.8178864-6.8178711s-3.0584869-6.8178711-6.8178787-6.8178711h0Z"/><circle class="cls-1" cx="131.5512695" cy="306.9785156" r="5.4335937"/><path class="cls-1" d="m131.5511322,302.9299316c2.2361145,0,4.0488434,1.8127441,4.0488434,4.0488281s-1.8127289,4.0488281-4.0488434,4.0488281h-.0000153c-2.2361145,0-4.0488358-1.8127441-4.0488358-4.0488281s1.8127213-4.0488281,4.0488358-4.0488281h.0000153m0-2.769043c-3.7593994,0-6.8178864,3.0584717-6.8178864,6.8178711s3.0584793,6.8178711,6.8178711,6.8178711c3.7593994,0,6.8179016-3.0584717,6.8179016-6.8178711s-3.0585022-6.8178711-6.8178864-6.8178711h0Z"/></svg>