<?xml version="1.0" encoding="UTF-8"?><svg id="Calque_1" xmlns="http://www.w3.org/2000/svg" viewBox="0 0 240 330"><defs><style>.cls-1{fill:#1d4ed8;stroke-width:0px;}</style></defs><path class="cls-1" d="m100.8570709,100.6056519c20.9557877,0,40.0234222,12.3806152,48.5769958,31.5410767l5.2126465,11.6765747,12.5892792-2.2418213c2.6309357-.4685059,5.2636566-.7060547,7.8250122-.7060547,24.4047852,0,44.2595673,19.8547363,44.2595673,44.2593994,0,24.4048462-19.8547821,44.2595215-44.2595673,44.2595215H51.2484283c-16.8557854,0-30.5690002-13.7131348-30.5690002-30.5689087,0-11.8121948,6.9232864-22.6854248,17.637928-27.7007446l9.7984314-4.5864258-.3873596-10.8118286-.009285-.2567749c-.022644-.6252441-.0440712-1.2158203-.0440712-1.6820679,0-29.324646,23.8573532-53.1819458,53.1819992-53.1819458m0-16.3551636c-38.4043579,0-69.5371418,31.1328125-69.5371418,69.5371094,0,.8466797.0337849,1.6850586.0638561,2.5244141-15.9830713,7.4813232-27.0594997,23.7000732-27.0594997,42.5134277,0,25.9154053,21.0087147,46.9240723,46.9241428,46.9240723h123.8125763c33.4765625,0,60.6147156-27.1380615,60.6147156-60.6146851,0-33.4764404-27.1381531-60.614563-60.6147156-60.614563-3.6505737,0-7.2194977.3409424-10.6923676.9593506-10.8436432-24.2902832-35.1918488-41.229126-63.5115662-41.229126h0Z"/><path class="cls-1" d="m81.3095675,272.4125773c-2.9960938,0-5.4335938-2.4375-5.4335938-5.4335938s2.4375-5.434082,5.4335938-5.434082,5.4335938,2.4375,5.4335938,5.4335938-2.4375,5.434082-5.4335938,5.434082Z"/><path class="cls-1" d="m81.3097507,262.9299113c2.236084,0,4.0488281,1.8126831,4.0488281,4.0488281s-1.8127441,4.0488281-4.0488281,4.0488281c-2.236145,0-4.0488281-1.8126831-4.0488281-4.0488281s1.8126831-4.0488281,4.0488281-4.0488281m0-2.769043c-3.7593994,0-6.8178711,3.0584717-6.8178711,6.8178711s3.0584717,6.8178711,6.8178711,6.8178711,6.8178711-3.0584717,6.8178711-6.8178711-3.0584717-6.8178711-6.8178711-6.8178711h0Z"/><path class="cls-1" d="m106.1372043,272.4125773c-2.9960938,0-5.4335938-2.4375-5.4335938-5.4335938s2.4375-5.434082,5.4335938-5.434082,5.4335938,2.4375,5.4335938,5.4335938-2.4375,5.434082-5.4335938,5.434082Z"/><path class="cls-1" d="m106.1373263,262.9299113c2.236145,0,4.0488281,1.8126831,4.0488281,4.0488281s-1.8126831,4.0488281-4.0488281,4.0488281c-2.236084,0-4.0488281-1.8126831-4.0488281-4.0488281s1.8127441-4.0488281,4.0488281-4.0488281m0-2.769043c-3.7593994,0-6.8178711,3.0584717-6.8178711,6.8178711s3.0584717,6.8178711,6.8178711,6.8178711,6.8178711-3.0584717,6.8178711-6.8178711-3.0584717-6.8178711-6.8178711-6.8178711h0Z"/><path class="cls-1" d="m130.964841,272.4125773c-2.9960938,0-5.4335938-2.4375-5.4335938-5.4335938s2.4375-5.434082,5.4335938-5.434082,5.4335938,2.4375,5.4335938,5.4335938-2.4375,5.434082-5.4335938,5.434082Z"/><path class="cls-1" d="m130.964902,262.9299113c2.236145,0,4.0488892,1.8126831,4.0488892,4.0488281s-1.8127441,4.0488281-4.0488892,4.0488281c-2.236084,0-4.0488281-1.8126831-4.0488281-4.0488281s1.8127441-4.0488281,4.0488281-4.0488281m0-2.769043c-3.7593994,0-6.8178711,3.0584717-6.8178711,6.8178711s3.0584717,6.8178711,6.8178711,6.8178711,6.8179321-3.0584717,6.8179321-6.8178711-3.0585327-6.8178711-6.8179321-6.8178711h0Z"/><path class="cls-1" d="m155.7924777,272.4125773c-2.9960938,0-5.4335938-2.4375-5.4335938-5.4335938s2.4375-5.434082,5.4335938-5.434082,5.4335938,2.4375,5.4335938,5.4335938-2.4375,5.434082-5.4335938,5.434082Z"/><path class="cls-1" d="m155.7925387,262.9299113c2.236084,0,4.0488281,1.8126831,4.0488281,4.0488281s-1.8127441,4.0488281-4.0488281,4.0488281h-.000061c-2.236084,0-4.0488281-1.8126831-4.0488281-4.0488281s1.8127441-4.0488281,4.0488281-4.0488281h.000061m0-2.769043c-3.7593994,0-6.8179321,3.0584717-6.8179321,6.8178711s3.0584717,6.8178711,6.8178711,6.8178711,6.8179321-3.0584717,6.8179321-6.8178711-3.0584717-6.8178711-6.8178711-6.8178711h0Z"/><path class="cls-1" d="m94.3095675,292.4125773c-2.9960938,0-5.4335938-2.4375-5.4335938-5.4335938s2.4375-5.434082,5.4335938-5.434082,5.4335938,2.4375,5.4335938,5.4335938-2.4375,5.434082-5.4335938,5.434082Z"/><path class="cls-1" d="m94.3097507,282.9299113c2.236084,0,4.0488281,1.8126831,4.0488281,4.0488281s-1.8127441,4.0488281-4.0488281,4.0488281c-2.236145,0-4.0488281-1.8126831-4.0488281-4.0488281s1.8126831-4.0488281,4.0488281-4.0488281m0-2.769043c-3.7593994,0-6.8178711,3.0584717-6.8178711,6.8178711s3.0584717,6.8178711,6.8178711,6.8178711,6.8178711-3.0584717,6.8178711-6.8178711-3.0584717-6.8178711-6.8178711-6.8178711h0Z"/><path class="cls-1" d="m119.1372043,292.4125773c-2.9960938,0-5.4335938-2.4375-5.4335938-5.4335938s2.4375-5.434082,5.4335938-5.434082,5.4335938,2.4375,5.4335938,5.4335938-2.4375,5.434082-5.4335938,5.434082Z"/><path class="cls-1" d="m119.1373263,282.9299113c2.236145,0,4.0488281,1.8126831,4.0488281,4.0488281s-1.8126831,4.0488281-4.0488281,4.0488281c-2.236084,0-4.0488281-1.8126831-4.0488281-4.0488281s1.8127441-4.0488281,4.0488281-4.0488281m0-2.769043c-3.7593994,0-6.8178711,3.0584717-6.8178711,6.8178711s3.0584717,6.8178711,6.8178711,6.8178711,6.8178711-3.0584717,6.8178711-6.8178711-3.0584717-6.8178711-6.8178711-6.8178711h0Z"/><path class="cls-1" d="m143.964841,292.4125773c-2.9960938,0-5.4335938-2.4375-5.4335938-5.4335938s2.4375-5.434082,5.4335938-5.434082,5.4335938,2.4375,5.4335938,5.4335938-2.4375,5.434082-5.4335938,5.434082Z"/><path class="cls-1" d="m143.964902,282.9299113c2.236145,0,4.0488892,1.8126831,4.0488892,4.0488281s-1.8127441,4.0488281-4.0488892,4.0488281c-2.236084,0-4.0488281-1.8126831-4.0488281-4.0488281s1.8127441-4.0488281,4.0488281-4.0488281m0-2.769043c-3.7593994,0-6.8178711,3.0584717-6.8178711,6.8178711s3.0584717,6.8178711,6.8178711,6.8178711,6.8179321-3.0584717,6.8179321-6.8178711-3.0585327-6.8178711-6.8179321-6.8178711h0Z"/><path class="cls-1" d="m106.72363,312.4125773c-2.9960938,0-5.4335938-2.4375-5.4335938-5.4335938s2.4375-5.434082,5.4335938-5.434082,5.4335938,2.4375,5.4335938,5.4335938-2.4375,5.434082-5.4335938,5.434082Z"/><path class="cls-1" d="m106.723569,302.9299113c2.236084,0,4.0488281,1.8126831,4.0488281,4.0488281s-1.8127441,4.0488281-4.0488281,4.0488281h-.000061c-2.236084,0-4.0488281-1.8126831-4.0488281-4.0488281s1.8127441-4.0488281,4.0488281-4.0488281h.000061m0-2.769043c-3.7593994,0-6.8179321,3.0584717-6.8179321,6.8178711s3.0584717,6.8178711,6.8178711,6.8178711,6.8179321-3.0584717,6.8179321-6.8178711-3.0584717-6.8178711-6.8178711-6.8178711h0Z"/><path class="cls-1" d="m131.5512668,312.4125773c-2.9960938,0-5.4335938-2.4375-5.4335938-5.4335938s2.4375-5.434082,5.4335938-5.434082,5.4335938,2.4375,5.4335938,5.4335938-2.4375,5.434082-5.4335938,5.434082Z"/><path class="cls-1" d="m131.5511447,302.9299113c2.236084,0,4.0488281,1.8126831,4.0488281,4.0488281s-1.8127441,4.0488281-4.0488281,4.0488281c-2.236145,0-4.0488892-1.8126831-4.0488892-4.0488281s1.8127441-4.0488281,4.0488892-4.0488281m0-2.769043c-3.7593994,0-6.8179321,3.0584717-6.8179321,6.8178711s3.0585327,6.8178711,6.8179321,6.8178711,6.8178711-3.0584717,6.8178711-6.8178711-3.0584717-6.8178711-6.8178711-6.8178711h0Z"/></svg>