<?xml version="1.0" encoding="UTF-8"?><svg id="Calque_1" xmlns="http://www.w3.org/2000/svg" viewBox="0 0 240 330"><defs><style>.cls-1{fill:#fff;stroke-width:0px;}</style></defs><path class="cls-1" d="m181.3829671,132.5682046l-12.9034576-7.4500322,12.9034576-7.4495745c3.6302774-2.0956934,4.8742378-6.73789,2.7780867-10.3681674-2.0959223-3.6302774-6.73789-4.8742378-10.3681674-2.7785444l-12.9034576,7.4500322v-14.8996067c0-4.1918445-3.3982362-7.5900807-7.5900807-7.5900807h-.0002288c-4.1918445,0-7.5900807,3.3982362-7.5900807,7.5900807v14.8996067l-12.9032287-7.4500322c-3.6302774-2.0956934-8.272474-.851733-10.3681674,2.7785444-2.0961511,3.6302774-.8521907,8.272474,2.7780867,10.3681674l12.9032287,7.4495745-12.9032287,7.4500322c-3.6302774,2.0961511-4.8742378,6.73789-2.7780867,10.3681674,2.0956934,3.6302774,6.73789,4.8742378,10.3681674,2.7780867l12.9032287-7.4495745v14.8996067c0,4.1918445,3.3982362,7.5900807,7.5900807,7.5900807h.0002288c4.1918445,0,7.5900807-3.3982362,7.5900807-7.5900807v-14.8996067l12.9034576,7.4495745c3.6302774,2.0961511,8.2722452.8521907,10.3681674-2.7780867,2.0961511-3.6302774.8521907-8.2720163-2.7780867-10.3681674Z"/><path class="cls-1" d="m114.7842709,212.331402l-12.9034576-7.4500322,12.9034576-7.4495745c3.6302774-2.0956934,4.8742378-6.73789,2.7780867-10.3681674-2.0959223-3.6302774-6.73789-4.8742378-10.3681674-2.7785444l-12.9034576,7.4500322v-14.8996067c0-4.1918445-3.3982362-7.5900807-7.5900807-7.5900807h-.0002288c-4.1918445,0-7.5900807,3.3982362-7.5900807,7.5900807v14.8996067l-12.9032287-7.4500322c-3.6302774-2.0956934-8.272474-.851733-10.3681674,2.7785444-2.0961511,3.6302774-.8521907,8.272474,2.7780867,10.3681674l12.9032287,7.4495745-12.9032287,7.4500322c-3.6302774,2.0961511-4.8742378,6.73789-2.7780867,10.3681674,2.0956934,3.6302774,6.73789,4.8742378,10.3681674,2.7780867l12.9032287-7.4495745v14.8996067c0,4.1918445,3.3982362,7.5900807,7.5900807,7.5900807h.0002288c4.1918445,0,7.5900807-3.3982362,7.5900807-7.5900807v-14.8996067l12.9034576,7.4495745c3.6302774,2.0961511,8.2722452.8521907,10.3681674-2.7780867,2.0961511-3.6302774.8521907-8.2720163-2.7780867-10.3681674Z"/></svg>