<?xml version="1.0" encoding="UTF-8"?><svg id="Calque_1" xmlns="http://www.w3.org/2000/svg" viewBox="0 0 240 330"><defs><style>.cls-1{fill:#fff;stroke-width:0px;}</style></defs><path id="Neige_forte" class="cls-1" d="m229.1599369,217.5601606l-19.0344753-10.5731647,15.022647-4.2897038c3.7478465-1.0732943,5.9222227-4.9843927,4.8489284-8.7322392-1.0732943-3.7547934-4.9809193-5.9222227-8.7357126-4.8524018l-28.6003411,8.1730147-18.0445436-10.0243605,15.0191736-4.2931773c3.7513199-1.0698209,5.9222227-4.9809193,4.8524018-8.7322392-1.0732943-3.7513199-4.9809193-5.9222227-8.7357126-4.8524018l-28.6003411,8.1764881-22.6086496-12.5599749,22.6051761-12.5599749,28.6038146,8.1730147c3.7547934,1.0732943,7.6624183-1.0976084,8.7357126-4.8524018,1.0698209-3.7513199-1.1010819-7.6624183-4.8524018-8.7322392l-15.0191736-4.2931773,18.0410702-10.0208871,28.6038146,8.1730147c3.7547934,1.0698209,7.6624183-1.0976084,8.7357126-4.8558753,1.0732943-3.7478465-1.1010819-7.6589449-4.8524018-8.7322392l-15.0191736-4.2897038,19.0344753-10.5731647c3.4074489-1.8930272,4.6405217-6.1931514,2.7440211-9.6040737-1.8965006-3.4143958-6.1966248-4.6405217-9.6040737-2.7440211l-19.0344753,10.5731647,4.2931773-15.0191736c1.0698209-3.7513199-1.1010819-7.6624183-4.8524018-8.7357126-3.7513199-1.0698209-7.6624183,1.1010819-8.7357126,4.8558753l-8.1695412,28.6003411-18.0445436,10.0243605,4.2931773-15.0191736c1.0698209-3.7513199-1.1045553-7.6624183-4.8524018-8.7322392-3.7547934-1.0698209-7.6624183,1.1010819-8.7357126,4.8524018l-8.1695412,28.6003411-23.2303961,12.9073194v-26.5683762l21.0351792-21.0351792c2.7613883-2.7613883,2.7613883-7.2317112,0-9.9930995-2.7579148-2.7579148-7.2317112-2.7579148-9.9896261,0l-11.0455532,11.0455532v-20.6392066l21.0351792-21.0351792c2.7613883-2.7613883,2.7613883-7.2317112,0-9.9930995-2.7579148-2.7579148-7.2317112-2.7579148-9.9896261,0l-11.0455532,11.0455532v-21.7715495c0-3.9006781-3.1608344-7.0649859-7.0615125-7.0649859-3.9041515,0-7.0649859,3.1643078-7.0649859,7.0649859v21.7715495l-11.0455532-11.0455532c-2.7579148-2.7579148-7.2317112-2.7579148-9.9896261,0-2.7579148,2.7613883-2.7579148,7.2317112,0,9.9930995l21.0351792,21.0317058v20.64268l-11.0455532-11.0455532c-2.7579148-2.7579148-7.2317112-2.7579148-9.9896261,0-2.7579148,2.7613883-2.7579148,7.2317112,0,9.9930995l21.0351792,21.0317058v26.5683762l-23.2269227-12.9038459-8.1695412-28.6003411c-1.0732943-3.7513199-4.9809193-5.9222227-8.7357126-4.8524018-3.7478465,1.0698209-5.9222227,4.9809193-4.8524018,8.7322392l4.2931773,15.0191736-18.0445436-10.0243605-8.1695412-28.6003411c-1.0767678-3.7547934-4.9843927-5.9256961-8.7357126-4.8558753-3.7513199,1.0732943-5.9222227,4.9843927-4.8524018,8.7357126l4.2931773,15.0191736-19.0344753-10.5731647c-3.4074489-1.8965006-7.7075731-.6703748-9.6040737,2.7440211-1.8965006,3.4109224-.6634279,7.7110466,2.7440211,9.6040737l19.0344753,10.5731647-15.022647,4.2897038c-3.7478465,1.0732943-5.9222227,4.9843927-4.8489284,8.7322392,1.0732943,3.7582668,4.9809193,5.9256961,8.7357126,4.8558753l28.6038146-8.1730147,18.0410702,10.0208871-15.0191736,4.2931773c-3.7513199,1.0698209-5.9222227,4.9809193-4.8524018,8.7322392,1.0732943,3.7547934,4.9809193,5.9256961,8.7357126,4.8524018l28.6038146-8.1730147,22.6051761,12.5599749-22.6086496,12.5599749-28.6003411-8.1764881c-3.7547934-1.0698209-7.6624183,1.1010819-8.7357126,4.8524018-1.0732943,3.7513199,1.1010819,7.6624183,4.8524018,8.7322392l15.0191736,4.2931773-18.0445436,10.0243605-28.6003411-8.1730147c-3.7547934-1.0698209-7.6624183,1.0976084-8.7357126,4.8524018-1.0732943,3.7478465,1.1010819,7.6589449,4.8489284,8.7322392l15.0191736,4.2897038-19.0310018,10.5731647c-3.4109224,1.8965006-4.6405217,6.1966248-2.7440211,9.6075472,1.8930272,3.4109224,6.1966248,4.6370483,9.6040737,2.7440211l19.0310018-10.5731647-4.2897038,15.0191736c-1.0732943,3.7478465,1.1010819,7.6589449,4.8524018,8.7322392,3.7547934,1.0732943,7.6624183-1.0976084,8.7357126-4.8524018l8.1730147-28.6038146,18.0410702-10.0243605-4.2931773,15.0191736c-1.0698209,3.7513199,1.1010819,7.6624183,4.8524018,8.7322392,3.7547934,1.0732943,7.6624183-1.0976084,8.7357126-4.8524018l8.1730147-28.6038146,23.2234492-12.9003725v26.5718496l-21.0351792,21.0317058c-2.7579148,2.7613883-2.7579148,7.2317112,0,9.9930995,2.7579148,2.7579148,7.2317112,2.7579148,9.9896261,0l11.0455532-11.0455532v20.64268l-21.0351792,21.0317058c-2.7579148,2.7613883-2.7579148,7.2317112,0,9.9930995,2.7579148,2.7579148,7.2317112,2.7579148,9.9896261,0l11.0455532-11.0455532v21.7715495c0,3.9006781,3.1608344,7.0649859,7.0649859,7.0649859,3.9006781,0,7.0615125-3.1643078,7.0615125-7.0649859v-21.7715495l11.0455532,11.0455532c2.7579148,2.7579148,7.2317112,2.7579148,9.9896261,0,2.7613883-2.7613883,2.7613883-7.2317112,0-9.9930995l-21.0351792-21.0351792v-20.6392066l11.0455532,11.0455532c2.7579148,2.7579148,7.2317112,2.7579148,9.9896261,0,2.7613883-2.7613883,2.7613883-7.2317112,0-9.9930995l-21.0351792-21.0351792v-26.5718496l23.2269227,12.9038459,8.1730147,28.6038146c1.0732943,3.7547934,4.9809193,5.9256961,8.7357126,4.8524018,3.7513199-1.0698209,5.9222227-4.9809193,4.8524018-8.7322392l-4.2931773-15.0191736,18.0410702,10.0243605,8.1730147,28.6038146c1.0732943,3.7547934,4.9809193,5.9256961,8.7357126,4.8524018,3.7513199-1.0732943,5.9256961-4.9843927,4.8524018-8.7322392l-4.2897038-15.0191736,19.0310018,10.5731647c3.4074489,1.8930272,7.7110466.6669013,9.6040737-2.7440211,1.8965006-3.4109224.6669013-7.7110466-2.7440211-9.6075472Z"/></svg>