<?xml version="1.0" encoding="UTF-8"?><svg id="Calque_1" xmlns="http://www.w3.org/2000/svg" xmlns:xlink="http://www.w3.org/1999/xlink" viewBox="0 0 240 330"><defs><style>.cls-1{fill:url(#Nouvelle_nuance_de_dégradé_1-4);}.cls-1,.cls-2,.cls-3,.cls-4{stroke-width:0px;}.cls-2{fill:url(#Nouvelle_nuance_de_dégradé_1-3);}.cls-3{fill:url(#Nouvelle_nuance_de_dégradé_1);}.cls-4{fill:url(#Nouvelle_nuance_de_dégradé_1-2);}</style><linearGradient id="Nouvelle_nuance_de_dégradé_1" x1="70.40974" y1="302.4114446" x2="132.0346077" y2="135.6618025" gradientUnits="userSpaceOnUse"><stop offset="0" stop-color="#facc15"/><stop offset="1" stop-color="#fde047"/></linearGradient><linearGradient id="Nouvelle_nuance_de_dégradé_1-2" x1="185.906768" y1="201.2833152" x2="195.7671089" y2="174.6023929" xlink:href="#Nouvelle_nuance_de_dégradé_1"/><linearGradient id="Nouvelle_nuance_de_dégradé_1-3" x1="89.0340813" y1="158.4939935" x2="98.8944221" y2="131.8130712" xlink:href="#Nouvelle_nuance_de_dégradé_1"/><linearGradient id="Nouvelle_nuance_de_dégradé_1-4" x1="158.0545265" y1="110.0994447" x2="173.086074" y2="69.4258457" xlink:href="#Nouvelle_nuance_de_dégradé_1"/></defs><g id="Lune"><path class="cls-3" d="m235.8827586,203.1372016c-18.5931419,42.8412023-61.2388284,72.7756275-110.8848007,72.7756275-66.7830001,0-120.8807166-54.1264286-120.8807166-120.8807166,0-42.1985979,21.6161169-79.3274575,54.3780014-100.9449417-6.4123712,14.7293123-9.9685711,30.9967734-9.9685711,48.1064563,0,66.754288,54.0977165,120.8807166,120.8533717,120.8807166,24.5844022,0,47.4337726-7.3366277,66.5027152-19.9371421Z"/><polygon class="cls-4" points="204.8448796 193.7667727 194.9574281 189.3797375 185.7381461 195.0377065 186.855074 184.2785129 178.6251108 177.2588633 189.2028617 174.9963511 193.3357468 165 198.7562285 174.3608842 209.5404551 175.2024491 202.3127461 183.2503058 204.8448796 193.7667727"/><polygon class="cls-2" points="107.9721929 150.977451 98.0847414 146.5904158 88.8654594 152.2483849 89.9823873 141.4891913 81.7524241 134.4695416 92.330175 132.2070295 96.46306 122.2106783 101.8835418 131.5715626 112.6677684 132.4131274 105.4400594 140.4609842 107.9721929 150.977451"/><polygon class="cls-1" points="186.9246364 98.640889 171.8517602 91.953095 157.7974717 100.5783578 159.5001668 84.1765587 146.9540405 73.4754888 163.0792401 70.0264134 169.3795961 54.7875257 177.6428224 69.057679 194.0827829 70.3405984 183.064538 82.6091135 186.9246364 98.640889"/></g></svg>