<?xml version="1.0" encoding="UTF-8"?><svg id="Calque_1" xmlns="http://www.w3.org/2000/svg" xmlns:xlink="http://www.w3.org/1999/xlink" viewBox="0 0 240 330"><defs><style>.cls-1{fill:url(#Nouvelle_nuance_de_dégradé_1-4);}.cls-1,.cls-2,.cls-3,.cls-4,.cls-5,.cls-6{stroke-width:0px;}.cls-2{fill:url(#Nouvelle_nuance_de_dégradé_1-3);}.cls-3{fill:#38bdf8;}.cls-4{fill:#172554;}.cls-5{fill:url(#Nouvelle_nuance_de_dégradé_1);}.cls-6{fill:url(#Nouvelle_nuance_de_dégradé_1-2);}</style><linearGradient id="Nouvelle_nuance_de_dégradé_1" x1="140.7423671" y1="145.1165038" x2="176.0970944" y2="49.4507712" gradientUnits="userSpaceOnUse"><stop offset="0" stop-color="#facc15"/><stop offset="1" stop-color="#fde047"/></linearGradient><linearGradient id="Nouvelle_nuance_de_dégradé_1-2" x1="207.0040254" y1="87.0984087" x2="212.6609895" y2="71.7913295" xlink:href="#Nouvelle_nuance_de_dégradé_1"/><linearGradient id="Nouvelle_nuance_de_dégradé_1-3" x1="151.4273151" y1="62.5497995" x2="157.0842792" y2="47.2427203" xlink:href="#Nouvelle_nuance_de_dégradé_1"/><linearGradient id="Nouvelle_nuance_de_dégradé_1-4" x1="191.0249501" y1="34.7854222" x2="199.6486808" y2="11.4506216" xlink:href="#Nouvelle_nuance_de_dégradé_1"/></defs><g id="Lune"><path class="cls-5" d="m235.6756897,88.1619996c-10.6670487,24.5783736-35.1332531,41.752016-63.615583,41.752016-38.3139931,0-69.3503276-31.052807-69.3503276-69.3503276,0-24.2097058,12.4013559-45.5108584,31.1971365-57.9129987-3.6788336,8.4503357-5.7190567,17.7831208-5.7190567,27.599096,0,38.2975207,31.0363346,69.3503276,69.3346397,69.3503276,14.1042872,0,27.2131715-4.2090877,38.1531912-11.4381134Z"/><polygon class="cls-6" points="217.8689862 82.7861024 212.1964685 80.2692218 206.9072856 83.5152483 207.5480769 77.3426045 202.8264748 73.3153699 208.8950233 72.0173468 211.2660957 66.2823525 214.3758736 71.6527739 220.562879 72.135587 216.416279 76.7527131 217.8689862 82.7861024"/><polygon class="cls-2" points="162.2922759 58.2374931 156.6197583 55.7206125 151.3305753 58.966639 151.9713666 52.7939953 147.2497645 48.7667607 153.318313 47.4687376 155.6893854 41.7337432 158.7991633 47.1041646 164.9861688 47.5869778 160.8395687 52.2041038 162.2922759 58.2374931"/><polygon class="cls-1" points="207.5879854 28.2115483 198.9405441 24.3747022 190.8774755 29.3230911 191.8543266 19.9132351 184.6565039 13.7739374 193.9076724 11.7951726 197.5222419 3.0524891 202.2629273 11.2394012 211.6946769 11.9754233 205.3734132 19.0139781 207.5879854 28.2115483"/></g><path class="cls-4" d="m51.2485352,237.5717773c-21.3652344,0-38.746582-17.3813477-38.746582-38.746582,0-14.9716797,8.7724609-28.7519531,22.3486328-35.1069336l4.9008789-2.2939453-.2041016-5.6416016c-.0239258-.6630859-.0498047-1.3261719-.0498047-1.9951172,0-33.8339844,27.5253906-61.359375,61.359375-61.359375,24.1782227,0,46.1772461,14.2817383,56.0444336,36.3847656l2.605957,5.8378906,6.2944336-1.1206055c3.1049805-.5522461,6.2202148-.8325195,9.2592773-.8325195,28.9140625,0,52.4370117,23.5229492,52.4370117,52.4370117s-23.5229492,52.4370117-52.4370117,52.4370117H51.2485352Z"/><path class="cls-3" d="m100.8570557,100.6055603c20.9558105,0,40.0234375,12.3806458,48.5770264,31.5411682l5.2127075,11.6767578,12.5894165-2.2420654c2.6307983-.4685059,5.2634277-.7060547,7.8247681-.7060547,24.4047852,0,44.2595215,19.8547058,44.2595215,44.2594604,0,24.4048462-19.8547363,44.2595215-44.2595215,44.2595215H51.2484131c-16.8557739,0-30.5689087-13.7131348-30.5689087-30.5689087,0-11.8121948,6.9232788-22.6853638,17.6377563-27.7006836l9.7976685-4.5859985-.3864136-10.8109131-.0095825-.2651978c-.022583-.6228027-.0438843-1.2109985-.0438843-1.6750183,0-29.324707,23.8573608-53.1820679,53.1820068-53.1820679m0-16.3551331c-38.4042969,0-69.5371094,31.1329346-69.5371094,69.5372009,0,.8466492.0338135,1.6850891.0638428,2.5244446-15.9830322,7.4812622-27.0594482,23.7000122-27.0594482,42.5133667,0,25.9154053,21.008667,46.9240723,46.9240723,46.9240723h123.812561c33.4766235,0,60.6146851-27.1380615,60.6146851-60.6146851,0-33.4764709-27.1380615-60.614624-60.6146851-60.614624-3.6505737,0-7.2194214.3409424-10.6923218.9594421-10.8436279-24.2903442-35.1918945-41.2292175-63.5115967-41.2292175h0Z"/></svg>