<?xml version="1.0" encoding="UTF-8"?><svg id="Calque_1" xmlns="http://www.w3.org/2000/svg" viewBox="0 0 240 330"><defs><style>.cls-1{fill:#38bdf8;}.cls-1,.cls-2{stroke-width:0px;}.cls-2{fill:#172554;}</style></defs><path class="cls-1" d="m100.8570557,100.6055908c20.9558105,0,40.0234375,12.3807373,48.5770264,31.5411377l5.2126465,11.6765137,12.5892334-2.2416992c2.6309814-.4685059,5.2636719-.7060547,7.8250732-.7060547,24.4047852,0,44.2596436,19.8546143,44.2596436,44.2593994s-19.8548584,44.2595215-44.2596436,44.2595215H51.2484131c-16.8557129,0-30.5689697-13.7131348-30.5689697-30.5689697,0-11.8122559,6.9233398-22.6854248,17.6379395-27.7006836l9.7974854-4.5860596-.3863525-10.8109131-.0096436-.2653809c-.0224609-.6225586-.0438232-1.2108154-.0438232-1.6748047,0-29.324707,23.8574219-53.1820068,53.1820068-53.1820068m0-16.3551025c-38.4042969,0-69.5371094,31.1328125-69.5371094,69.5371094,0,.8466797.0338135,1.6850586.0638428,2.5244141-15.9830322,7.4813232-27.0594482,23.7000732-27.0594482,42.5134277,0,25.9154053,21.008667,46.9240723,46.9240723,46.9240723h123.8126221c33.4765625,0,60.6147461-27.1380615,60.6147461-60.614624s-27.1381836-60.614624-60.6147461-60.614624c-3.6506348,0-7.2194824.3409424-10.6923828.9593506-10.8436279-24.2902832-35.1918945-41.229126-63.5115967-41.229126h0Z"/><path class="cls-1" d="m63.7832031,273.5019531c-4.5595703,0-8.5693359-3.078125-9.7509766-7.4863281l-11.0947266-41.40625c-1.4414062-5.3789062,1.7617188-10.9267578,7.140625-12.3681641.8554688-.2294922,1.7363281-.3457031,2.6171875-.3457031,4.5605469,0,8.5703125,3.078125,9.7509766,7.4863281l11.0947266,41.40625c.6982422,2.6054688.3398438,5.3271484-1.0087891,7.6630859s-3.5263672,4.0068359-6.1318359,4.7050781c-.8554688.2294922-1.7363281.3457031-2.6171875.3457031Z"/><path class="cls-2" d="m52.6958008,216.1936035c2.5611572-.0001221,4.9047852,1.7091064,5.5992432,4.3006592l11.0947266,41.4061279c.8291016,3.0943604-1.0072021,6.2750244-4.1015625,7.104126-.5028076.1347656-1.0081787.1990967-1.5050049.1990967-2.5611572,0-4.9046631-1.7091064-5.5991211-4.3006592l-11.0948486-41.4061279c-.8291016-3.0943604,1.0072021-6.2750244,4.1015625-7.104126h.0001221c.5028076-.1347656,1.0080566-.1990967,1.5048828-.1990967m.0002441-8.5958252h-.0004883c-1.2567139.0001221-2.5114746.1656494-3.7296143.4920654-3.7141113.9951172-6.8186035,3.3771973-8.741333,6.7075195-1.9227295,3.3302002-2.4335938,7.2097168-1.4383545,10.9240723l11.0949707,41.40625c1.6834717,6.2833252,7.4001465,10.6717529,13.9019775,10.6717529,1.2565918,0,2.5114746-.1655273,3.7298584-.4920654,7.6674805-2.0543213,12.2341309-9.9638672,10.1796875-17.6315918l-11.0947266-41.40625c-1.68396-6.2834473-7.4006348-10.6717529-13.9019775-10.6717529h0Z"/><path class="cls-1" d="m88.6035156,282.5625c-4.5595703,0-8.5693359-3.078125-9.75-7.4863281l-11.0957031-41.40625c-1.4414062-5.3789062,1.7617188-10.9267578,7.140625-12.3681641.8574219-.2294922,1.7373047-.3457031,2.6171875-.3457031,4.5605469,0,8.5693359,3.078125,9.7509766,7.4863281l11.0947266,41.40625c.6982422,2.6054688.3398438,5.3271484-1.0087891,7.6630859s-3.5263672,4.0068359-6.1318359,4.7050781c-.8554688.2294922-1.7363281.3457031-2.6171875.3457031Z"/><path class="cls-2" d="m77.5161133,225.2543945c2.5611572-.0001221,4.9049072,1.7091064,5.5992432,4.3006592l11.0948486,41.4061279c.8291016,3.0944824-1.0072021,6.2750244-4.1016846,7.104248-.5028076.1347656-1.0080566.1990967-1.5048828.1990967-2.5611572,0-4.9047852-1.7091064-5.5992432-4.3006592l-11.0947266-41.40625c-.8292236-3.0943604,1.0072021-6.2750244,4.1015625-7.104126.5028076-.1347656,1.0080566-.1990967,1.5048828-.1990967m.0002441-8.5958252h-.0004883c-1.2567139.0001221-2.5114746.1656494-3.7296143.4920654-3.7141113.9951172-6.8186035,3.3773193-8.741333,6.7075195-1.9227295,3.3303223-2.4334717,7.2099609-1.4381104,10.9244385l11.0946045,41.4060059c1.6835938,6.2833252,7.4003906,10.6717529,13.9022217,10.6717529,1.2563477,0,2.5111084-.1655273,3.7293701-.4919434,7.6679688-2.0546875,12.2344971-9.9643555,10.1801758-17.6318359l-11.0948486-41.40625c-1.6835938-6.2833252-7.4002686-10.6717529-13.9019775-10.6717529h0Z"/><path class="cls-1" d="m105.9394531,263.6894531c-4.5595703,0-8.5693359-3.078125-9.7509766-7.4863281l-11.0947266-41.40625c-.6982422-2.6054688-.3398438-5.3271484,1.0087891-7.6630859s3.5263672-4.0068359,6.1318359-4.7050781c.8554688-.2294922,1.7363281-.3457031,2.6171875-.3457031,4.5595703,0,8.5693359,3.078125,9.7509766,7.4863281l11.0947266,41.40625c1.4414062,5.3789062-1.7617188,10.9267578-7.140625,12.3681641-.8554688.2294922-1.7363281.3457031-2.6171875.3457031Z"/><path class="cls-2" d="m94.8515625,206.3811035c2.5611572-.0001221,4.9049072,1.7091064,5.5992432,4.3006592l11.0948486,41.4061279c.8291016,3.0944824-1.0072021,6.2750244-4.1016846,7.104248-.5028076.1347656-1.0080566.1990967-1.5048828.1990967-2.5611572,0-4.9047852-1.7091064-5.5992432-4.3006592l-11.0947266-41.40625c-.8292236-3.0943604,1.0072021-6.2749023,4.1015625-7.104126.5028076-.1347656,1.0080566-.1990967,1.5048828-.1990967m.0002441-8.5958252h-.0004883c-1.2567139.0001221-2.5114746.1656494-3.7296143.4920654-3.7142334.9953613-6.8186035,3.3774414-8.741333,6.7075195-1.9227295,3.3303223-2.4334717,7.2099609-1.4381104,10.9244385l11.0946045,41.4060059c1.6835938,6.2833252,7.4003906,10.6717529,13.9022217,10.6717529,1.2563477,0,2.5111084-.1655273,3.7293701-.4919434,7.6679688-2.0546875,12.2344971-9.9643555,10.1801758-17.6318359l-11.0948486-41.40625c-1.6835938-6.2833252-7.4002686-10.6717529-13.9019775-10.6717529h0Z"/><rect class="cls-1" x="144.1633432" y="263.0679138" width="11.6010549" height="54.467835" rx="5.8005223" ry="5.8005223" transform="translate(-70.0259247 48.7054619) rotate(-15.0000419)"/><rect class="cls-1" x="168.9837173" y="272.1287336" width="11.601055" height="54.4678349" rx="5.8005203" ry="5.8005203" transform="translate(-71.5252219 55.4381224) rotate(-15.0000224)"/><rect class="cls-1" x="186.319152" y="253.255447" width="11.6010549" height="54.4678349" rx="5.8005213" ry="5.8005213" transform="translate(-66.0497908 59.2818161) rotate(-15.0000312)"/></svg>