<?xml version="1.0" encoding="UTF-8"?><svg id="Calque_1" xmlns="http://www.w3.org/2000/svg" viewBox="0 0 240 330"><defs><style>.cls-1{fill:#38bdf8;stroke-width:0px;}</style></defs><path class="cls-1" d="m100.8570862,100.6055908c20.95578,0,40.023407,12.3807373,48.5769958,31.5411377l5.2126465,11.6765137,12.5892639-2.2416992c2.6309509-.4685059,5.2636414-.7060547,7.8250122-.7060547,24.4047852,0,44.259552,19.8546143,44.259552,44.2593994s-19.8547668,44.2595215-44.259552,44.2595215H51.2484436c-16.8558044,0-30.5690002-13.7131348-30.5690002-30.5689697,0-11.8122559,6.9232788-22.6854248,17.6379089-27.7006836l9.7984314-4.5864258-.3873596-10.8118896-.0092773-.2568359c-.022644-.6251221-.0440674-1.2156982-.0440674-1.6820068,0-29.324707,23.8573608-53.1820068,53.1820068-53.1820068m0-16.3551025c-38.4043579,0-69.5371704,31.1328125-69.5371704,69.5371094,0,.8466797.0338135,1.6850586.0638733,2.5244141-15.9830627,7.4813232-27.0595093,23.7000732-27.0595093,42.5134277,0,25.9154053,21.008728,46.9240723,46.9241638,46.9240723h123.812561c33.4765625,0,60.6147156-27.1380615,60.6147156-60.614624s-27.1381531-60.614624-60.6147156-60.614624c-3.6505737,0-7.2195129.3409424-10.6923523.9593506-10.8436584-24.2902832-35.191864-41.229126-63.5115662-41.229126h0Z"/><circle class="cls-1" cx="68.2202148" cy="266.9785156" r="5.4335937"/><path class="cls-1" d="m68.2203064,262.9299316c2.2361145,0,4.0488281,1.8127441,4.0488281,4.0488281s-1.8127136,4.0488281-4.0488281,4.0488281h-.0000305c-2.2361145,0-4.0488281-1.8127441-4.0488281-4.0488281s1.8127136-4.0488281,4.0488281-4.0488281h.0000305m0-2.769043c-3.7593994,0-6.8179016,3.0584717-6.8179016,6.8178711s3.0584717,6.8178711,6.8178711,6.8178711,6.8179016-3.0584717,6.8179016-6.8178711-3.0584717-6.8178711-6.8178711-6.8178711h0Z"/><circle class="cls-1" cx="93.0478516" cy="266.9785156" r="5.4335937"/><path class="cls-1" d="m93.0478821,262.9299316c2.2361145,0,4.0488281,1.8127441,4.0488281,4.0488281s-1.8127136,4.0488281-4.0488281,4.0488281-4.0488586-1.8127441-4.0488586-4.0488281,1.8127441-4.0488281,4.0488586-4.0488281m0-2.769043c-3.7593994,0-6.8179016,3.0584717-6.8179016,6.8178711s3.0585022,6.8178711,6.8179016,6.8178711,6.8178711-3.0584717,6.8178711-6.8178711-3.0584717-6.8178711-6.8178711-6.8178711h0Z"/><circle class="cls-1" cx="117.8754883" cy="266.9785156" r="5.4335937"/><path class="cls-1" d="m117.8754578,262.9299316c2.2361145,0,4.0488586,1.8127441,4.0488586,4.0488281s-1.8127441,4.0488281-4.0488586,4.0488281-4.0488281-1.8127441-4.0488281-4.0488281,1.8127136-4.0488281,4.0488281-4.0488281m0-2.769043c-3.7593994,0-6.8178711,3.0584717-6.8178711,6.8178711s3.0584717,6.8178711,6.8178711,6.8178711,6.8179016-3.0584717,6.8179016-6.8178711-3.0585022-6.8178711-6.8179016-6.8178711h0Z"/><circle class="cls-1" cx="142.703125" cy="266.9785156" r="5.4335937"/><path class="cls-1" d="m142.703064,262.9299316c2.2361145,0,4.0488281,1.8127441,4.0488281,4.0488281s-1.8127136,4.0488281-4.0488281,4.0488281h-.0000305c-2.236084,0-4.0488281-1.8127441-4.0488281-4.0488281s1.8127441-4.0488281,4.0488281-4.0488281h.0000305m0-2.769043c-3.7593994,0-6.8179016,3.0584717-6.8179016,6.8178711s3.0584717,6.8178711,6.8178711,6.8178711,6.8179016-3.0584717,6.8179016-6.8178711-3.0584717-6.8178711-6.8178711-6.8178711h0Z"/><circle class="cls-1" cx="167.5307617" cy="266.9785156" r="5.4335937"/><path class="cls-1" d="m167.5306396,262.9299316c2.2361145,0,4.0488281,1.8127441,4.0488281,4.0488281s-1.8127136,4.0488281-4.0488281,4.0488281-4.0488586-1.8127441-4.0488586-4.0488281,1.8127441-4.0488281,4.0488586-4.0488281m0-2.769043c-3.7593994,0-6.8179016,3.0584717-6.8179016,6.8178711s3.0585022,6.8178711,6.8179016,6.8178711,6.8178711-3.0584717,6.8178711-6.8178711-3.0584717-6.8178711-6.8178711-6.8178711h0Z"/><circle class="cls-1" cx="81.2202148" cy="286.9785156" r="5.4335937"/><path class="cls-1" d="m81.2203064,282.9299316c2.2361145,0,4.0488281,1.8127441,4.0488281,4.0488281s-1.8127136,4.0488281-4.0488281,4.0488281h-.0000305c-2.2361145,0-4.0488281-1.8127441-4.0488281-4.0488281s1.8127136-4.0488281,4.0488281-4.0488281h.0000305m0-2.769043c-3.7593994,0-6.8179016,3.0584717-6.8179016,6.8178711s3.0584717,6.8178711,6.8178711,6.8178711,6.8179016-3.0584717,6.8179016-6.8178711-3.0584717-6.8178711-6.8178711-6.8178711h0Z"/><circle class="cls-1" cx="106.0478516" cy="286.9785156" r="5.4335937"/><path class="cls-1" d="m106.0478821,282.9299316c2.2361145,0,4.0488281,1.8127441,4.0488281,4.0488281s-1.8127136,4.0488281-4.0488281,4.0488281-4.0488586-1.8127441-4.0488586-4.0488281,1.8127441-4.0488281,4.0488586-4.0488281m0-2.769043c-3.7593994,0-6.8179016,3.0584717-6.8179016,6.8178711s3.0585022,6.8178711,6.8179016,6.8178711,6.8178711-3.0584717,6.8178711-6.8178711-3.0584717-6.8178711-6.8178711-6.8178711h0Z"/><circle class="cls-1" cx="130.8754883" cy="286.9785156" r="5.4335937"/><path class="cls-1" d="m130.8754578,282.9299316c2.2361145,0,4.0488586,1.8127441,4.0488586,4.0488281s-1.8127441,4.0488281-4.0488586,4.0488281-4.0488281-1.8127441-4.0488281-4.0488281,1.8127136-4.0488281,4.0488281-4.0488281m0-2.769043c-3.7593994,0-6.8178711,3.0584717-6.8178711,6.8178711s3.0584717,6.8178711,6.8178711,6.8178711,6.8179016-3.0584717,6.8179016-6.8178711-3.0585022-6.8178711-6.8179016-6.8178711h0Z"/><circle class="cls-1" cx="155.703125" cy="286.9785156" r="5.4335937"/><path class="cls-1" d="m155.703064,282.9299316c2.2361145,0,4.0488281,1.8127441,4.0488281,4.0488281s-1.8127136,4.0488281-4.0488281,4.0488281h-.0000305c-2.236084,0-4.0488281-1.8127441-4.0488281-4.0488281s1.8127441-4.0488281,4.0488281-4.0488281h.0000305m0-2.769043c-3.7593994,0-6.8179016,3.0584717-6.8179016,6.8178711s3.0584717,6.8178711,6.8178711,6.8178711,6.8179016-3.0584717,6.8179016-6.8178711-3.0584717-6.8178711-6.8178711-6.8178711h0Z"/><circle class="cls-1" cx="93.0478516" cy="306.9785156" r="5.4335937"/><path class="cls-1" d="m93.0478821,302.9299316c2.2361145,0,4.0488281,1.8127441,4.0488281,4.0488281s-1.8127136,4.0488281-4.0488281,4.0488281-4.0488586-1.8127441-4.0488586-4.0488281,1.8127441-4.0488281,4.0488586-4.0488281m0-2.769043c-3.7593994,0-6.8179016,3.0584717-6.8179016,6.8178711s3.0585022,6.8178711,6.8179016,6.8178711,6.8178711-3.0584717,6.8178711-6.8178711-3.0584717-6.8178711-6.8178711-6.8178711h0Z"/><circle class="cls-1" cx="117.8754883" cy="306.9785156" r="5.4335937"/><path class="cls-1" d="m117.8754578,302.9299316c2.2361145,0,4.0488586,1.8127441,4.0488586,4.0488281s-1.8127441,4.0488281-4.0488586,4.0488281-4.0488281-1.8127441-4.0488281-4.0488281,1.8127136-4.0488281,4.0488281-4.0488281m0-2.769043c-3.7593994,0-6.8178711,3.0584717-6.8178711,6.8178711s3.0584717,6.8178711,6.8178711,6.8178711,6.8179016-3.0584717,6.8179016-6.8178711-3.0585022-6.8178711-6.8179016-6.8178711h0Z"/><circle class="cls-1" cx="142.703125" cy="306.9785156" r="5.4335937"/><path class="cls-1" d="m142.703064,302.9299316c2.2361145,0,4.0488281,1.8127441,4.0488281,4.0488281s-1.8127136,4.0488281-4.0488281,4.0488281h-.0000305c-2.236084,0-4.0488281-1.8127441-4.0488281-4.0488281s1.8127441-4.0488281,4.0488281-4.0488281h.0000305m0-2.769043c-3.7593994,0-6.8179016,3.0584717-6.8179016,6.8178711s3.0584717,6.8178711,6.8178711,6.8178711,6.8179016-3.0584717,6.8179016-6.8178711-3.0584717-6.8178711-6.8178711-6.8178711h0Z"/></svg>