<?xml version="1.0" encoding="UTF-8"?><svg id="Calque_1" xmlns="http://www.w3.org/2000/svg" xmlns:xlink="http://www.w3.org/1999/xlink" viewBox="0 0 240 330"><defs><style>.cls-1{fill:url(#Nouvelle_nuance_de_dégradé_1-8);}.cls-1,.cls-2,.cls-3,.cls-4,.cls-5,.cls-6,.cls-7,.cls-8,.cls-9,.cls-10,.cls-11,.cls-12{stroke-width:0px;}.cls-2{fill:url(#Nouvelle_nuance_de_dégradé_1-5);}.cls-3{fill:url(#Nouvelle_nuance_de_dégradé_1-4);}.cls-4{fill:url(#Nouvelle_nuance_de_dégradé_1-9);}.cls-5{fill:url(#Nouvelle_nuance_de_dégradé_1-3);}.cls-6{fill:url(#Nouvelle_nuance_de_dégradé_1-10);}.cls-7{fill:#38bdf8;}.cls-8{fill:url(#Nouvelle_nuance_de_dégradé_1-6);}.cls-9{fill:#172554;}.cls-10{fill:url(#Nouvelle_nuance_de_dégradé_1-7);}.cls-11{fill:url(#Nouvelle_nuance_de_dégradé_1);}.cls-12{fill:url(#Nouvelle_nuance_de_dégradé_1-2);}</style><linearGradient id="Nouvelle_nuance_de_dégradé_1" x1="114.9280346" y1="166.8455345" x2="150.5103015" y2="70.5641066" gradientUnits="userSpaceOnUse"><stop offset="0" stop-color="#facc15"/><stop offset="1" stop-color="#fde047"/></linearGradient><linearGradient id="Nouvelle_nuance_de_dégradé_1-2" x1="51.045442" y1="155.0938603" x2="91.7995606" y2="44.8180099" xlink:href="#Nouvelle_nuance_de_dégradé_1"/><linearGradient id="Nouvelle_nuance_de_dégradé_1-3" x1="34.8403602" y1="149.1050257" x2="75.5944788" y2="38.8291753" xlink:href="#Nouvelle_nuance_de_dégradé_1"/><linearGradient id="Nouvelle_nuance_de_dégradé_1-4" x1="61.8541536" y1="159.0883842" x2="102.6082723" y2="48.8125337" xlink:href="#Nouvelle_nuance_de_dégradé_1"/><linearGradient id="Nouvelle_nuance_de_dégradé_1-5" x1="106.1027509" y1="175.4411267" x2="146.8568696" y2="65.1652762" xlink:href="#Nouvelle_nuance_de_dégradé_1"/><linearGradient id="Nouvelle_nuance_de_dégradé_1-6" x1="150.6822778" y1="191.9161692" x2="191.4363964" y2="81.6403187" xlink:href="#Nouvelle_nuance_de_dégradé_1"/><linearGradient id="Nouvelle_nuance_de_dégradé_1-7" x1="184.2765483" y1="204.3314431" x2="225.0306669" y2="94.0555926" xlink:href="#Nouvelle_nuance_de_dégradé_1"/><linearGradient id="Nouvelle_nuance_de_dégradé_1-8" x1="177.823761" y1="201.9467173" x2="218.5778796" y2="91.6708669" xlink:href="#Nouvelle_nuance_de_dégradé_1"/><linearGradient id="Nouvelle_nuance_de_dégradé_1-9" x1="138.142564" y1="187.2819271" x2="178.8966826" y2="77.0060767" xlink:href="#Nouvelle_nuance_de_dégradé_1"/><linearGradient id="Nouvelle_nuance_de_dégradé_1-10" x1="93.3433484" y1="170.7256953" x2="134.097467" y2="60.4498448" xlink:href="#Nouvelle_nuance_de_dégradé_1"/></defs><g id="Soleil"><circle class="cls-11" cx="141.453197" cy="95.0715637" r="55.5737999"/><polygon class="cls-12" points="70.0633264 98.2397244 59.8105259 108.1604793 49.5577253 118.0812342 63.2757646 122.0000706 76.9938039 125.9188579 73.5285652 112.0793157 70.0633264 98.2397244"/><polygon class="cls-5" points="72.2466459 77.2675109 78.4880341 64.4383482 84.7294222 51.6092347 70.4983598 52.6185828 56.2673465 53.6279801 64.2569716 65.4477455 72.2466459 77.2675109"/><polygon class="cls-3" points="125.9369248 25.3163833 114.3864892 16.9420645 102.8360535 8.5677457 101.3589143 22.7578488 99.8817751 36.9480009 112.90935 31.1321675 125.9369248 25.3163833"/><polygon class="cls-2" points="174.4046915 31.6622325 170.9395018 17.8226903 167.4742631 3.983099 157.2214625 13.903903 146.9686619 23.8246579 160.6866521 27.7434452 174.4046915 31.6622325"/><polygon class="cls-8" points="219.9367932 42.0197397 205.7057307 43.0291369 191.4747174 44.0384851 199.4643917 55.8582505 207.4540168 67.6780159 213.695405 54.8489024 219.9367932 42.0197397"/><polygon class="cls-10" points="224.125254 96.5055335 212.5748183 88.1312147 211.0976792 102.3213177 209.6204909 116.5114208 222.6480657 110.6956365 235.6756897 104.8798522 224.125254 96.5055335"/><polygon class="cls-1" points="200.3973708 135.4712243 190.1445702 145.3920283 179.8917697 155.3127832 193.6097599 159.2315705 207.3277992 163.1504069 203.8625604 149.3108156 200.3973708 135.4712243"/><polygon class="cls-4" points="132.1765941 165.9269984 140.1662192 177.7467147 148.1558935 189.5664801 154.3972816 176.7373665 160.6386698 163.9082529 146.4076074 164.9176011 132.1765941 165.9269984"/><polygon class="cls-6" points="88.8013896 143.3873289 87.3242013 157.5774811 85.8470622 171.7675842 98.874637 165.9517999 111.9022119 160.1359665 100.3517762 151.7616477 88.8013896 143.3873289"/></g><path class="cls-9" d="m51.2485352,237.5717773c-21.3652344,0-38.746582-17.3813477-38.746582-38.746582,0-14.9716797,8.7724609-28.7519531,22.3486328-35.1069336l4.9008789-2.2939453-.2041016-5.6416016c-.0239258-.6630859-.0498047-1.3261719-.0498047-1.9951172,0-33.8339844,27.5253906-61.359375,61.359375-61.359375,24.1782227,0,46.1772461,14.2817383,56.0444336,36.3847656l2.605957,5.8378906,6.2944336-1.1206055c3.1049805-.5522461,6.2202148-.8325195,9.2592773-.8325195,28.9140625,0,52.4370117,23.5229492,52.4370117,52.4370117s-23.5229492,52.4370117-52.4370117,52.4370117H51.2485352Z"/><path class="cls-7" d="m100.8570862,100.6055603c20.95578,0,40.023407,12.3806458,48.5769958,31.5411682l5.2127686,11.6768494,12.589447-2.242157c2.6306458-.4685059,5.2632751-.7060547,7.824707-.7060547,24.4047852,0,44.259552,19.8547058,44.259552,44.2594604,0,24.4048462-19.8547668,44.2595215-44.259552,44.2595215H51.2484436c-16.8558044,0-30.5690002-13.7131348-30.5690002-30.5689087,0-11.8121948,6.9232788-22.6853638,17.6378479-27.7005615l9.7984924-4.5865479-.3873596-10.8118286-.0092163-.2566528c-.0227051-.6253357-.0441284-1.2159119-.0441284-1.6822205,0-29.324707,23.8573608-53.1820679,53.1820068-53.1820679m0-16.3551331c-38.4043579,0-69.5371704,31.1329346-69.5371704,69.5372009,0,.8466492.0338135,1.6850891.0638733,2.5244446-15.9830627,7.4812622-27.0595093,23.7000122-27.0595093,42.5133667,0,25.9154053,21.008728,46.9240723,46.9241638,46.9240723h123.812561c33.4765625,0,60.6147156-27.1380615,60.6147156-60.6146851,0-33.4764709-27.1381531-60.614624-60.6147156-60.614624-3.6505737,0-7.2195129.3409424-10.6923523.9594421-10.8436584-24.2903442-35.191864-41.2292175-63.5115662-41.2292175h0Z"/></svg>