<?xml version="1.0" encoding="UTF-8"?><svg id="Calque_1" xmlns="http://www.w3.org/2000/svg" viewBox="0 0 240 330"><defs><style>.cls-1{fill:#fff;stroke-width:0px;}</style></defs><path class="cls-1" d="m148.252235,132.3734819l-12.9809308-7.4947627,12.9809308-7.4943023c3.6520738-2.1082761,4.903503-6.7783448,2.7947665-10.4304186-2.1085063-3.6520738-6.7783448-4.903503-10.4304186-2.7952269l-12.9809308,7.4947627v-14.989065c0-4.2170126-3.4186394-7.6356521-7.6356521-7.6356521h-.0002302c-4.2170126,0-7.6356521,3.4186394-7.6356521,7.6356521v14.989065l-12.9807006-7.4947627c-3.6520738-2.1082761-8.3221425-.8568469-10.4304186,2.7952269-2.1087365,3.6520738-.8573073,8.3221425,2.7947665,10.4304186l12.9807006,7.4943023-12.9807006,7.4947627c-3.6520738,2.1087365-4.903503,6.7783448-2.7947665,10.4304186,2.1082761,3.6520738,6.7783448,4.903503,10.4304186,2.7947665l12.9807006-7.4943023v14.989065c0,4.2170126,3.4186394,7.6356521,7.6356521,7.6356521h.0002302c4.2170126,0,7.6356521-3.4186394,7.6356521-7.6356521v-14.989065l12.9809308,7.4943023c3.6520738,2.1087365,8.3219123.8573073,10.4304186-2.7947665,2.1087365-3.6520738.8573073-8.3216821-2.7947665-10.4304186Z"/><path class="cls-1" d="m81.2536757,212.615583l-12.9809308-7.4947627,12.9809308-7.4943023c3.6520738-2.1082761,4.903503-6.7783448,2.7947665-10.4304186-2.1085063-3.6520738-6.7783448-4.903503-10.4304186-2.7952269l-12.9809308,7.4947627v-14.989065c0-4.2170126-3.4186394-7.6356521-7.6356521-7.6356521h-.0002302c-4.2170126,0-7.6356521,3.4186394-7.6356521,7.6356521v14.989065l-12.9807006-7.4947627c-3.6520738-2.1082761-8.3221425-.8568469-10.4304186,2.7952269-2.1087365,3.6520738-.8573073,8.3221425,2.7947665,10.4304186l12.9807006,7.4943023-12.9807006,7.4947627c-3.6520738,2.1087365-4.903503,6.7783448-2.7947665,10.4304186,2.1082761,3.6520738,6.7783448,4.903503,10.4304186,2.7947665l12.9807006-7.4943023v14.989065c0,4.2170126,3.4186394,7.6356521,7.6356521,7.6356521h.0002302c4.2170126,0,7.6356521-3.4186394,7.6356521-7.6356521v-14.989065l12.9809308,7.4943023c3.6520738,2.1087365,8.3219123.8573073,10.4304186-2.7947665,2.1087365-3.6520738.8573073-8.3216821-2.7947665-10.4304186Z"/><path class="cls-1" d="m215.2507943,212.615583l-12.9809308-7.4947627,12.9809308-7.4943023c3.6520738-2.1082761,4.903503-6.7783448,2.7947665-10.4304186-2.1085063-3.6520738-6.7783448-4.903503-10.4304186-2.7952269l-12.9809308,7.4947627v-14.989065c0-4.2170126-3.4186394-7.6356521-7.6356521-7.6356521h-.0002302c-4.2170126,0-7.6356521,3.4186394-7.6356521,7.6356521v14.989065l-12.9807006-7.4947627c-3.6520738-2.1082761-8.3221425-.8568469-10.4304186,2.7952269-2.1087365,3.6520738-.8573073,8.3221425,2.7947665,10.4304186l12.9807006,7.4943023-12.9807006,7.4947627c-3.6520738,2.1087365-4.903503,6.7783448-2.7947665,10.4304186,2.1082761,3.6520738,6.7783448,4.903503,10.4304186,2.7947665l12.9807006-7.4943023v14.989065c0,4.2170126,3.4186394,7.6356521,7.6356521,7.6356521h.0002302c4.2170126,0,7.6356521-3.4186394,7.6356521-7.6356521v-14.989065l12.9809308,7.4943023c3.6520738,2.1087365,8.3219123.8573073,10.4304186-2.7947665,2.1087365-3.6520738.8573073-8.3216821-2.7947665-10.4304186Z"/></svg>