<?xml version="1.0" encoding="UTF-8"?><svg id="Calque_1" xmlns="http://www.w3.org/2000/svg" viewBox="0 0 240 330"><defs><style>.cls-1{fill:#fff;}.cls-1,.cls-2{stroke-width:0px;}.cls-2{fill:#1d4ed8;}</style></defs><path class="cls-2" d="m100.8570557,100.6056519c20.9558105,0,40.0234375,12.3806152,48.5770264,31.5410767l5.2126465,11.6765747,12.5892334-2.2418213c2.6309814-.4685059,5.2636719-.7060547,7.8250732-.7060547,24.4047852,0,44.2595215,19.8547363,44.2595215,44.2593994,0,24.4048462-19.8547363,44.2595215-44.2595215,44.2595215H51.2484131c-16.8557129,0-30.5689697-13.7131348-30.5689697-30.5689087,0-11.8121948,6.9233398-22.6854248,17.6379395-27.7007446l9.7974854-4.5860596-.3863525-10.8108521-.0096436-.2653809c-.0224609-.6226196-.0438232-1.2108154-.0438232-1.6748047,0-29.324646,23.8574219-53.1819458,53.1820068-53.1819458m0-16.3551636c-38.4042969,0-69.5371094,31.1328125-69.5371094,69.5371094,0,.8466797.0338135,1.6850586.0638428,2.5244141-15.9830322,7.4813232-27.0594482,23.7000732-27.0594482,42.5134277,0,25.9154053,21.008667,46.9240723,46.9240723,46.9240723h123.8126221c33.4765625,0,60.614624-27.1380615,60.614624-60.6146851,0-33.4764404-27.1380615-60.614563-60.614624-60.614563-3.6506348,0-7.2194824.3409424-10.6923828.9593506-10.8436279-24.2902832-35.1918945-41.229126-63.5115967-41.229126h0Z"/><path class="cls-2" d="m120,267.0068359c-11.3095703,0-20.5107422-9.2011719-20.5107422-20.5107422,0-4.2670898,1.3095703-8.3618164,3.7880859-11.8525391l16.9677734-26.8291016,16.6103516,27.0126953c2.3916016,3.4487305,3.6552734,7.4794922,3.6552734,11.6689453,0,11.3095703-9.2011719,20.5107422-20.5107422,20.5107422Z"/><path class="cls-1" d="m120.1855469,217.2353516l12.5001221,20.3278809c1.7830811,2.5275269,2.8399658,5.6043091,2.8399658,8.9326782,0,8.5744019-6.9511719,15.5256348-15.5256348,15.5256348-8.574585,0-15.5256348-6.9512329-15.5256348-15.5256348,0-3.3892212,1.0980225-6.5147095,2.9406738-9.0673218l12.7705078-20.1932373m.1186523-18.8413696l-8.5452881,13.512207-12.6265869,19.9654541c-3.0290527,4.3139038-4.6282959,9.362915-4.6282959,14.6242676,0,14.0585938,11.4373779,25.4960327,25.4959717,25.4960327s25.4959717-11.437439,25.4959717-25.4960327c0-5.1624756-1.5415039-10.1303711-4.4622803-14.3912964l-12.3549805-20.0918579-8.3745117-13.6187744h0Z"/></svg>