<?xml version="1.0" encoding="UTF-8"?><svg id="Calque_1" xmlns="http://www.w3.org/2000/svg" viewBox="0 0 240 330"><defs><style>.cls-1{fill:#fff;}.cls-1,.cls-2,.cls-3{stroke-width:0px;}.cls-2{fill:#c6c6c6;}.cls-3{fill:#1d4ed8;}</style></defs><path class="cls-3" d="m100.8570709,100.6055908c20.9557877,0,40.0234222,12.3807373,48.5769958,31.5411377l5.2126465,11.6765137,12.5892792-2.2416992c2.6309357-.4685059,5.2636566-.7060547,7.8250122-.7060547,24.4047852,0,44.2595673,19.8546143,44.2595673,44.2593994s-19.8547821,44.2595215-44.2595673,44.2595215H51.2484283c-16.8557854,0-30.5690002-13.7131348-30.5690002-30.5689697,0-11.8122559,6.9232864-22.6854248,17.637928-27.7006836l9.7984314-4.5864258-.3873596-10.8118896-.009285-.2568359c-.022644-.6251221-.0440712-1.2156982-.0440712-1.6820068,0-29.324707,23.8573532-53.1820068,53.1819992-53.1820068m0-16.3551025c-38.4043579,0-69.5371418,31.1328125-69.5371418,69.5371094,0,.8466797.0337849,1.6850586.0638561,2.5244141-15.9830713,7.4813232-27.0594997,23.7000732-27.0594997,42.5134277,0,25.9154053,21.0087147,46.9240723,46.9241428,46.9240723h123.8125763c33.4765625,0,60.6147156-27.1380615,60.6147156-60.614624s-27.1381531-60.614624-60.6147156-60.614624c-3.6505737,0-7.2194977.3409424-10.6923676.9593506-10.8436432-24.2902832-35.1918488-41.229126-63.5115662-41.229126h0Z"/><path class="cls-3" d="m120,267.0068359c-11.3095703,0-20.5107422-9.2011719-20.5107422-20.5107422,0-4.2666016,1.3095703-8.3613281,3.7885742-11.8525391l16.9672852-26.8291016,16.6103516,27.0126953c2.3916016,3.4482422,3.6552734,7.4794922,3.6552734,11.6689453,0,11.3095703-9.2011719,20.5107422-20.5107422,20.5107422Z"/><path class="cls-1" d="m120.1855927,217.2353516l12.500061,20.3278809c1.7831268,2.5274658,2.8399658,5.6043701,2.8399658,8.9326172,0,8.5744629-6.9511261,15.5256348-15.5256195,15.5256348-8.5746231,0-15.5256271-6.9511719-15.5256271-15.5256348,0-3.3891602,1.0979996-6.5146484,2.9406891-9.0672607l12.7705307-20.1932373m.11866-18.8414307l-8.5453491,13.512207-12.6266327,19.9656982c-3.0291595,4.3138428-4.6283035,9.3626709-4.6283035,14.6240234,0,14.0585938,11.4374695,25.4960938,25.4960327,25.4960938s25.4960327-11.4375,25.4960327-25.4960938c0-5.1622314-1.5417786-10.1303711-4.4622498-14.3911133l-12.3550262-20.092041-8.3745041-13.6187744h0Z"/><path class="cls-3" d="m43.5600586,267.0068359c-11.3095703,0-20.5107422-9.2011719-20.5107422-20.5107422,0-4.2666016,1.3095703-8.3613281,3.7885742-11.8525391l16.9672852-26.8291016,16.6103516,27.0126953c2.3920898,3.4492188,3.6557617,7.4804688,3.6557617,11.6689453,0,11.3095703-9.2011719,20.5107422-20.5112305,20.5107422Z"/><path class="cls-1" d="m43.7457085,217.2353516l12.5000648,20.3278809c1.783123,2.5274658,2.8399658,5.6043701,2.8399658,8.9326172,0,8.5744629-6.9510918,15.5256348-15.5256233,15.5256348-8.5746231,0-15.5256252-6.9511719-15.5256252-15.5256348,0-3.3891602,1.0979996-6.5146484,2.9406872-9.0672607l12.7705307-20.1932373m.1186562-18.8414307l-8.5453415,13.512207-12.6266365,19.9656982c-3.0291595,4.3138428-4.6283016,9.3626709-4.6283016,14.6240234,0,14.0585938,11.4374676,25.4960938,25.4960308,25.4960938s25.4960289-11.4375,25.4960289-25.4960938c0-5.1622314-1.5417786-10.1303711-4.4622421-14.3911133l-12.3550377-20.092041-8.3745003-13.6187744h0Z"/><path class="cls-3" d="m196.4399414,267.0068359c-11.3100586,0-20.5112305-9.2011719-20.5112305-20.5107422,0-4.2666016,1.3095703-8.3613281,3.7890625-11.8525391l16.9672852-26.8291016,16.6103516,27.0126953c2.3916016,3.4482422,3.6552734,7.4794922,3.6552734,11.6689453,0,11.3095703-9.2011719,20.5107422-20.5107422,20.5107422Z"/><path class="cls-1" d="m196.625473,217.2353516l12.500061,20.3278809c1.7831268,2.5274658,2.8399658,5.6043701,2.8399658,8.9326172,0,8.5744629-6.9510956,15.5256348-15.5256195,15.5256348-8.5746307,0-15.5256195-6.9511719-15.5256195-15.5256348,0-3.3891602,1.0979919-6.5146484,2.9406891-9.0672607l12.7705231-20.1932373m.1186523-18.8414307l-8.5453339,13.512207-12.6266479,19.9656982c-3.0291595,4.3138428-4.6282959,9.3626709-4.6282959,14.6240234,0,14.0585938,11.4374695,25.4960938,25.4960327,25.4960938s25.4960327-11.4375,25.4960327-25.4960938c0-5.1622314-1.5417786-10.1303711-4.4622498-14.3911133l-12.3550262-20.092041-8.3745117-13.6187744h0Z"/><path class="cls-2" d="m99.0678292,297.7245189l-8.1592288-4.7108705,8.1592288-4.7105811c2.2955292-1.3251675,3.0821213-4.2605624,1.7566644-6.5560916-1.3253122-2.2955292-4.2605624-3.0821213-6.5560916-1.7569538l-8.1592288,4.7108705v-9.4214515c0-2.6506243-2.1488029-4.7994272-4.7994272-4.7994272h-.0001447c-2.6506243,0-4.7994272,2.1488029-4.7994272,4.7994272v9.4214515l-8.1590841-4.7108705c-2.2955292-1.3251675-5.2309242-.5385754-6.5560916,1.7569538-1.3254569,2.2955292-.5388648,5.2309242,1.7566644,6.5560916l8.1590841,4.7105811-8.1590841,4.7108705c-2.2955292,1.3254569-3.0821213,4.2605624-1.7566644,6.5560916,1.3251675,2.2955292,4.2605624,3.0821213,6.5560916,1.7566644l8.1590841-4.7105811v9.4214515c0,2.6506243,2.1488029,4.7994272,4.7994272,4.7994272h.0001447c2.6506243,0,4.7994272-2.1488029,4.7994272-4.7994272v-9.4214515l8.1592288,4.7105811c2.2955292,1.3254569,5.2307795.5388648,6.5560916-1.7566644,1.3254569-2.2955292.5388648-5.2306348-1.7566644-6.5560916Z"/><path class="cls-2" d="m175.9780247,297.7245189l-8.1592288-4.7108705,8.1592288-4.7105811c2.2955292-1.3251675,3.0821213-4.2605624,1.7566644-6.5560916-1.3253122-2.2955292-4.2605624-3.0821213-6.5560916-1.7569538l-8.1592288,4.7108705v-9.4214515c0-2.6506243-2.1488029-4.7994272-4.7994272-4.7994272h-.0001447c-2.6506243,0-4.7994272,2.1488029-4.7994272,4.7994272v9.4214515l-8.1590841-4.7108705c-2.2955292-1.3251675-5.2309242-.5385754-6.5560916,1.7569538-1.3254569,2.2955292-.5388648,5.2309242,1.7566644,6.5560916l8.1590841,4.7105811-8.1590841,4.7108705c-2.2955292,1.3254569-3.0821213,4.2605624-1.7566644,6.5560916,1.3251675,2.2955292,4.2605624,3.0821213,6.5560916,1.7566644l8.1590841-4.7105811v9.4214515c0,2.6506243,2.1488029,4.7994272,4.7994272,4.7994272h.0001447c2.6506243,0,4.7994272-2.1488029,4.7994272-4.7994272v-9.4214515l8.1592288,4.7105811c2.2955292,1.3254569,5.2307795.5388648,6.5560916-1.7566644,1.3254569-2.2955292.5388648-5.2306348-1.7566644-6.5560916Z"/></svg>