<?xml version="1.0" encoding="UTF-8"?><svg id="Calque_1" xmlns="http://www.w3.org/2000/svg" viewBox="0 0 240 330"><defs><style>.cls-1{fill:#c6c6c6;}.cls-1,.cls-2{stroke-width:0px;}.cls-2{fill:#1d4ed8;}</style></defs><path class="cls-2" d="m100.8570557,100.6056519c20.9558105,0,40.0234375,12.3806152,48.5770264,31.5410767l5.2126465,11.6765747,12.5891724-2.2418213c2.6310425-.4685059,5.2637329-.7060547,7.8250732-.7060547,24.4047852,0,44.2595215,19.8547363,44.2595215,44.2593994,0,24.4048462-19.8547363,44.2595215-44.2595215,44.2595215H51.2484131c-16.8557739,0-30.5689087-13.7131348-30.5689087-30.5689087,0-11.8121948,6.9232788-22.6854248,17.6378784-27.7007446l9.7975464-4.5860596-.3864136-10.8108521-.0095825-.2653809c-.022583-.6226196-.0438843-1.2108154-.0438843-1.6748047,0-29.324646,23.8573608-53.1819458,53.1820068-53.1819458m0-16.3551636c-38.4042969,0-69.5371094,31.1328125-69.5371094,69.5371094,0,.8466797.0338135,1.6850586.0638428,2.5244141-15.9830322,7.4813232-27.0594482,23.7000732-27.0594482,42.5134277,0,25.9154053,21.008667,46.9240723,46.9240723,46.9240723h123.812561c33.4766235,0,60.6146851-27.1380615,60.6146851-60.6146851,0-33.4764404-27.1380615-60.614563-60.6146851-60.614563-3.6505737,0-7.2194214.3409424-10.6923218.9593506-10.8436279-24.2902832-35.1918945-41.229126-63.5115967-41.229126h0Z"/><path class="cls-1" d="m91.1989243,266.3020824l-4.7794259-2.7594834,4.7794259-2.7593138c1.3446506-.7762424,1.8054121-2.4957067,1.0290001-3.8403573-.7763272-1.3446506-2.4957067-1.8054121-3.8403573-1.0291696l-4.7794259,2.7594834v-5.5187972c0-1.5526544-1.2587028-2.8113572-2.8113572-2.8113572h-.0000848c-1.5526544,0-2.8113572,1.2587028-2.8113572,2.8113572v5.5187972l-4.7793411-2.7594834c-1.3446506-.7762424-3.0641149-.3154809-3.8403573,1.0291696-.776412,1.3446506-.3156504,3.0641149,1.0290001,3.8403573l4.7793411,2.7593138-4.7793411,2.7594834c-1.3446506.776412-1.8054121,2.4957067-1.0290001,3.8403573.7762424,1.3446506,2.4957067,1.8054121,3.8403573,1.0290001l4.7793411-2.7593138v5.5187972c0,1.5526544,1.2587028,2.8113572,2.8113572,2.8113572h.0000848c1.5526544,0,2.8113572-1.2587028,2.8113572-2.8113572v-5.5187972l4.7794259,2.7593138c1.3446506.776412,3.0640301.3156504,3.8403573-1.0290001.776412-1.3446506.3156504-3.0639453-1.0290001-3.8403573Z"/><path class="cls-1" d="m163.6076319,266.3020824l-4.7794259-2.7594834,4.7794259-2.7593138c1.3446506-.7762424,1.8054121-2.4957067,1.0290001-3.8403573-.7763272-1.3446506-2.4957067-1.8054121-3.8403573-1.0291696l-4.7794259,2.7594834v-5.5187972c0-1.5526544-1.2587028-2.8113572-2.8113572-2.8113572h-.0000848c-1.5526544,0-2.8113572,1.2587028-2.8113572,2.8113572v5.5187972l-4.7793411-2.7594834c-1.3446506-.7762424-3.0641149-.3154809-3.8403573,1.0291696-.776412,1.3446506-.3156504,3.0641149,1.0290001,3.8403573l4.7793411,2.7593138-4.7793411,2.7594834c-1.3446506.776412-1.8054121,2.4957067-1.0290001,3.8403573.7762424,1.3446506,2.4957067,1.8054121,3.8403573,1.0290001l4.7793411-2.7593138v5.5187972c0,1.5526544,1.2587028,2.8113572,2.8113572,2.8113572h.0000848c1.5526544,0,2.8113572-1.2587028,2.8113572-2.8113572v-5.5187972l4.7794259,2.7593138c1.3446506.776412,3.0640301.3156504,3.8403573-1.0290001.776412-1.3446506.3156504-3.0639453-1.0290001-3.8403573Z"/><circle class="cls-2" cx="117.0009766" cy="263.5424805" r="5.4335937"/><path class="cls-2" d="m117.0011597,259.4938354c2.236084,0,4.0488281,1.8127441,4.0488281,4.0488281,0,2.236145-1.8127441,4.0488892-4.0488281,4.0488892-2.236145,0-4.0488892-1.8127441-4.0488892-4.0488892,0-2.236084,1.8127441-4.0488281,4.0488892-4.0488281m0-2.769043c-3.7593994,0-6.8179321,3.0584717-6.8179321,6.8178711s3.0585327,6.8179321,6.8179321,6.8179321,6.8178711-3.0585327,6.8178711-6.8179321-3.0584717-6.8178711-6.8178711-6.8178711h0Z"/><circle class="cls-2" cx="99.7539062" cy="292.7075195" r="5.4335937"/><path class="cls-2" d="m99.7537842,288.6584473c2.236145,0,4.0488281,1.8127441,4.0488281,4.0488281v.000061c0,2.236084-1.8126831,4.0488281-4.0488281,4.0488281s-4.0488281-1.8127441-4.0488281-4.0488281v-.000061c0-2.236084,1.8126831-4.0488281,4.0488281-4.0488281m0-2.769043c-3.7593994,0-6.8178711,3.0584717-6.8178711,6.8178711s3.0584717,6.8179321,6.8178711,6.8179321,6.8178711-3.0584717,6.8178711-6.8178711-3.0584717-6.8179321-6.8178711-6.8179321h0Z"/><circle class="cls-2" cx="135.9580078" cy="292.7075195" r="5.4335937"/><path class="cls-2" d="m135.9581299,288.6584473c2.236145,0,4.0488281,1.8127441,4.0488281,4.0488281v.000061c0,2.236084-1.8126831,4.0488281-4.0488281,4.0488281-2.236084,0-4.0488281-1.8127441-4.0488281-4.0488281v-.000061c0-2.236084,1.8127441-4.0488281,4.0488281-4.0488281m0-2.769043c-3.7593994,0-6.8178711,3.0584717-6.8178711,6.8178711s3.0584717,6.8179321,6.8178711,6.8179321,6.8178711-3.0584717,6.8178711-6.8178711-3.0584717-6.8179321-6.8178711-6.8179321h0Z"/></svg>