<?xml version="1.0" encoding="UTF-8"?><svg id="Calque_1" xmlns="http://www.w3.org/2000/svg" viewBox="0 0 240 330"><defs><style>.cls-1{fill:#38bdf8;stroke-width:0px;}</style></defs><path class="cls-1" d="m100.8570557,100.6055603c20.9558105,0,40.0234375,12.3806458,48.5770264,31.5411682l5.2126465,11.6767578,12.5894775-2.2420654c2.6307373-.4685059,5.2634277-.7060547,7.8248291-.7060547,24.4047852,0,44.2595215,19.8547058,44.2595215,44.2594604,0,24.4048462-19.8547363,44.2595215-44.2595215,44.2595215H51.2484131c-16.8557129,0-30.5689697-13.7131348-30.5689697-30.5689087,0-11.8121948,6.9233398-22.6853638,17.6378174-27.7006836l9.7976074-4.5859985-.3863525-10.8109131-.0096436-.2651978c-.0224609-.6228027-.0438232-1.2109985-.0438232-1.6750183,0-29.324707,23.8574219-53.1820679,53.1820068-53.1820679m0-16.3551331c-38.4042969,0-69.5371094,31.1329346-69.5371094,69.5372009,0,.8466492.0338135,1.6850891.0638428,2.5244446-15.9830322,7.4812622-27.0594482,23.7000122-27.0594482,42.5133667,0,25.9154053,21.008667,46.9240723,46.9240723,46.9240723h123.8126221c33.4765625,0,60.614624-27.1380615,60.614624-60.6146851,0-33.4764709-27.1380615-60.614624-60.614624-60.614624-3.6506348,0-7.2194824.3409424-10.6923828.9594421-10.8436279-24.2903442-35.1918945-41.2292175-63.5115967-41.2292175h0Z"/></svg>