<?xml version="1.0" encoding="UTF-8"?><svg id="Calque_1" xmlns="http://www.w3.org/2000/svg" viewBox="0 0 240 330"><defs><style>.cls-1{fill:#c6c6c6;}.cls-1,.cls-2{stroke-width:0px;}.cls-2{fill:#1d4ed8;}</style></defs><g id="Brouillard"><rect class="cls-1" x="52.3019065" y="173.5907251" width="168.2309105" height="14.8311535" rx="7.4155693" ry="7.4155693"/><rect class="cls-1" x="33.9866159" y="205.6033266" width="168.2309105" height="14.8311535" rx="7.4155693" ry="7.4155693"/><rect class="cls-1" x="13.3219076" y="141.5781231" width="172.929746" height="14.8311539" rx="7.4155696" ry="7.4155696"/><rect class="cls-1" x="52.3018985" y="109.5655212" width="168.2309268" height="14.8311539" rx="7.4155696" ry="7.4155696"/><rect class="cls-1" x="97.0732062" y="77.5529149" width="42.05773" height="14.8311539" rx="7.4155695" ry="7.4155695"/><rect class="cls-1" x="97.0732262" y="237.6159364" width="42.0576899" height="14.8311532" rx="7.4155692" ry="7.4155692"/></g><path class="cls-2" d="m32.2204882,184.4720932l-6.0029295-3.4658941,6.0029295-3.4656812c1.6888728-.9749557,2.2675865-3.1345923,1.2924178-4.8234651-.9750622-1.6888728-3.1345923-2.2675865-4.8234651-1.2926307l-6.0029295,3.4658941v-6.9315753c0-1.9501244-1.580923-3.5310473-3.5310473-3.5310473h-.0001065c-1.9501244,0-3.5310473,1.580923-3.5310473,3.5310473v6.9315753l-6.002823-3.4658941c-1.6888728-.9749557-3.8485094-.3962421-4.8234651,1.2926307-.9751686,1.6888728-.396455,3.8485094,1.2924178,4.8234651l6.002823,3.4656812-6.002823,3.4658941c-1.6888728.9751686-2.2675865,3.1345923-1.2924178,4.8234651.9749557,1.6888728,3.1345923,2.2675865,4.8234651,1.2924178l6.002823-3.4656812v6.9315753c0,1.9501244,1.580923,3.5310473,3.5310473,3.5310473h.0001065c1.9501244,0,3.5310473-1.580923,3.5310473-3.5310473v-6.9315753l6.0029295,3.4656812c1.6888728.9751686,3.8484029.396455,4.8234651-1.2924178.9751686-1.6888728.396455-3.8482965-1.2924178-4.8234651Z"/><path class="cls-2" d="m190.5086368,248.497294l-6.0029295-3.4658941,6.0029295-3.4656812c1.6888728-.9749557,2.2675865-3.1345923,1.2924178-4.8234651-.9750622-1.6888728-3.1345923-2.2675865-4.8234651-1.2926307l-6.0029295,3.4658941v-6.9315753c0-1.9501244-1.580923-3.5310473-3.5310473-3.5310473h-.0001065c-1.9501244,0-3.5310473,1.580923-3.5310473,3.5310473v6.9315753l-6.002823-3.4658941c-1.6888728-.9749557-3.8485094-.3962421-4.8234651,1.2926307-.9751686,1.6888728-.396455,3.8485094,1.2924178,4.8234651l6.002823,3.4656812-6.002823,3.4658941c-1.6888728.9751686-2.2675865,3.1345923-1.2924178,4.8234651.9749557,1.6888728,3.1345923,2.2675865,4.8234651,1.2924178l6.002823-3.4656812v6.9315753c0,1.9501244,1.580923,3.5310473,3.5310473,3.5310473h.0001065c1.9501244,0,3.5310473-1.580923,3.5310473-3.5310473v-6.9315753l6.0029295,3.4656812c1.6888728.9751686,3.8484029.396455,4.8234651-1.2924178.9751686-1.6888728.396455-3.8482965-1.2924178-4.8234651Z"/><path class="cls-2" d="m73.2128532,88.4342813l-6.0029295-3.4658941,6.0029295-3.4656812c1.6888728-.9749557,2.2675865-3.1345923,1.2924178-4.8234651-.9750622-1.6888728-3.1345923-2.2675865-4.8234651-1.2926307l-6.0029295,3.4658941v-6.9315753c0-1.9501244-1.580923-3.5310473-3.5310473-3.5310473h-.0001065c-1.9501244,0-3.5310473,1.580923-3.5310473,3.5310473v6.9315753l-6.002823-3.4658941c-1.6888728-.9749557-3.8485094-.3962421-4.8234651,1.2926307-.9751686,1.6888728-.396455,3.8485094,1.2924178,4.8234651l6.002823,3.4656812-6.002823,3.4658941c-1.6888728.9751686-2.2675865,3.1345923-1.2924178,4.8234651.9749557,1.6888728,3.1345923,2.2675865,4.8234651,1.2924178l6.002823-3.4656812v6.9315753c0,1.9501244,1.580923,3.5310473,3.5310473,3.5310473h.0001065c1.9501244,0,3.5310473-1.580923,3.5310473-3.5310473v-6.9315753l6.0029295,3.4656812c1.6888728.9751686,3.8484029.396455,4.8234651-1.2924178.9751686-1.6888728.396455-3.8482965-1.2924178-4.8234651Z"/><path class="cls-2" d="m233.9095599,152.459492l-6.0029295-3.4658941,6.0029295-3.4656812c1.6888728-.9749557,2.2675865-3.1345923,1.2924178-4.8234651-.9750622-1.6888728-3.1345923-2.2675865-4.8234651-1.2926307l-6.0029295,3.4658941v-6.9315753c0-1.9501244-1.580923-3.5310473-3.5310473-3.5310473h-.0001065c-1.9501244,0-3.5310473,1.580923-3.5310473,3.5310473v6.9315753l-6.002823-3.4658941c-1.6888728-.9749557-3.8485094-.3962421-4.8234651,1.2926307-.9751686,1.6888728-.396455,3.8485094,1.2924178,4.8234651l6.002823,3.4656812-6.002823,3.4658941c-1.6888728.9751686-2.2675865,3.1345923-1.2924178,4.8234651.9749557,1.6888728,3.1345923,2.2675865,4.8234651,1.2924178l6.002823-3.4656812v6.9315753c0,1.9501244,1.580923,3.5310473,3.5310473,3.5310473h.0001065c1.9501244,0,3.5310473-1.580923,3.5310473-3.5310473v-6.9315753l6.0029295,3.4656812c1.6888728.9751686,3.8484029.396455,4.8234651-1.2924178.9751686-1.6888728.396455-3.8482965-1.2924178-4.8234651Z"/></svg>