<?xml version="1.0" encoding="UTF-8"?><svg id="Calque_1" xmlns="http://www.w3.org/2000/svg" xmlns:xlink="http://www.w3.org/1999/xlink" viewBox="0 0 240 330"><defs><style>.cls-1{fill:#fff;}.cls-1,.cls-2,.cls-3,.cls-4{stroke-width:0px;}.cls-2{fill:url(#Nouvelle_nuance_de_dégradé_1);}.cls-3{fill:#c6c6c6;}.cls-4{fill:#1d4ed8;}</style><linearGradient id="Nouvelle_nuance_de_dégradé_1" x1="86.6391747" y1="239.4052734" x2="153.3608253" y2="239.4052734" gradientUnits="userSpaceOnUse"><stop offset="0" stop-color="#facc15"/><stop offset="1" stop-color="#fde047"/></linearGradient></defs><path class="cls-4" d="m100.8570557,100.6057129c20.9559326,0,40.0235596,12.3806152,48.5770264,31.5410156l5.2128906,11.6772461,12.5898438-2.2424316c2.6298828-.4685059,5.262207-.7060547,7.8242188-.7060547,24.4047852,0,44.2595215,19.8547363,44.2595215,44.2595215s-19.8547363,44.2592773-44.2595215,44.2592773H51.2484131c-16.8557129,0-30.5689697-13.7131348-30.5689697-30.5688477,0-11.8122559,6.9233398-22.6853027,17.6379395-27.7006836l9.7974854-4.5861816-.3863525-10.810791-.0096436-.2653809c-.0224609-.6225586-.0438232-1.2109375-.0438232-1.6748047,0-29.324707,23.8574219-53.1818848,53.1820068-53.1818848m0-16.3552246c-38.4042969,0-69.5371094,31.1328125-69.5371094,69.5371094,0,.8466797.0338135,1.6850586.0638428,2.5244141-15.9830322,7.4814453-27.0594482,23.7001953-27.0594482,42.5134277,0,25.9155273,21.008667,46.9240723,46.9240723,46.9240723h123.8126221c33.4765625,0,60.614624-27.1381836,60.614624-60.614502,0-33.4765625-27.1380615-60.6147461-60.614624-60.6147461-3.6506348,0-7.2194824.3408203-10.6923828.9594727-10.8436279-24.2905273-35.1918945-41.229248-63.5115967-41.229248h0Z"/><path class="cls-2" d="m104.0966797,324.6884766c-.4433594,0-.8925781-.0625-1.3359375-.1923828-2.2421875-.6591797-3.6679688-2.8564453-3.3554688-5.1728516l8.1689453-60.6386719h-16.2021484c-1.6191406,0-3.125-.828125-3.9941406-2.1933594-.8681641-1.3662109-.9785156-3.0810547-.2919922-4.546875l44.5322266-95.0957031c.7949219-1.6982422,2.4892578-2.7265625,4.2861328-2.7265625.4423828,0,.8916016.0625,1.3349609.1923828,2.2421875.6591797,3.6679688,2.8564453,3.3554688,5.1728516l-8.1689453,60.6376953h16.2021484c1.6191406,0,3.125.828125,3.9941406,2.1933594.8681641,1.3662109.9785156,3.0810547.2919922,4.546875l-44.5322266,95.0966797c-.7949219,1.6982422-2.4892578,2.7265625-4.2851562,2.7265625Z"/><path class="cls-1" d="m135.9041748,158.8552246l-8.8918457,66.0031738h21.6152344l-44.5317383,95.0961914,8.8918457-66.0029297h-21.6152344l44.5317383-95.0964355m-.0009766-9.4675293c-3.5933838,0-6.9813232,2.0571289-8.5716553,5.453125l-44.5317383,95.0964355c-1.3730469,2.9318848-1.1523438,6.3620605.5849609,9.0939941s4.7502441,4.3864746,7.9876709,4.3864746h10.7884521l-7.4464111,55.2729492c-.6240234,4.6325684,2.2268066,9.0273438,6.7114258,10.3457031.8868408.2607422,1.7851562.3857422,2.6708984.3857422,3.5933838,0,6.9813232-2.0568848,8.5716553-5.453125l44.5317383-95.0961914c1.3730469-2.9318848,1.1523438-6.3623047-.5849609-9.0939941-1.7373047-2.7319336-4.7502441-4.3864746-7.9876709-4.3864746h-10.7884521l7.4464111-55.2731934c.6240234-4.6325684-2.2268066-9.0270996-6.7114258-10.3457031-.8868408-.2607422-1.7851562-.3857422-2.6708984-.3857422h0Z"/><circle class="cls-3" cx="73.102221" cy="312.0238045" r="13.1338691"/><circle class="cls-3" cx="150.6369045" cy="312.0238045" r="13.1338691"/><circle class="cls-3" cx="59.9683519" cy="273.330893" r="13.1338691"/><circle class="cls-3" cx="167.0316481" cy="273.330893" r="13.1338691"/></svg>