<?xml version="1.0" encoding="UTF-8"?><svg id="Calque_1" xmlns="http://www.w3.org/2000/svg" viewBox="0 0 240 330"><defs><style>.cls-1{fill:#c6c6c6;stroke:#c6c6c6;stroke-miterlimit:10;stroke-width:6px;}</style></defs><rect class="cls-1" x="12.7591387" y="116.4816214" width="42.4546667" height="8.4346474" rx="4.2173195" ry="4.2173195"/><path class="cls-1" d="m100.6634476,86.2091685c-9.7733863-1.0867687-18.3193837,5.1325216-20.8633391,13.8802618-.7867164,2.7052326,1.2362862,5.4150685,4.053591,5.4150685h.0000084c1.86952,0,3.5211393-1.2303062,4.0370438-3.0272335,1.5067507-5.2481064,6.8293575-8.8989931,12.7588668-7.7419322,4.2762329.8344471,7.7239897,4.2769077,8.5662175,8.551615,1.3830719,7.0197486-3.9827135,13.1946732-10.7652714,13.1946732h-28.3969252c-2.3291612,0-4.2173195,1.8881583-4.2173195,4.2173195v.0000084c0,2.3291612,1.8881583,4.2173195,4.2173195,4.2173195h28.3969252c11.4424176,0,20.6040013-9.9431815,19.2935418-21.6400556-.99523-8.883204-8.1966339-16.07917-17.0806589-17.0670447Z"/><path class="cls-1" d="m176.1660183,86.3012406c-18.8368816-2.0953284-35.0727535,11.3092934-37.5533032,29.0601906-.3504717,2.5079871,1.6622513,4.7293907,4.1946079,4.7293907h.0000084c2.0968122,0,3.8721237-1.5413889,4.1673406-3.6173148,1.8938372-13.3172107,14.0862283-23.3635322,28.2280182-21.7914005,11.7101344,1.3018065,21.1790222,10.7612644,22.4935318,22.4699796,1.7290804,15.401417-10.3373262,28.4956214-25.4063253,28.4956214H46.8958988c-2.3291612,0-4.2173195,1.8881583-4.2173195,4.2173195v.0000084c0,2.3291612,1.8881583,4.2173195,4.2173195,4.2173195h125.3939979c20.0380267,0,36.0831821-17.4129633,33.7870391-37.895087-1.7485187-15.5971886-14.3122333-28.1509013-29.9109174-29.8860275Z"/><path class="cls-1" d="m119.7335068,243.7912997c-9.7733863,1.0867687-18.3193837-5.1325216-20.8633391-13.8802618-.7867164-2.7052326,1.2362862-5.4150685,4.053591-5.4150685h.0000084c1.86952,0,3.5211393,1.2303062,4.0370438,3.0272335,1.5067507,5.2481064,6.8293575,8.8989931,12.7588668,7.7419322,4.2762329-.8344471,7.7239897-4.2769077,8.5662175-8.551615,1.3830719-7.0197486-3.9827135-13.1946732-10.7652714-13.1946732H34.2984904c-2.3291612,0-4.2173195-1.8881583-4.2173195-4.2173195v-.0000084c0-2.3291612,1.8881583-4.2173195,4.2173195-4.2173195h83.2221335c11.4424176,0,20.6040013,9.9431815,19.2935418,21.6400556-.99523,8.883204-8.1966339,16.07917-17.0806589,17.0670447Z"/><rect class="cls-1" x="12.7591387" y="175.5629334" width="29.8026955" height="8.4346474" rx="4.2173195" ry="4.2173195"/><path class="cls-1" d="m197.1169069,243.3440478c-18.8368816,2.0953284-35.0727535-11.3092934-37.5533032-29.0601906-.3504717-2.5079871,1.6622513-4.7293907,4.1946079-4.7293907h.0000084c2.0968122,0,3.8721237,1.5413889,4.1673406,3.6173148,1.8938372,13.3172107,14.0862283,23.3635322,28.2280182,21.7914005,11.7101344-1.3018065,21.1790222-10.7612644,22.4935318-22.4699796,1.7290804-15.401417-10.3373262-28.4956214-25.4063253-28.4956214H59.41214c-2.3291612,0-4.2173195-1.8881583-4.2173195-4.2173195v-.0000084c0-2.3291612,1.8881583-4.2173195,4.2173195-4.2173195h133.8286453c20.0380267,0,36.0831821,17.4129633,33.7870391,37.895087-1.7485187,15.5971886-14.3122333,28.1509013-29.9109174,29.8860275Z"/></svg>