<?xml version="1.0" encoding="UTF-8"?><svg id="Groupe_53" xmlns="http://www.w3.org/2000/svg" xmlns:xlink="http://www.w3.org/1999/xlink" viewBox="0 0 1653.5172414 247.0679932"><defs><style>.cls-1{fill:none;}.cls-1,.cls-2{stroke-width:0px;}.cls-2{fill:#38bdf8;}.cls-3{clip-path:url(#clippath);}</style><clipPath id="clippath"><rect class="cls-1" x="-12.1103448" width="1680.3499756" height="247.0679932"/></clipPath></defs><g class="cls-3"><path class="cls-2" d="m1653.5172186,92.2181021c0-.2081288-.0639315-.4121827-.1835672-.582491-14.881508-21.1846891-39.4938976-35.0355659-67.3489035-35.0186678-6.7259521.0040894-13.4261475.8336792-19.9500732,2.4700317-16.7441406-46.4483643-67.9718018-70.5283813-114.420166-53.7842407-17.6835938,6.3747559-32.9078369,18.1612549-43.5087891,33.6842651-18.0098877-11.1253052-41.6286621-5.5441895-52.7540283,12.4657593-.7138672,1.1556396-1.3657227,2.3483887-1.9530029,3.5732422-8.5772705-4.0159912-17.9370117-6.0841064-27.407959-6.0560303-31.8718262.0164185-59.0194092,23.1635132-64.0739746,54.632019-29.5620117-37.9029541-84.2530518-44.6646118-122.1560059-15.1026611-12.9503174,10.1004028-22.7784424,23.6588135-28.348999,39.1086426-6.3775635-1.59375-12.9263916-2.3997803-19.5-2.3999634-42.7904053.0042725-77.9987793,33.6848145-79.9000244,76.4329834-18.1528931-8.2845459-38.9901123-8.3708496-57.2109985-.2369995-14.4893188-22.1270142-44.1727295-28.3186035-66.2997437-13.8292847-12.2683716,8.0336304-20.1796875,21.2454224-21.4692383,35.8532715-13.0629272-4.8974609-27.7936401-1.1737671-36.960022,9.3430176-10.2363281-5.6838379-22.1315918-7.628418-33.6450195-5.5-.9150391-35.8233032-30.6973877-64.1220703-66.5206909-63.2069702-5.5046387.140625-10.9689941.9813232-16.2612915,2.5019531.1550293-.9219971.2999878-1.8690186.4000244-2.8339844,4.0610352-40.7689209-25.6965942-77.1107788-66.4655762-81.171814-31.7033081-3.157959-61.8826904,14.2799072-74.9794922,43.3237915-5.2178955-2.4961548-10.8289185-4.0690918-16.5839844-4.6489868-20.3633423-1.9332886-39.8930664,8.562561-49.5170288,26.6119995-19.5038452-13.7428589-45.9810181-11.883667-63.3729858,4.4500122-22.1726074-43.5803223-75.4758911-60.9346924-119.0562744-38.762085-2.343811,1.1925049-4.6333008,2.4887695-6.8617554,3.8850708.0549927-.8519897.0820312-1.7329712.0820312-2.6610107-.0170898-22.414978-18.1749878-40.5863647-40.5900269-40.6199951-4.9784546-.0143433-9.9160156.8988647-14.5599976,2.6929932-2.6696167-32.0629272-30.8259888-55.8909302-62.888916-53.2212524-17.9436646,1.4940186-34.1880493,11.2014771-44.0040894,26.2962646-10.8942261-4.9290771-22.7196045-7.4621582-34.677002-7.4279785-46.6605225.0496216-84.4754028,37.8604736-84.5299683,84.5209961-.0211182,10.5301514,1.9484253,20.9694214,5.8049927,30.7680054-17.3441859,3.3564795-32.0113945,13.2659802-41.6577279,26.8508009C.065055,184.7904616.0000067,184.9968121.0000067,185.2073413v.0000036c0,.9745454,1.2447802,1.3634087,1.8089648.5687802,9.583546-13.4979892,24.276353-23.2422201,41.5927075-26.2621481l1.2259521-.2139893-.4729614-1.151001c-4.0593872-9.8820801-6.137085-20.4656372-6.1149902-31.1489868.0540161-45.5560303,36.973938-82.4714966,82.5299683-82.5200195,11.9611816-.034668,23.7835693,2.5623779,34.6290283,7.6069946l.7999878.3710327.4699707-.7449951c16.5579637-26.3191247,51.3317444-34.2169547,77.6369222-17.6186613,15.5577403,9.8167722,25.1058549,26.8419666,26.1920225,45.2058589l.0271344.4587619,1.30896-.5609741c4.7612915-2.0350342,9.8881226-3.0759888,15.06604-3.059021,21.3108521.0325317,38.5740356,17.309082,38.5899658,38.6199951.006958,1.5023804-.0805664,3.0036621-.2619629,4.4950562l-.2730103,2.1629639,1.8179932-1.2050171c39.8870239-26.3166504,93.5557251-15.3156738,119.8724365,24.5713501,2.0353394,3.0848999,3.8709717,6.2970581,5.4955444,9.6166382l.6119995,1.2490234.9890137-.9769897c16.9223022-16.7856445,43.5621338-18.7097168,62.7209473-4.5300293l.9569702.7059937.5310059-1.0629883c9.0180664-17.9127808,28.1022949-28.4580078,48.0670166-26.5599976,5.8626099.5928955,11.5667114,2.2564087,16.8289795,4.90802l.9450073.4719849.4199829-.9689941c15.8734741-36.5702515,58.3875732-53.3483276,94.9578247-37.4748535,28.7816772,12.4928589,46.1972046,42.1472168,43.0882568,73.3688354-.1049805,1.0570068-.2860107,2.1230469-.460022,3.1540527-.0640259.3800049-.1279907.7599487-.1890259,1.1409912l-.257019,1.5999756,1.5449829-.4869995c33.1281128-10.421875,68.432373,7.9851685,78.854248,41.1132812,1.8770752,5.9666748,2.8533936,12.1799927,2.8967285,18.4347534l.0059814,1.2249756,1.2000122-.2509766c11.6852142-2.4439042,23.8612831-.492345,34.1973797,5.4810966l.6815876.3939034.5390015-.6500244c5.960083-7.2209473,14.8370361-11.3982544,24.2000122-11.3880005,4.2162476-.0133667,8.3909912.8331909,12.2689819,2.4880371l1.309021.559021.0830078-1.4200439c1.4942627-25.3002319,23.2155151-44.5988159,48.5158081-43.1045532,14.7924805.8736572,28.2527466,8.8365479,36.1412964,21.3805542l.4699707.7439575.7999878-.3709717c18.333252-8.4627075,39.4921875-8.2744751,57.6719971.5130005l1.4000244.6779785.0389404-1.552002c.8299561-42.3881226,35.5543213-76.2487793,77.9499512-76.0109863,6.7103271.0006104,13.3928223.8619995,19.8840332,2.5629883l.9000244.2340088.3000488-.8720093c15.4628906-44.3460693,63.9476318-67.7605591,108.2937012-52.2976685,16.1987305,5.6482544,30.3103027,16.0638428,40.4813232,29.8786621l1.4940186,2.0250244.3000488-2.5c3.866333-31.5390625,30.6407471-55.2460327,62.4158936-55.2650146,9.5114746-.0285034,18.90271,2.1243286,27.4520264,6.2930298l.927002.4519653.4229736-.9429932c8.1876221-18.3179321,29.6745605-26.5302734,47.9925537-18.3427124,1.7554932.784668,3.4459229,1.7074585,5.0554199,2.7597046l.8289795.5430298.5500488-.8240356c26.7838135-40.1569824,81.0501709-50.9981079,121.2072754-24.2142334,15.8172607,10.5497437,27.7629395,25.9696045,34.0257568,43.9212646l.3000488.8729858.9000244-.2349854c33.3734769-8.7686338,67.3485543,4.8416654,86.0629078,31.5333207.5577932.7955617,1.8025708.4064083,1.8025708-.565215v-.0000036Z"/></g></svg>