<?xml version="1.0" encoding="UTF-8"?><svg id="Calque_3" xmlns="http://www.w3.org/2000/svg" viewBox="0 0 192.1655172 219.3913063"><defs><style>.cls-1{fill:#facc15;}.cls-2{fill:#1d4ed8;}</style></defs><circle class="cls-1" cx="101.7690221" cy="97.4754464" r="60.4619419"/><g id="_Répétition_radiale_"><path class="cls-2" d="m18.4069653,128.4563784c-1.1896348-.2257748-2.2345868-1.0524518-2.6827781-2.271671-.6789824-1.846563.26754-3.8940866,2.1146282-4.5734267l9.5489037-3.5109924c1.844546-.6779933,3.8946118.2671823,4.5734267,2.1146282.6789824,1.846563-.26754,3.8940866-2.1146282,4.5734267l-9.5489037,3.5109924c-.6272601.2303496-1.2779536.2733231-1.8906486.1570428Z"/></g><g id="_Répétition_radiale_-2"><path class="cls-2" d="m14.4810766,84.5483152c-1.9065056-.3618262-3.1770114-2.188028-2.8451021-4.1079859.3354279-1.9384976,2.1791385-3.2386077,4.1179938-2.9026546l10.0250858,1.7343163c1.9403181.3234257,3.2386915,2.1786971,2.9035375,4.1181614-.3354279,1.9384976-2.1791385,3.2386077-4.1179938,2.9026546l-10.0250858-1.7343163c-.0195902-.0028033-.0390128-.0064894-.0584354-.0101755Z"/></g><g id="_Répétition_radiale_-3"><path class="cls-2" d="m40.8521196,51.077708c-.5756155-.1092432-1.1317595-.3620487-1.6134957-.7635395l-7.8155541-6.5138196c-1.5114928-1.2600404-1.7157472-3.5067566-.4557068-5.0182494,1.2600404-1.5114928,3.5078296-1.7141716,5.0178918-.456232l7.8155541,6.5138196c1.5114928,1.2600404,1.7157472,3.5067566.4557068,5.0182494-.8581082,1.0298404-2.1745918,1.4531699-3.4043961,1.2197715Z"/></g><g id="_Répétition_radiale_-4"><path class="cls-2" d="m72.6173442,28.7660112c-1.1900762-.2258586-2.2344192-1.0533346-2.683052-2.2726376l-3.51135-9.5494289c-.6789824-1.846563.26754-3.8940866,2.1146282-4.5734267,1.8464793-.678541,3.89312.2678138,4.5734267,2.1146282l3.51135,9.5494289c.6789824,1.846563-.26754,3.8940866-2.1146282,4.5734267-.6272601.2303496-1.2781211.2742059-1.8903747.1580094Z"/></g><g id="_Répétition_radiale_-5"><path class="cls-2" d="m111.2741315,25.3188306c-1.9065056-.3618262-3.1770114-2.188028-2.8452696-4.107103l1.7339586-10.025611c.3355954-1.9393805,2.1793061-3.2394905,4.1181614-2.9035375,1.9182631.3119228,3.2386915,2.1786971,2.903705,4.1172785l-1.7339586,10.025611c-.3355954,1.9393805-2.1793061,3.2394905-4.1181614,2.9035375-.0195902-.0028033-.0390128-.0064894-.0584354-.0101755Z"/></g><g id="_Répétition_radiale_-6"><path class="cls-2" d="m146.476429,41.6665761c-.5756155-.1092432-1.1317595-.3620487-1.6134957-.7635395-1.5114928-1.2600404-1.7157472-3.5067566-.4557068-5.0182494l6.5147862-7.8158279c1.2600404-1.5114928,3.5078296-1.7141716,5.0178918-.456232,1.5114928,1.2600404,1.7157472,3.5067566.4557068,5.0182494l-6.5147862,7.8158279c-.8581082,1.0298404-2.1745918,1.4531699-3.4043961,1.2197715Z"/></g><path id="W" class="cls-2" d="m104.4578225,120.8210653h.0000096c1.8969931,0,3.5855198,1.2023307,4.2060553,2.9949596l3.2758689,9.4634677c.5809499,1.6782724,2.9528467,1.6827747,3.5401637.0067198l3.330859-9.505434c.6212352-1.7728492,2.2947547-2.9597131,4.1732987-2.9597131h.0000095c3.0888299,0,5.2260243,3.0862336,4.1394795,5.9776503l-6.0101353,15.9936392c-.5250514,1.3972201-.5141108,2.9393755.0307115,4.3290056l.0000067.000017c2.0305549,5.1791572,9.3901912,5.091376,11.2966385-.1347394l8.360913-22.919646c.7438944-2.0392267,2.6830977-3.3960229,4.8537715-3.3960229h.0000112c3.6552137,0,6.1546172,3.6916966,4.7971089,7.0854789l-16.7869301,41.9674695c-1.0096351,2.5240965-3.4542847,4.1792069-6.1728185,4.1792069h-.0000089c-2.6781714,0-5.0948526-1.6069653-6.130806-4.0766622l-5.9264187-14.1284895c-.6438085-1.5348294-2.8195831-1.5317182-3.4589996.0049461l-5.8732714,14.114816c-1.0293227,2.473698-3.4456108,4.0853895-6.124918,4.0853895h-.0000089c-2.7156219,0-5.1570306-1.6550818-6.1625176-4.1776992l-16.7658773-42.0630918c-1.3355233-3.3506295,1.1326068-6.9913644,4.7395917-6.9913644h.0000111c2.1436064,0,4.0586287,1.3398776,4.7932471,3.353676l8.3763471,22.9619552c1.906452,5.2261285,9.2661069,5.31391,11.2966669.1347397l.0000067-.000017c.5448135-1.3896078.5557642-2.9317366.0307398-4.3289413l-5.9952843-15.9547628c-1.0935787-2.9102522,1.057543-6.0165536,4.1664789-6.0165536Z"/><path class="cls-2" d="m147.7435722,178.8771367c-1.3515625,0-2.6699219-.6855469-3.4228516-1.9248047-1.1464844-1.8876953-.5454102-4.3486328,1.3427734-5.4951172,18.5571289-11.2695312,29.6362305-30.9453125,29.6362305-52.6308594,0-33.9335938-27.6069336-61.5400391-61.5400391-61.5400391-33.9384766,0-61.5498047,27.6064453-61.5498047,61.5400391,0,21.6855469,11.0786133,41.3613281,29.6357422,52.6308594,1.8881836,1.1464844,2.4892578,3.6074219,1.3427734,5.4951172-1.1469727,1.8886719-3.6069336,2.4892578-5.4951172,1.3427734-20.9663086-12.7333984-33.4833984-34.9638672-33.4833984-59.46875,0-38.3447266,31.199707-69.5400391,69.5498047-69.5400391,38.3447266,0,69.5400391,31.1953125,69.5400391,69.5400391,0,24.5039062-12.5170898,46.7353516-33.4838867,59.46875-.6484375.3935547-1.3652344.5820312-2.0722656.5820312Z"/><path class="cls-2" d="m128.7340507,198.0656132h-29.9584961c-2.2089844,0-4-1.7910156-4-4s1.7910156-4,4-4h29.9584961c2.2089844,0,4,1.7910156,4,4s-1.7910156,4-4,4Z"/><path class="cls-2" d="m118.4357109,212.2863163h-9.3618164c-2.2089844,0-4-1.7910156-4-4s1.7910156-4,4-4h9.3618164c2.2089844,0,4,1.7910156,4,4s-1.7910156,4-4,4Z"/></svg>