<?xml version="1.0" encoding="UTF-8"?><svg id="Calque_1" xmlns="http://www.w3.org/2000/svg" viewBox="0 0 377.3793103 59.0860638"><defs><style>.cls-1{fill:#1d4ed8;}</style></defs><path class="cls-1" d="m27.4317302,10.4507897h.000007c1.3881301,0,2.6237143.8798089,3.077793,2.1915703l2.3971264,6.9249195c.4251117,1.2280806,2.160754,1.2313752,2.5905249.0049172l2.4373656-6.9556285c.4545907-1.2972874,1.6791933-2.1657785,3.0538232-2.1657785h.000007c2.2602601,0,3.8241582,2.2583603,3.0290759,4.3741627l-4.3979337,11.7033912c-.3842078,1.0224198-.376202,2.1508964.0224732,3.1677622l.0000049.0000125c1.4858644,3.7898631,6.8712992,3.7256289,8.2663475-.0985959l6.118122-16.7715164c.5443469-1.49221,1.9633644-2.4850495,3.5517611-2.4850495h.0000082c2.674713,0,4.5036587,2.7014095,3.5102981,5.1848194l-12.283884,30.7098157c-.7388034,1.8470148-2.5276827,3.0581466-4.5169776,3.0581466h-.0000065c-1.9597596,0-3.7281729-1.1759015-4.4862348-2.9831092l-4.3366738-10.3385625c-.4711087-1.1231158-2.063238-1.1208392-2.5311328.0036193l-4.2977831,10.3285569c-.7532098,1.8101356-2.5213355,2.9894955-4.4819263,2.9894955h-.0000065c-1.9871641,0-3.7736719-1.2111109-4.5094399-3.0570433L7.3759906,15.4569073c-.977273-2.4518327.8287882-5.1159509,3.4682098-5.1159509h.0000081c1.5685901,0,2.9699131.9804593,3.5074722,2.454062l6.1294159,16.8024763c1.3950517,3.8242345,6.7805002,3.8884688,8.2663683.0985962l.0000049-.0000125c.3986689-1.0168495.406682-2.1453066.0224939-3.1677152l-4.3870664-11.6749432c-.8002293-2.1295853.7738601-4.4026303,3.0488328-4.4026303Z"/><path class="cls-1" d="m75.9457119,49.8423689c-2.3040883,0-4.3890458-.3892385-6.2543367-1.1658403-1.8652909-.7774055-3.4562664-1.8446637-4.7731945-3.200971-1.3166602-1.3560394-2.3231082-2.9025459-3.017469-4.6384478-.6951644-1.7359019-1.0423448-3.5987818-1.0423448-5.5883719,0-2.6761821.6121197-5.1450204,1.8379665-7.4065148,1.2250431-2.2612266,2.9625524-4.0699935,5.2119919-5.4263008,2.2494396-1.3560394,4.9462489-2.0351307,8.0923032-2.0351307,3.1082824,0,5.778571.6798949,8.0100622,2.0378095,2.2304197,1.3587183,3.9499805,3.1425718,5.1570753,5.3526321,1.2070948,2.2097924,1.8103742,4.6186242,1.8103742,7.2264954,0,.4714795-.018752.9145631-.0546488,1.331126-.0369683.4165629-.0739366.7699046-.1098333,1.0594895h-22.1646279c.1095654,1.5020374.5210385,2.7801219,1.2344191,3.8345216.7131128,1.0543997,1.6268723,1.8679698,2.7431536,2.4396387,1.1152098.5727405,2.2947123.8580392,3.5385075.8580392,1.4993585,0,2.8985276-.3565564,4.1972394-1.0696692.7061331-.3881983,1.2907389-.8494556,1.753645-1.383772.745531-.8605407,1.9203257-1.2121327,3.01654-.9044621l.0756334.0212277c2.2204438.623204,2.9206881,3.4680536,1.1998331,5.0034401-.0127375.0113647-.0255061.0227128-.0383056.0340444-1.2807634,1.1342297-2.7980703,2.0214685-4.5535279,2.6609126-1.7557255.6394441-3.7126334.9601038-5.870456.9601038Zm-7.5160802-17.0624692h15.0324284c-.1465337-1.4297081-.5580067-2.6718959-1.2344191-3.7262956-.6772161-1.0543997-1.5636512-1.8765421-2.6609126-2.4664273-1.0972615-.5896173-2.3231082-.8845599-3.675933-.8845599-1.3166602,0-2.5149147.2949426-3.5934241.8845599-1.0793131.5898852-1.9571758,1.4120276-2.6333203,2.4664273-.6772161,1.0543997-1.0886891,2.2965875-1.2344191,3.7262956Z"/><path class="cls-1" d="m93.5018952,40.8979199c0-1.8430564.5213063-3.4511766,1.5636512-4.8243607,1.0423448-1.373452,2.4867866-2.4484789,4.3341292-3.2250807,1.8465389-.7766018,3.9955212-1.1658403,6.4464111-1.1658403,1.2070948,0,2.43187.0918849,3.675933.2743154,1.2429915.183502,2.3220367.4757657,3.2368677.8778627v-1.5832068c0-1.759208-.5306824-3.1238198-1.5909755-4.0943711-1.0613647-.9694798-2.6523403-1.4546215-4.7731945-1.4546215-1.6099954,0-3.1273023.2743154-4.5535279.8229461-.6882942.2647186-1.3937395.5849443-2.1161554.9604365-1.3362049.6945231-2.9820855.157133-3.636827-1.1990084l-.0000023-.0000048c-.6170936-1.2781629-.1306943-2.829592,1.121645-3.4975376,1.180958-.6298738,2.386251-1.131025,3.6163192-1.503202,1.9930726-.6035474,4.0871382-.905455,6.2816611-.905455,4.0959784,0,7.2875734,1.0013582,9.5737134,3.0021995,2.2853363,2.0008413,3.4289421,4.8948148,3.4289421,8.6803132v9.0325835c0,.7578498.1371577,1.2987118.411473,1.622854.2743154.3249458.7216851.5229137,1.3442524.594975v5.9800214c-.658464.1098333-1.2534391.2006467-1.7830499.2743154-.5306824.072865-.9791237.0908134-1.3442524.0549167-1.4631939,0-2.5700992-.3206597-3.3191088-.9601038-.7500811-.6394441-1.1985224-1.4350658-1.3442524-2.3865972l-.1644821-1.4814101c-1.2807634,1.6099954-2.8529869,2.8529869-4.7182778,3.7308497s-3.7675501,1.3166602-5.705706,1.3166602c-1.9022592,0-3.612444-.3978109-5.1297509-1.192361-1.5181105-.7948181-2.7072569-1.8695771-3.5660997-3.2250807-.8599144-1.3552358-1.2893358-2.8639703-1.2893358-4.5270072Zm17.8854153,1.375863c.402097-.3565564.7310612-.7664221.9874282-1.230133.2555633-.4637108.3841487-.8564319.3841487-1.1778952v-2.8347707c-.8778627-.3565564-1.8293942-.632747-2.8529869-.8288396-1.0243964-.1963605-1.9938762-.2949426-2.9076357-.2949426-1.9022592,0-3.4659103.4010255-4.6909535,1.2036122-1.2258468.8023189-1.8376986,1.8634157-1.8376986,3.1835584,0,.7133807.2003788,1.3999727.6032795,2.0600441.402097.6600713.97832,1.1856639,1.7284011,1.578117.7490095.392721,1.6732166.58801,2.770478.58801s2.1757709-.2132373,3.2368677-.6418551c1.0605611-.4278141,1.9202076-.9627826,2.5786716-1.6049056Z"/><path class="cls-1" d="m143.9210056,47.8672447c-.658464.2933353-1.4179211.594975-2.2767639.9051871-.8599144.3112836-1.7924259.566847-2.7980703.7682973-1.0064481.2003788-2.0214685.3016397-3.0447934.3016397-1.3905967,0-2.6523403-.2357398-3.7857663-.7064156-1.1339619-.4714795-2.039149-1.2231679-2.7155614-2.2561367-.6772161-1.0321651-1.0150204-2.3823111-1.0150204-4.0488305v-16.4152564h-.9326483c-1.545256,0-2.7979335-1.2526775-2.7979335-2.7979336v-.0000056c0-1.545256,1.2526775-2.7979335,2.7979335-2.7979335h.9326483v-5.6234687c0-2.0452506,1.6580032-3.7032537,3.7032537-3.7032537h.0000074c2.0452506,0,3.7032537,1.6580032,3.7032537,3.7032537v5.6234687h3.2370044c1.5452561,0,2.7979336,1.2526775,2.7979336,2.7979336v.0000056c0,1.5452561-1.2526776,2.7979336-2.7979336,2.7979336h-3.2370044s0,13.9172185,0,13.9172185c.0358967.9756412.3102121,1.688754.8229461,2.1398742.5116624.4508523,1.1701265.6761445,1.9751242.6761445.7310612,0,1.4623902-.1371577,2.1945229-.411473.7310612-.2743154,1.3346085-.5210385,1.8103742-.7404372l1.4264935,5.8701881Z"/><path class="cls-1" d="m170.8032452,49.2937381h-.0000074c-2.0300858,0-3.6757954-1.6457097-3.6757954-3.6757954v-12.2208335c0-2.1988091-.4302251-3.8385399-1.2893358-4.9205318-.8596465-1.0809204-2.039149-1.6217824-3.5385075-1.6217824-.8778627,0-1.8106421.2502056-2.7980703.7500811-.9874282.5006791-1.8746669,1.1880748-2.6609126,2.0624551-.7867815.8751839-1.3809528,1.8843108-1.7830499,3.026845v12.9512249c0,2.014921-1.6334162,3.6483371-3.6483371,3.6483371h-.0000073c-2.014921,0-3.6483371-1.6334162-3.6483371-3.6483371V12.8920321c0-2.014921,1.6334162-3.6483371,3.6483371-3.6483371h.0000073c2.014921,0,3.6483371,1.6334162,3.6483371,3.6483371v13.2392025c1.1334261-1.8079633,2.605996-3.2181157,4.4166381-4.2312609,1.8103742-1.0123416,3.7940708-1.5191821,5.9524291-1.5191821,1.8655588,0,3.3922417.3078011,4.5811202.9225997,1.1880748.6153344,2.1029059,1.4648012,2.7431536,2.5492041.6394441,1.0854745,1.0878854,2.2872115,1.3442524,3.6073542.2552955,1.3201427.3838808,2.6676098.3838808,4.0410618v14.1169313c0,2.0300858-1.6457097,3.6757954-3.6757954,3.6757954Z"/><path class="cls-1" d="m194.2292111,49.8423689c-2.3040883,0-4.3890458-.3892385-6.2543367-1.1658403-1.8652909-.7774055-3.4562664-1.8446637-4.7731945-3.200971-1.3166602-1.3560394-2.3231082-2.9025459-3.017469-4.6384478-.6951644-1.7359019-1.0423448-3.5987818-1.0423448-5.5883719,0-2.6761821.6121197-5.1450204,1.8379665-7.4065148,1.2250431-2.2612266,2.9625524-4.0699935,5.2119919-5.4263008,2.2494396-1.3560394,4.9462489-2.0351307,8.0923032-2.0351307,3.1082824,0,5.778571.6798949,8.0100622,2.0378095,2.2304197,1.3587183,3.9499805,3.1425718,5.1570753,5.3526321,1.2070948,2.2097924,1.8103742,4.6186242,1.8103742,7.2264954,0,.4714795-.018752.9145631-.0546488,1.331126-.0369683.4165629-.0739366.7699046-.1098333,1.0594895h-22.1646279c.1095654,1.5020374.5210385,2.7801219,1.2344191,3.8345216.7131128,1.0543997,1.6268723,1.8679698,2.7431536,2.4396387,1.1152098.5727405,2.2947123.8580392,3.5385075.8580392,1.4993585,0,2.8985276-.3565564,4.1972394-1.0696692.7061331-.3881983,1.2907389-.8494556,1.753645-1.383772.745531-.8605407,1.9203257-1.2121327,3.01654-.9044621l.0756334.0212277c2.2204438.623204,2.9206881,3.4680536,1.1998331,5.0034401-.0127375.0113647-.0255061.0227128-.0383056.0340444-1.2807634,1.1342297-2.7980703,2.0214685-4.5535279,2.6609126-1.7557255.6394441-3.7126334.9601038-5.870456.9601038Zm-7.5160802-17.0624692h15.0324284c-.1465337-1.4297081-.5580067-2.6718959-1.2344191-3.7262956-.6772161-1.0543997-1.5636512-1.8765421-2.6609126-2.4664273-1.0972615-.5896173-2.3231082-.8845599-3.675933-.8845599-1.3166602,0-2.5149147.2949426-3.5934241.8845599-1.0793131.5898852-1.9571758,1.4120276-2.6333203,2.4664273-.6772161,1.0543997-1.0886891,2.2965875-1.2344191,3.7262956Z"/><path class="cls-1" d="m230.9322854,26.9097116c-2.2681916.0367004-4.2792125.4661218-6.034938,1.2890679-1.7554576.8229461-3.036221,2.0394169-3.8404151,3.6486087v13.7980129c0,2.014921-1.6334162,3.6483371-3.6483371,3.6483371h-.0000073c-2.014921,0-3.6483371-1.6334162-3.6483371-3.6483371v-21.4515221c0-1.8634209,1.5106011-3.374022,3.374022-3.374022h.0000067c1.8634209,0,3.374022,1.5106011,3.374022,3.374022v2.496166c1.0235928-1.9748563,2.3316806-3.5291315,3.9226561-4.6633612,1.5912434-1.1331582,3.26446-1.7554576,5.0201855-1.8652909.3651288.0369683.6581961.0463443.8775949.0275923.2196666-.0182163.4200454.009376.6035474.082241v6.6384854Z"/><path class="cls-1" d="m263.7504832,10.4507897h.045478c1.3791417,0,2.6067253.874112,3.0578637,2.1773795l2.4020387,6.9391103c.4251117,1.2280806,2.160754,1.2313752,2.5905249.0049172l2.4373656-6.9556285c.4545907-1.2972874,1.6791933-2.1657785,3.0538232-2.1657785h.000007c2.2602601,0,3.8241582,2.2583603,3.0290759,4.3741627l-4.3979337,11.7033912c-.3842078,1.0224198-.376202,2.1508964.0224732,3.1677622l.0000049.0000125c1.4858644,3.7898631,6.8712992,3.7256289,8.2663475-.0985959l6.118122-16.7715164c.5443469-1.49221,1.9633644-2.4850495,3.5517611-2.4850495h.0000082c2.674713,0,4.5036587,2.7014095,3.5102981,5.1848194l-12.283884,30.7098157c-.7388034,1.8470148-2.5276827,3.0581466-4.5169776,3.0581466h-.0000065c-1.9597596,0-3.7281729-1.1759015-4.4862348-2.9831092l-4.3366738-10.3385625c-.4711087-1.1231158-2.063238-1.1208392-2.5311328.0036193l-4.2977831,10.3285569c-.7532098,1.8101356-2.5213355,2.9894955-4.4819263,2.9894955h-.0000065c-1.9871641,0-3.7736719-1.2111109-4.5094399-3.0570434l-12.2684785-30.7797875c-.977273-2.4518327.8287882-5.1159509,3.4682098-5.1159509h.0000081c1.5685901,0,2.9699131.9804593,3.5074722,2.454062l6.1294159,16.8024763c1.3950517,3.8242345,6.7805002,3.8884688,8.2663683.0985962l.0000049-.0000125c.3986689-1.0168495.406682-2.1453066.0224939-3.1677152l-4.3977787-11.703451c-.7950477-2.1157959.7688492-4.3741224,3.0290911-4.3741224Z"/><path class="cls-1" d="m302.8031787,12.8920393v-.0000072c0-2.014921,1.6334162-3.6483371,3.6483371-3.6483371h.0000073c2.014921,0,3.6483371,1.6334162,3.6483371,3.6483371v.0000072c0,1.9847393-1.6089491,3.5936884-3.5936884,3.5936884h-.1093047c-1.9847393,0-3.5936884-1.6089491-3.5936884-3.5936884Zm0,32.7533617v-21.4515224c0-2.014921,1.6334162-3.6483371,3.6483371-3.6483371h.0000073c2.014921,0,3.6483371,1.6334162,3.6483371,3.6483371v21.4515224c0,2.014921-1.6334162,3.6483371-3.6483371,3.6483371h-.0000073c-2.014921,0-3.6483371-1.6334162-3.6483371-3.6483371Z"/><path class="cls-1" d="m327.3811924,49.8423689c-2.4508899,0-4.8005189-.4029007-7.0499584-1.2070948-1.3803112-.4933676-2.6334978-1.1318186-3.7591265-1.9150434-1.1853068-.8247496-1.5390607-2.4231143-.8304248-3.6812873l.0000027-.0000048c.7898836-1.4024271,2.5880831-1.8464434,3.9537034-.9945049.8661605.5403519,1.7274761.9816764,2.583645,1.3241997,1.6458922.6581961,3.2548161.9874282,4.8278433.9874282,1.4264935,0,2.5692956-.246991,3.4289421-.7407051.8591107-.4937141,1.2893358-1.2344191,1.2893358-2.2218473,0-.721953-.2384186-1.2721911-.7131128-1.650982-.4757657-.3790588-1.1615541-.7048083-2.0573652-.9756412-.8968827-.2708328-1.9845002-.5864027-3.26446-.9472452-2.1216579-.6498917-3.8867594-1.3088915-5.294233-1.9767315-1.4085451-.66784-2.4782143-1.4985548-3.2095433-2.4910728-.7321327-.9927859-1.0972615-2.2657806-1.0972615-3.8181806,0-1.8773458.4843381-3.4924311,1.4538179-4.8468632.9686761-1.3544321,2.3223046-2.4104391,4.0598138-3.1682889,1.7369735-.7578498,3.7761224-1.1377123,6.1174469-1.1377123,2.0477213,0,3.9861451.3206597,5.8152714.9601038.9570295.3352267,1.8689313.7779527,2.735859,1.3283315,1.3331092.8463394,1.7102326,2.6261373.8594393,3.9564084l-.000003.0000047c-.835877,1.3069484-2.5618508,1.7133889-3.8907033.912792-.626259-.3773038-1.2409918-.6875045-1.8441982-.930628-1.3166602-.5296108-2.6523403-.7953538-4.0048972-.7953538-.7680294,0-1.4907861.0900097-2.1671985.2700292-.6772161.1800195-1.2258468.477373-1.6458922.8915249-.4208491.413884-.6308718.9986794-.6308718,1.7546539,0,.6480165.1920743,1.1701265.5759551,1.5660621.3841487.3962035.9686761.7372225,1.7557255,1.025468.7859778.2879776,1.7460816.6118518,2.8803113.9718908,2.3043562.6482844,4.2425121,1.3056768,5.8155393,1.9716417,1.5722235.6662327,2.770478,1.502841,3.5934241,2.5108964s1.2344191,2.375346,1.2344191,4.1037471c0,2.80825-1.0423448,5.0043802-3.1270344,6.5886586-2.0849575,1.5840105-4.8830278,2.375346-8.3942109,2.375346Z"/><path class="cls-1" d="m357.2261147,49.8423689c-2.3040883,0-4.3890458-.3892385-6.2543367-1.1658403-1.8652909-.7774055-3.4562664-1.8446637-4.7731945-3.200971-1.3166602-1.3560394-2.3231082-2.9025459-3.017469-4.6384478-.6951644-1.7359019-1.0423448-3.5987818-1.0423448-5.5883719,0-2.6761821.6121197-5.1450204,1.8379665-7.4065148,1.2250431-2.2612266,2.9625524-4.0699935,5.2119919-5.4263008,2.2494396-1.3560394,4.9462489-2.0351307,8.0923032-2.0351307,3.1082824,0,5.778571.6798949,8.0100622,2.0378095,2.2304197,1.3587183,3.9499805,3.1425718,5.1570753,5.3526321,1.2070948,2.2097924,1.8103742,4.6186242,1.8103742,7.2264954,0,.4714795-.018752.9145631-.0546488,1.331126-.0369683.4165629-.0739366.7699046-.1098333,1.0594895h-22.1646279c.1095654,1.5020374.5210385,2.7801219,1.2344191,3.8345216.7131128,1.0543997,1.6268723,1.8679698,2.7431536,2.4396387,1.1152098.5727405,2.2947123.8580392,3.5385075.8580392,1.4993585,0,2.8985276-.3565564,4.1972394-1.0696692.7001474-.3849076,1.2808192-.841641,1.7418471-1.3702002.7556288-.8663132,1.9388652-1.2238124,3.0456522-.9131745l.058319.0163682c2.2204438.623204,2.9206881,3.4680536,1.1998331,5.0034401-.0127375.0113647-.0255061.0227128-.0383056.0340444-1.2807634,1.1342297-2.7980703,2.0214685-4.5535279,2.6609126-1.7557255.6394441-3.7126334.9601038-5.870456.9601038Zm-7.5160802-17.0624692h15.0324284c-.1465337-1.4297081-.5580067-2.6718959-1.2344191-3.7262956-.6772161-1.0543997-1.5636512-1.8765421-2.6609126-2.4664273-1.0972615-.5896173-2.3231082-.8845599-3.675933-.8845599-1.3166602,0-2.5149147.2949426-3.5934241.8845599-1.0793131.5898852-1.9571758,1.4120276-2.6333203,2.4664273-.6772161,1.0543997-1.0886891,2.2965875-1.2344191,3.7262956Z"/></svg>